<?xml version="1.0" encoding="UTF-8" standalone="no"?>
<!-- Created with Inkscape (http://www.inkscape.org/) -->

<svg
   xmlns:dc="http://purl.org/dc/elements/1.1/"
   xmlns:cc="http://creativecommons.org/ns#"
   xmlns:rdf="http://www.w3.org/1999/02/22-rdf-syntax-ns#"
   xmlns:svg="http://www.w3.org/2000/svg"
   xmlns="http://www.w3.org/2000/svg"
   xmlns:xlink="http://www.w3.org/1999/xlink"
   xmlns:sodipodi="http://sodipodi.sourceforge.net/DTD/sodipodi-0.dtd"
   xmlns:inkscape="http://www.inkscape.org/namespaces/inkscape"
   id="svg20144"
   version="1.1"
   inkscape:version="0.48.5 r10040"
   width="1000"
   height="1203.7607"
   viewBox = "0 0 1204 1200"
   xml:space="preserve"
   sodipodi:docname="A.svg"><metadata
     id="metadata20150"><rdf:RDF><cc:Work
         rdf:about=""><dc:format>image/svg+xml</dc:format><dc:type
           rdf:resource="http://purl.org/dc/dcmitype/StillImage" /><dc:title></dc:title></cc:Work></rdf:RDF></metadata><defs
     id="defs20148"><linearGradient
       inkscape:collect="always"
       id="linearGradient22069"><stop
         style="stop-color:#d5d7d8;stop-opacity:1"
         offset="0"
         id="stop22071" /><stop
         style="stop-color:#a7a9ab;stop-opacity:1"
         offset="1"
         id="stop22073" /></linearGradient><linearGradient
       inkscape:collect="always"
       id="linearGradient22061"><stop
         style="stop-color:#a5a8aa;stop-opacity:1"
         offset="0"
         id="stop22063" /><stop
         style="stop-color:#989a9c;stop-opacity:1"
         offset="1"
         id="stop22065" /></linearGradient><linearGradient
       inkscape:collect="always"
       id="linearGradient22053"><stop
         style="stop-color:#cccdcf;stop-opacity:1"
         offset="0"
         id="stop22055" /><stop
         style="stop-color:#aaacaf;stop-opacity:1"
         offset="1"
         id="stop22057" /></linearGradient><radialGradient
       id="radialGradient22045"
       spreadMethod="pad"
       gradientTransform="matrix(42.893997,0,0,-42.893997,567.8839,530.42288)"
       gradientUnits="userSpaceOnUse"
       r="1"
       cy="0"
       cx="0"
       fy="0"
       fx="0"><stop
         id="stop22047"
         offset="0"
         style="stop-opacity:1;stop-color:#fefefe" /><stop
         id="stop22051"
         offset="1"
         style="stop-opacity:1;stop-color:#d6d7d9" /></radialGradient><radialGradient
       fx="0"
       fy="0"
       cx="0"
       cy="0"
       r="1"
       gradientUnits="userSpaceOnUse"
       gradientTransform="matrix(42.893997,0,0,-42.893997,567.8839,530.42288)"
       spreadMethod="pad"
       id="radialGradient22019"><stop
         style="stop-opacity:1;stop-color:#fdfdfd"
         offset="0"
         id="stop22021" /><stop
         style="stop-opacity:1;stop-color:#f3f4f4"
         offset="1"
         id="stop22023" /></radialGradient><radialGradient
       id="radialGradient22009"
       spreadMethod="pad"
       gradientTransform="matrix(42.893997,0,0,-42.893997,567.8839,530.42288)"
       gradientUnits="userSpaceOnUse"
       r="1"
       cy="0"
       cx="0"
       fy="0"
       fx="0"><stop
         id="stop22011"
         offset="0"
         style="stop-opacity:1;stop-color:#ffffff" /><stop
         id="stop22015"
         offset="1"
         style="stop-opacity:1;stop-color:#221f1f" /></radialGradient><linearGradient
       inkscape:collect="always"
       id="linearGradient21991"><stop
         style="stop-color:#ffffff;stop-opacity:1"
         offset="0"
         id="stop21993" /><stop
         style="stop-color:#f6f6f7;stop-opacity:1"
         offset="1"
         id="stop21995" /></linearGradient><radialGradient
       id="radialGradient21981"
       spreadMethod="pad"
       gradientTransform="matrix(57.226044,17.159103,17.565094,-55.587753,574.89232,518.96043)"
       gradientUnits="userSpaceOnUse"
       r="1"
       cy="0"
       cx="0"
       fy="0"
       fx="0"><stop
         id="stop21983"
         offset="0"
         style="stop-opacity:1;stop-color:#ffffff" /><stop
         id="stop21985"
         offset="1"
         style="stop-opacity:1;stop-color:#b8babc" /></radialGradient><clipPath
       clipPathUnits="userSpaceOnUse"
       id="clipPath20268"><path
         d="m 519.12,475.766 148.32,0 0,116.234 -148.32,0 0,-116.234 z"
         id="path20270"
         inkscape:connector-curvature="0" /></clipPath><radialGradient
       fx="0"
       fy="0"
       cx="0"
       cy="0"
       r="1"
       gradientUnits="userSpaceOnUse"
       gradientTransform="matrix(112.66077,0,0,-112.66077,638.02397,607.39742)"
       spreadMethod="pad"
       id="radialGradient20292"><stop
         style="stop-opacity:1;stop-color:#ffffff"
         offset="0"
         id="stop20294" /><stop
         style="stop-opacity:1;stop-color:#5f6162"
         offset="1"
         id="stop20296" /></radialGradient><clipPath
       clipPathUnits="userSpaceOnUse"
       id="clipPath20304"><path
         d="m 519.12,475.766 149.76,0 0,116.234 -149.76,0 0,-116.234 z"
         id="path20306"
         inkscape:connector-curvature="0" /></clipPath><clipPath
       clipPathUnits="userSpaceOnUse"
       id="clipPath20340"><path
         d="m 564.656,587.032 0,-7.791 -0.613,0 c -3.942,0 -5.474,-1.955 -8.233,-4.024 l 0,0 c -2.578,-1.932 -6.932,-3.931 -10.828,-4.215 l 0,0 -0.289,-0.02 0.003,-0.289 c 0.07,-6.313 2.775,-29.06 10.617,-47.304 l 0,0 c 8.063,-18.752 20.61,-33.159 37.3,-42.829 l 0,0 0.155,-0.089 0.154,0.089 c 16.688,9.669 29.237,24.079 37.3,42.829 l 0,0 c 7.844,18.244 10.545,40.991 10.618,47.304 l 0,0 0.003,0.289 -0.288,0.02 c -3.896,0.284 -8.252,2.283 -10.829,4.215 l 0,0 c -2.759,2.069 -4.29,4.024 -8.233,4.024 l 0,0 -0.615,0 0,8.153 -0.367,-0.071 c -3.7,-0.723 -14.76,-2.4 -27.481,-2.396 l 0,0 c -13.033,0.007 -24.986,1.845 -28.01,2.409 l 0,0 -0.364,0.067 0,-0.371 z"
         id="path20342"
         inkscape:connector-curvature="0" /></clipPath><radialGradient
       fx="0"
       fy="0"
       cx="0"
       cy="0"
       r="1"
       gradientUnits="userSpaceOnUse"
       gradientTransform="matrix(57.226044,17.159103,17.565094,-55.587662,574.89232,518.96088)"
       spreadMethod="pad"
       id="radialGradient20408"><stop
         style="stop-opacity:1;stop-color:#ffffff"
         offset="0"
         id="stop20410" /><stop
         style="stop-opacity:1;stop-color:#221f1f"
         offset="1"
         id="stop20412" /></radialGradient><radialGradient
       fx="0"
       fy="0"
       cx="0"
       cy="0"
       r="1"
       gradientUnits="userSpaceOnUse"
       gradientTransform="matrix(57.22612,17.159103,17.565094,-55.587845,574.89143,518.96043)"
       spreadMethod="pad"
       id="radialGradient20428"><stop
         style="stop-opacity:1;stop-color:#ffffff"
         offset="0"
         id="stop20430" /><stop
         style="stop-opacity:1;stop-color:#221f1f"
         offset="1"
         id="stop20432" /></radialGradient><radialGradient
       fx="0"
       fy="0"
       cx="0"
       cy="0"
       r="1"
       gradientUnits="userSpaceOnUse"
       gradientTransform="matrix(57.219879,17.157257,17.563171,-55.581696,574.8932,518.95615)"
       spreadMethod="pad"
       id="radialGradient20448"><stop
         style="stop-opacity:1;stop-color:#ffffff"
         offset="0"
         id="stop20450" /><stop
         style="stop-opacity:1;stop-color:#221f1f"
         offset="1"
         id="stop20452" /></radialGradient><radialGradient
       fx="0"
       fy="0"
       cx="0"
       cy="0"
       r="1"
       gradientUnits="userSpaceOnUse"
       gradientTransform="matrix(57.226044,17.159103,17.565094,-55.587662,574.89232,518.96088)"
       spreadMethod="pad"
       id="radialGradient20468"><stop
         style="stop-opacity:1;stop-color:#ffffff"
         offset="0"
         id="stop20470" /><stop
         style="stop-opacity:1;stop-color:#221f1f"
         offset="1"
         id="stop20472" /></radialGradient><radialGradient
       fx="0"
       fy="0"
       cx="0"
       cy="0"
       r="1"
       gradientUnits="userSpaceOnUse"
       gradientTransform="matrix(57.225952,17.159103,17.565002,-55.587585,574.89143,518.96001)"
       spreadMethod="pad"
       id="radialGradient20488"><stop
         style="stop-opacity:1;stop-color:#ffffff"
         offset="0"
         id="stop20490" /><stop
         style="stop-opacity:1;stop-color:#221f1f"
         offset="1"
         id="stop20492" /></radialGradient><radialGradient
       fx="0"
       fy="0"
       cx="0"
       cy="0"
       r="1"
       gradientUnits="userSpaceOnUse"
       gradientTransform="matrix(57.223663,17.158401,17.5643,-55.585388,574.89232,518.96001)"
       spreadMethod="pad"
       id="radialGradient20508"><stop
         style="stop-opacity:1;stop-color:#ffffff"
         offset="0"
         id="stop20510" /><stop
         style="stop-opacity:1;stop-color:#221f1f"
         offset="1"
         id="stop20512" /></radialGradient><radialGradient
       fx="0"
       fy="0"
       cx="0"
       cy="0"
       r="1"
       gradientUnits="userSpaceOnUse"
       gradientTransform="matrix(57.229385,17.16008,17.566071,-55.590912,574.88977,518.96043)"
       spreadMethod="pad"
       id="radialGradient20528"><stop
         style="stop-opacity:1;stop-color:#ffffff"
         offset="0"
         id="stop20530" /><stop
         style="stop-opacity:1;stop-color:#221f1f"
         offset="1"
         id="stop20532" /></radialGradient><radialGradient
       fx="0"
       fy="0"
       cx="0"
       cy="0"
       r="1"
       gradientUnits="userSpaceOnUse"
       gradientTransform="matrix(57.226471,17.159195,17.565185,-55.588104,574.89143,518.96088)"
       spreadMethod="pad"
       id="radialGradient20548"><stop
         style="stop-opacity:1;stop-color:#ffffff"
         offset="0"
         id="stop20550" /><stop
         style="stop-opacity:1;stop-color:#221f1f"
         offset="1"
         id="stop20552" /></radialGradient><radialGradient
       fx="0"
       fy="0"
       cx="0"
       cy="0"
       r="1"
       gradientUnits="userSpaceOnUse"
       gradientTransform="matrix(57.226044,17.159103,17.565094,-55.587753,574.89232,518.96043)"
       spreadMethod="pad"
       id="radialGradient20568"><stop
         style="stop-opacity:1;stop-color:#ffffff"
         offset="0"
         id="stop20570" /><stop
         style="stop-opacity:1;stop-color:#221f1f"
         offset="1"
         id="stop20572" /></radialGradient><radialGradient
       fx="0"
       fy="0"
       cx="0"
       cy="0"
       r="1"
       gradientUnits="userSpaceOnUse"
       gradientTransform="matrix(57.223755,17.158401,17.564392,-55.58548,574.8932,518.95825)"
       spreadMethod="pad"
       id="radialGradient20588"><stop
         style="stop-opacity:1;stop-color:#ffffff"
         offset="0"
         id="stop20590" /><stop
         style="stop-opacity:1;stop-color:#221f1f"
         offset="1"
         id="stop20592" /></radialGradient><clipPath
       clipPathUnits="userSpaceOnUse"
       id="clipPath20600"><path
         d="m 564.656,587.032 0,-7.791 -0.613,0 c -3.942,0 -5.474,-1.955 -8.233,-4.024 l 0,0 c -2.578,-1.932 -6.932,-3.931 -10.828,-4.215 l 0,0 -0.289,-0.02 0.003,-0.289 c 0.07,-6.313 2.775,-29.06 10.617,-47.304 l 0,0 c 8.063,-18.752 20.61,-33.159 37.3,-42.829 l 0,0 0.155,-0.089 0.154,0.089 c 16.688,9.669 29.237,24.079 37.3,42.829 l 0,0 c 7.844,18.244 10.545,40.991 10.618,47.304 l 0,0 0.003,0.289 -0.288,0.02 c -3.896,0.284 -8.252,2.283 -10.829,4.215 l 0,0 c -2.759,2.069 -4.29,4.024 -8.233,4.024 l 0,0 -0.615,0 0,8.153 -0.367,-0.071 c -3.7,-0.723 -14.76,-2.4 -27.481,-2.396 l 0,0 c -13.033,0.007 -24.986,1.845 -28.01,2.409 l 0,0 -0.364,0.067 0,-0.371 z"
         id="path20602"
         inkscape:connector-curvature="0" /></clipPath><radialGradient
       fx="0"
       fy="0"
       cx="0"
       cy="0"
       r="1"
       gradientUnits="userSpaceOnUse"
       gradientTransform="matrix(57.22612,17.159103,17.565094,-55.587753,574.89143,518.96043)"
       spreadMethod="pad"
       id="radialGradient20620"><stop
         style="stop-opacity:1;stop-color:#ffffff"
         offset="0"
         id="stop20622" /><stop
         style="stop-opacity:1;stop-color:#221f1f"
         offset="1"
         id="stop20624" /></radialGradient><radialGradient
       fx="0"
       fy="0"
       cx="0"
       cy="0"
       r="1"
       gradientUnits="userSpaceOnUse"
       gradientTransform="matrix(42.893997,0,0,-42.893997,567.8839,530.42288)"
       spreadMethod="pad"
       id="radialGradient20640"><stop
         style="stop-opacity:1;stop-color:#ffffff"
         offset="0"
         id="stop20642" /><stop
         style="stop-opacity:1;stop-color:#221f1f"
         offset="0.549454"
         id="stop20644" /><stop
         style="stop-opacity:1;stop-color:#221f1f"
         offset="1"
         id="stop20646" /></radialGradient><radialGradient
       fx="0"
       fy="0"
       cx="0"
       cy="0"
       r="1"
       gradientUnits="userSpaceOnUse"
       gradientTransform="matrix(57.227799,17.159637,17.565628,-55.589432,574.89143,518.96043)"
       spreadMethod="pad"
       id="radialGradient20662"><stop
         style="stop-opacity:1;stop-color:#cdcccc"
         offset="0"
         id="stop20664" /><stop
         style="stop-opacity:1;stop-color:#1b191a"
         offset="1"
         id="stop20666" /></radialGradient><radialGradient
       fx="0"
       fy="0"
       cx="0"
       cy="0"
       r="1"
       gradientUnits="userSpaceOnUse"
       gradientTransform="matrix(57.227173,17.159454,17.565445,-55.588806,574.89143,518.96088)"
       spreadMethod="pad"
       id="radialGradient20682"><stop
         style="stop-opacity:1;stop-color:#cdcccc"
         offset="0"
         id="stop20684" /><stop
         style="stop-opacity:1;stop-color:#1b191a"
         offset="1"
         id="stop20686" /></radialGradient><clipPath
       clipPathUnits="userSpaceOnUse"
       id="clipPath20694"><path
         d="m 519.12,475.766 149.76,0 0,116.234 -149.76,0 0,-116.234 z"
         id="path20696"
         inkscape:connector-curvature="0" /></clipPath><clipPath
       clipPathUnits="userSpaceOnUse"
       id="clipPath20706"><path
         d="m 519.12,475.766 148.32,0 0,116.234 -148.32,0 0,-116.234 z"
         id="path20708"
         inkscape:connector-curvature="0" /></clipPath><clipPath
       clipPathUnits="userSpaceOnUse"
       id="clipPath20722"><path
         d="m 519.12,475.766 149.76,0 0,116.234 -149.76,0 0,-116.234 z"
         id="path20724"
         inkscape:connector-curvature="0" /></clipPath><linearGradient
       inkscape:collect="always"
       xlink:href="#linearGradient21991"
       id="linearGradient21997"
       x1="582.84082"
       y1="527.87799"
       x2="592.24622"
       y2="522.29358"
       gradientUnits="userSpaceOnUse" /><linearGradient
       inkscape:collect="always"
       xlink:href="#radialGradient22009"
       id="linearGradient21999"
       x1="588.85712"
       y1="520.13403"
       x2="605.62219"
       y2="511.26651"
       gradientUnits="userSpaceOnUse" /><linearGradient
       inkscape:collect="always"
       xlink:href="#radialGradient22045"
       id="linearGradient22043"
       x1="586.77881"
       y1="507.94119"
       x2="598.55591"
       y2="496.16406"
       gradientUnits="userSpaceOnUse" /><linearGradient
       inkscape:collect="always"
       xlink:href="#linearGradient22053"
       id="linearGradient22059"
       x1="599.80292"
       y1="496.57971"
       x2="602.98969"
       y2="490.48334"
       gradientUnits="userSpaceOnUse" /><linearGradient
       inkscape:collect="always"
       xlink:href="#linearGradient22061"
       id="linearGradient22067"
       x1="610.61017"
       y1="499.80112"
       x2="612.23822"
       y2="498.7966"
       gradientUnits="userSpaceOnUse" /><linearGradient
       inkscape:collect="always"
       xlink:href="#linearGradient22069"
       id="linearGradient22075"
       x1="605.96857"
       y1="514.10687"
       x2="614.62823"
       y2="514.66113"
       gradientUnits="userSpaceOnUse" /><linearGradient
       inkscape:collect="always"
       xlink:href="#linearGradient22061"
       id="linearGradient22079"
       gradientUnits="userSpaceOnUse"
       x1="610.61017"
       y1="499.80112"
       x2="612.23822"
       y2="498.7966" /><linearGradient
       inkscape:collect="always"
       xlink:href="#linearGradient22061"
       id="linearGradient22081"
       gradientUnits="userSpaceOnUse"
       x1="610.61017"
       y1="499.80112"
       x2="612.23822"
       y2="498.7966" /><linearGradient
       inkscape:collect="always"
       xlink:href="#linearGradient22061"
       id="linearGradient22083"
       gradientUnits="userSpaceOnUse"
       x1="610.61017"
       y1="499.80112"
       x2="612.23822"
       y2="498.7966" /><linearGradient
       inkscape:collect="always"
       xlink:href="#linearGradient22069"
       id="linearGradient22087"
       gradientUnits="userSpaceOnUse"
       x1="605.96857"
       y1="514.10687"
       x2="614.62823"
       y2="514.66113" /><linearGradient
       inkscape:collect="always"
       xlink:href="#linearGradient22069"
       id="linearGradient22089"
       gradientUnits="userSpaceOnUse"
       x1="605.96857"
       y1="514.10687"
       x2="614.62823"
       y2="514.66113" /><linearGradient
       inkscape:collect="always"
       xlink:href="#linearGradient22069"
       id="linearGradient22091"
       gradientUnits="userSpaceOnUse"
       x1="605.96857"
       y1="514.10687"
       x2="614.62823"
       y2="514.66113" /><linearGradient
       inkscape:collect="always"
       xlink:href="#radialGradient22045"
       id="linearGradient22095"
       gradientUnits="userSpaceOnUse"
       x1="586.77881"
       y1="507.94119"
       x2="598.55591"
       y2="496.16406" /><linearGradient
       inkscape:collect="always"
       xlink:href="#radialGradient22045"
       id="linearGradient22097"
       gradientUnits="userSpaceOnUse"
       x1="586.77881"
       y1="507.94119"
       x2="598.55591"
       y2="496.16406" /><linearGradient
       inkscape:collect="always"
       xlink:href="#radialGradient22045"
       id="linearGradient22099"
       gradientUnits="userSpaceOnUse"
       x1="586.77881"
       y1="507.94119"
       x2="598.55591"
       y2="496.16406" /><linearGradient
       inkscape:collect="always"
       xlink:href="#linearGradient22053"
       id="linearGradient22103"
       gradientUnits="userSpaceOnUse"
       x1="599.80292"
       y1="496.57971"
       x2="602.98969"
       y2="490.48334" /><linearGradient
       inkscape:collect="always"
       xlink:href="#linearGradient22053"
       id="linearGradient22105"
       gradientUnits="userSpaceOnUse"
       x1="599.80292"
       y1="496.57971"
       x2="602.98969"
       y2="490.48334" /><linearGradient
       inkscape:collect="always"
       xlink:href="#linearGradient22053"
       id="linearGradient22107"
       gradientUnits="userSpaceOnUse"
       x1="599.80292"
       y1="496.57971"
       x2="602.98969"
       y2="490.48334" /><linearGradient
       inkscape:collect="always"
       xlink:href="#linearGradient21991"
       id="linearGradient22111"
       gradientUnits="userSpaceOnUse"
       x1="582.84082"
       y1="527.87799"
       x2="592.24622"
       y2="522.29358" /><linearGradient
       inkscape:collect="always"
       xlink:href="#linearGradient21991"
       id="linearGradient22113"
       gradientUnits="userSpaceOnUse"
       x1="582.84082"
       y1="527.87799"
       x2="592.24622"
       y2="522.29358" /><linearGradient
       inkscape:collect="always"
       xlink:href="#linearGradient21991"
       id="linearGradient22115"
       gradientUnits="userSpaceOnUse"
       x1="582.84082"
       y1="527.87799"
       x2="592.24622"
       y2="522.29358" /><clipPath
       clipPathUnits="userSpaceOnUse"
       id="clipPath22355"><path
         inkscape:connector-curvature="0"
         d="M 0,0 612,0 612,792 0,792 0,0 z"
         id="path22357" /></clipPath><clipPath
       clipPathUnits="userSpaceOnUse"
       id="clipPath22900"><path
         inkscape:connector-curvature="0"
         d="M 0,0 612,0 612,792 0,792 0,0 z"
         id="path22902" /></clipPath><clipPath
       clipPathUnits="userSpaceOnUse"
       id="clipPath22886"><path
         inkscape:connector-curvature="0"
         d="M 0,0 612,0 612,792 0,792 0,0 z"
         id="path22888" /></clipPath><clipPath
       clipPathUnits="userSpaceOnUse"
       id="clipPath22870"><path
         inkscape:connector-curvature="0"
         d="M 0,0 612,0 612,792 0,792 0,0 z"
         id="path22872" /></clipPath><clipPath
       clipPathUnits="userSpaceOnUse"
       id="clipPath22838"><path
         inkscape:connector-curvature="0"
         d="M 0,0 612,0 612,792 0,792 0,0 z"
         id="path22840" /></clipPath><clipPath
       clipPathUnits="userSpaceOnUse"
       id="clipPath22782"><path
         inkscape:connector-curvature="0"
         d="M 0,0 612,0 612,792 0,792 0,0 z"
         id="path22784" /></clipPath><clipPath
       clipPathUnits="userSpaceOnUse"
       id="clipPath22900-1"><path
         inkscape:connector-curvature="0"
         d="M 0,0 612,0 612,792 0,792 0,0 z"
         id="path22902-2" /></clipPath><clipPath
       clipPathUnits="userSpaceOnUse"
       id="clipPath22886-9"><path
         inkscape:connector-curvature="0"
         d="M 0,0 612,0 612,792 0,792 0,0 z"
         id="path22888-0" /></clipPath><clipPath
       clipPathUnits="userSpaceOnUse"
       id="clipPath22870-3"><path
         inkscape:connector-curvature="0"
         d="M 0,0 612,0 612,792 0,792 0,0 z"
         id="path22872-5" /></clipPath><clipPath
       clipPathUnits="userSpaceOnUse"
       id="clipPath22838-1"><path
         inkscape:connector-curvature="0"
         d="M 0,0 612,0 612,792 0,792 0,0 z"
         id="path22840-0" /></clipPath><clipPath
       clipPathUnits="userSpaceOnUse"
       id="clipPath22782-2"><path
         inkscape:connector-curvature="0"
         d="M 0,0 612,0 612,792 0,792 0,0 z"
         id="path22784-4" /></clipPath><clipPath
       clipPathUnits="userSpaceOnUse"
       id="clipPath24604"><path
         inkscape:connector-curvature="0"
         d="M 0,792 612,792 612,0 0,0 0,792 z"
         id="path24606" /></clipPath></defs><sodipodi:namedview
     pagecolor="#ffffff"
     bordercolor="#666666"
     borderopacity="1"
     objecttolerance="10"
     gridtolerance="10"
     guidetolerance="10"
     inkscape:pageopacity="0"
     inkscape:pageshadow="2"
     inkscape:window-width="1055"
     inkscape:window-height="1044"
     id="namedview20146"
     showgrid="false"
     fit-margin-left="0.5"
     fit-margin-bottom="0.5"
     fit-margin-top="0.5"
     fit-margin-right="0.5"
     inkscape:zoom="0.36086854"
     inkscape:cx="1006.6354"
     inkscape:cy="284.55266"
     inkscape:window-x="857"
     inkscape:window-y="-21"
     inkscape:window-maximized="0"
     inkscape:current-layer="g20152" /><g
     id="g20152"
     inkscape:groupmode="layer"
     inkscape:label="BostonBreakers2013MediaGuide"
     transform="matrix(1.25,0,0,-1.25,-1017.5884,3562.5328)"><g
       id="g24600"
       transform="matrix(5.2235294,0,0,5.2235294,626.4226,1170.8419)"><g
         id="g24602"
         clip-path="url(#clipPath24604)"><g
           id="g24608"
           transform="translate(48.4854,297.4808)"><path
             d="m 0,0 c 0.452,-0.222 1.009,-0.496 1.009,-0.496 31.699,-15.591 57.351,-2.742 62.169,-0.009 0,0 0.39,0.221 0.837,0.475 0.373,-0.213 0.837,-0.475 0.837,-0.475 4.824,-2.733 30.493,-15.575 62.174,0.009 0,0 0.453,0.223 1.008,0.496 2.196,-1.903 7.988,-6.923 10.49,-9.092 -0.259,-0.524 -0.58,-1.175 -0.58,-1.175 -2.24,-4.527 -9.551,-20.242 -9.551,-32.419 0,-2.857 0.886,-7.368 2.01,-13.077 0.02,-0.114 0.046,-0.236 0.046,-0.236 1.765,-8.92 4.181,-21.137 4.181,-32.825 0,-22.143 -8.402,-35.78 -25.682,-41.691 -28.548,-9.759 -39.444,-18.929 -43.558,-24.903 0,-0.002 -0.632,-0.92 -1.402,-2.038 -0.622,0.909 -1.395,2.038 -1.395,2.038 -4.089,5.976 -14.958,15.145 -43.503,24.903 -17.284,5.909 -25.685,19.547 -25.685,41.691 0,11.624 2.317,23.38 4.179,32.827 1.153,5.839 2.058,10.409 2.058,13.311 0,12.223 -7.309,27.905 -9.551,32.419 0,0 -0.262,0.529 -0.582,1.173 C -7.987,-6.924 -2.196,-1.903 0,0"
             style="fill:#ffffff;fill-opacity:1;fill-rule:nonzero;stroke:none"
             id="path24610"
             inkscape:connector-curvature="0" /></g><g
           id="g24612"
           transform="translate(45.7102,274.4273)"
           style="fill:#0c437c;fill-opacity:1"><path
             d="m 0,0 c 2.136,-6.11 4.018,-13.205 4.025,-19.633 -0.011,-3.209 -0.939,-7.768 -2.089,-13.622 -1.863,-9.441 -4.151,-21.101 -4.148,-32.515 -10e-4,-10.876 2.065,-19.509 6.122,-26.091 4.063,-6.578 10.113,-11.209 18.475,-14.078 28.706,-9.825 39.88,-19.079 44.31,-25.517 0,-0.001 0.026,-0.038 0.071,-0.104 0.027,0.039 0.046,0.067 0.057,0.083 l 0,0 0.017,0.024 c 4.454,6.434 15.654,15.688 44.362,25.514 8.361,2.869 14.41,7.501 18.473,14.08 4.056,6.581 6.122,15.214 6.121,26.089 0.003,11.465 -2.381,23.584 -4.146,32.495 -0.007,0.031 -0.032,0.149 -0.057,0.284 l 0.001,0 c -1.118,5.712 -2.024,10.202 -2.035,13.358 0.007,6.405 1.89,13.497 4.026,19.61 2.14,6.108 4.552,11.219 5.691,13.521 0,0 0.011,0.022 0.031,0.062 -2.466,2.138 -6.488,5.624 -8.745,7.58 -0.033,-0.017 -0.052,-0.026 -0.052,-0.026 l 0,0 c -11.754,-5.782 -22.747,-7.744 -32.188,-7.742 -16.516,0.005 -28.264,5.955 -31.488,7.777 0,0 -0.016,0.009 -0.044,0.025 C 66.762,21.158 66.746,21.15 66.746,21.15 63.527,19.327 51.785,13.374 35.269,13.368 25.828,13.367 14.834,15.329 3.073,21.115 c 0,0 -0.018,0.009 -0.051,0.025 -2.256,-1.956 -6.278,-5.443 -8.744,-7.581 0.018,-0.037 0.028,-0.058 0.028,-0.058 l 0,0.001 C -4.553,11.204 -2.141,6.105 0,0 m 65.436,-135.311 c -0.622,0.91 -1.394,2.038 -1.395,2.038 -3.749,5.514 -14.312,14.599 -42.696,24.29 -8.922,3.04 -15.714,8.182 -20.174,15.435 -4.464,7.251 -6.6,16.509 -6.6,27.778 0.003,11.834 2.349,23.686 4.21,33.138 1.158,5.825 2.039,10.404 2.028,12.999 0.007,5.797 -1.766,12.654 -3.844,18.569 -2.075,5.921 -4.439,10.919 -5.541,13.137 0,0 -0.262,0.528 -0.581,1.172 l -0.553,1.115 0.94,0.815 c 2.504,2.17 8.295,7.191 10.492,9.094 l 0.804,0.698 0.957,-0.469 C 3.938,24.275 4.495,24 4.494,24 15.8,18.442 26.27,16.588 35.269,16.585 c 15.727,-0.004 26.98,5.709 29.891,7.363 0.001,0 0.389,0.22 0.836,0.474 l 0.794,0.452 0.796,-0.453 c 0.37,-0.211 0.832,-0.473 0.832,-0.473 l 10e-4,0 c 2.915,-1.654 14.175,-7.364 29.903,-7.36 9,0.003 19.468,1.856 30.768,7.412 0,0 0.453,0.223 1.01,0.497 l 0.956,0.47 0.806,-0.698 c 2.197,-1.903 7.988,-6.923 10.49,-9.092 l 0.938,-0.813 -0.549,-1.113 c -0.259,-0.524 -0.579,-1.174 -0.581,-1.178 -1.1,-2.223 -3.464,-7.233 -5.54,-13.159 -2.079,-5.92 -3.852,-12.774 -3.844,-18.547 -0.011,-2.552 0.852,-7.072 1.98,-12.766 l 0.003,-0.021 0.002,-0.009 c 0.013,-0.075 0.035,-0.178 0.035,-0.178 l 0.003,-0.017 0.002,-0.01 c 1.764,-8.927 4.209,-21.232 4.212,-33.136 0,-11.269 -2.136,-20.526 -6.6,-27.776 -4.458,-7.253 -11.25,-12.396 -20.17,-15.437 -28.324,-9.671 -38.93,-18.737 -42.729,-24.256 0,-0.001 -10e-4,-0.002 -10e-4,-0.003 -0.008,-0.012 -0.011,-0.016 -0.014,-0.019 -0.005,-0.008 -0.008,-0.013 -0.012,-0.018 -0.006,-0.01 -0.014,-0.021 -0.024,-0.036 -0.02,-0.029 -0.048,-0.07 -0.084,-0.122 -0.071,-0.104 -0.175,-0.254 -0.302,-0.439 -0.254,-0.37 -0.604,-0.879 -0.989,-1.438 l -1.328,-1.931 -1.324,1.934 z"
             style="fill:#0c437c;fill-opacity:1;fill-rule:nonzero;stroke:none"
             id="path24614"
             inkscape:connector-curvature="0" /></g><g
           id="g24616"
           transform="translate(112.5445,290.9912)"><path
             d="m 0,0 c -8.969,-4.4 -32.986,-13.236 -62.186,-0.267 l -0.489,0.219 -4.185,-3.63 0.26,-0.572 c 3.173,-6.937 8.495,-20.255 8.495,-31.521 0,-3.483 -0.956,-8.32 -2.168,-14.448 -1.817,-9.191 -4.071,-20.625 -4.071,-31.69 0,-19.577 6.896,-31.051 21.695,-36.111 19.935,-6.815 34.202,-14.361 42.414,-22.424 l 0.588,-0.579 0.588,0.579 c 8.225,8.059 22.509,15.605 42.452,22.424 14.8,5.059 21.692,16.534 21.692,36.111 0,11.135 -2.261,22.556 -4.079,31.732 l -0.03,0.165 c -1.189,6.042 -2.127,10.807 -2.127,14.241 0,11.247 5.325,24.577 8.497,31.521 l 0.261,0.572 -4.19,3.63 -0.487,-0.217 C 33.739,-13.232 9.716,-4.399 0.742,0.001 L 0.373,0.182 0,0 z"
             style="fill:#0c437c;fill-opacity:1;fill-rule:nonzero;stroke:none"
             id="path24618"
             inkscape:connector-curvature="0" /></g><g
           id="g24620"
           transform="translate(112.1302,291.4058)"
           style="fill:#ea933b;fill-opacity:1"><path
             d="m 0,0 c -8.969,-4.4 -32.987,-13.237 -62.187,-0.267 l -0.488,0.218 -4.186,-3.629 0.261,-0.572 c 3.172,-6.937 8.496,-20.255 8.496,-31.521 0,-3.482 -0.957,-8.32 -2.17,-14.448 -1.816,-9.191 -4.705,-24.399 -4.031,-35.438 3.035,-0.196 20.263,22.544 54.002,1.503 19.641,79.241 73.721,84.105 73.721,84.105 L 62.93,-0.265 C 33.738,-13.232 9.715,-4.399 0.742,0.001 L 0.373,0.182 0,0 z"
             style="fill:#ea933b;fill-opacity:1;fill-rule:nonzero;stroke:none"
             id="path24622"
             inkscape:connector-curvature="0" /></g><g
           id="g24624"
           transform="translate(123.1215,225.0179)"><path
             d="M 0,0 4.485,0 C 4.504,-1.473 5.13,-1.589 6.424,-1.589 l 5.494,0 c 0.95,0 1.919,0.096 1.919,1.168 0,1.206 -0.525,1.283 -6.303,1.283 -6.746,0 -7.514,0.765 -7.514,4.171 0,2.508 0.243,4.44 5.898,4.44 l 6.263,0 c 5.17,0 5.655,-1.665 5.655,-4.095 l 0,-0.441 -4.484,0 c 0,1.015 -0.121,1.436 -2.181,1.436 l -4.969,0 c -1.011,0 -1.698,-0.325 -1.698,-1.072 0,-1.205 0.545,-1.244 5.353,-1.224 6.97,0.019 8.586,-0.383 8.586,-4.422 0,-3.731 -1.334,-4.344 -7.292,-4.344 l -5.435,0 C 1.635,-4.689 0,-3.961 0,-0.956 L 0,0 z"
             style="fill:#ffffff;fill-opacity:1;fill-rule:nonzero;stroke:none"
             id="path24626"
             inkscape:connector-curvature="0" /></g><g
           id="g24628"
           transform="translate(142.6366,234.3376)"><path
             d="m 0,0 3.879,0 0,-7.31 0.726,0 3.414,3.215 5.091,0 -5.172,-4.574 5.798,-5.186 -4.948,0 -4.142,3.904 -0.767,0 0,-3.904 -3.879,0 L 0,0 z"
             style="fill:#ffffff;fill-opacity:1;fill-rule:nonzero;stroke:none"
             id="path24630"
             inkscape:connector-curvature="0" /></g><g
           id="g24632"
           transform="translate(158.5555,219.4869)"><path
             d="m 0,0 0.323,0 c 1.535,0 2.525,0.288 2.525,1.416 l -1.374,0 -4.726,9.34 4.202,0 2.969,-6.794 2.969,6.794 4.201,0 L 5.313,-0.803 C 4.706,-1.989 3.535,-2.411 1.575,-2.411 0.848,-2.411 0.384,-2.354 0,-2.335 L 0,0 z"
             style="fill:#ffffff;fill-opacity:1;fill-rule:nonzero;stroke:none"
             id="path24634"
             inkscape:connector-curvature="0" /></g><g
           id="g24636"
           transform="translate(120.3546,207.8143)"><path
             d="m 0,0 8.038,0 c 0.971,0 1.617,0.21 1.617,1.014 0,0.938 -0.646,1.148 -1.617,1.148 L 0,2.162 0,0 z m 0,5.032 7.938,0 c 0.829,0 1.312,0.287 1.312,1.072 0,0.804 -0.483,1.091 -1.312,1.091 L 0,7.195 0,5.032 z m -4.485,5.492 12.908,0 c 3.576,0 5.313,-0.918 5.313,-3.636 0,-2.372 -0.91,-2.831 -2.162,-3.177 l 0,-0.057 c 1.959,-0.229 2.687,-1.225 2.687,-3.31 0,-3.043 -1.899,-3.675 -4.465,-3.675 l -14.281,0 0,13.855 z"
             style="fill:#ffffff;fill-opacity:1;fill-rule:nonzero;stroke:none"
             id="path24638"
             inkscape:connector-curvature="0" /></g><path
           d="m 135.849,218.338 3.879,0 0,-13.855 -3.879,0 0,13.855 z"
           style="fill:#ffffff;fill-opacity:1;fill-rule:nonzero;stroke:none"
           id="path24640"
           inkscape:connector-curvature="0" /><g
           id="g24642"
           transform="translate(154.8986,204.4834)"><path
             d="m 0,0 -3.879,0 0,1.569 -0.041,0 c -0.686,-1.359 -2.039,-1.722 -4.119,-1.722 -2.404,0 -5.758,0.096 -5.758,4.306 l 0,5.607 3.878,0 0,-5.607 c 0,-0.957 0.809,-1.436 2.505,-1.436 l 0.889,0 c 1.657,0 2.646,0.728 2.646,2.125 l 0,4.918 L 0,9.76 0,0 z"
             style="fill:#ffffff;fill-opacity:1;fill-rule:nonzero;stroke:none"
             id="path24644"
             inkscape:connector-curvature="0" /></g><g
           id="g24646"
           transform="translate(165.1,210.7226)"><path
             d="M 0,0 C 0,1.168 -0.565,1.379 -2.829,1.379 -5.353,1.379 -5.656,1.168 -5.656,0 L 0,0 z m -9.535,-0.823 c 0,3.693 1.94,4.497 4.768,4.497 l 2.707,0 c 4.121,0 5.817,-0.822 5.817,-4.21 l 0,-1.646 -9.413,0 0,-0.592 c 0,-1.034 0.767,-1.321 2.383,-1.321 l 1.192,0 c 2.101,0 2.202,0.535 2.202,1.11 l 3.636,0 0,-0.421 c 0,-2.45 -2.302,-2.986 -5.11,-2.986 l -2.909,0 c -2.566,0 -5.273,0.46 -5.273,4.631 l 0,0.938 z"
             style="fill:#ffffff;fill-opacity:1;fill-rule:nonzero;stroke:none"
             id="path24648"
             inkscape:connector-curvature="0" /></g><g
           id="g24650"
           transform="translate(150.6529,202.0976)"><path
             d="m 0,0 7.888,0 0,-1.718 -5.572,0 0,-1.333 5.31,0 0,-1.66 -5.31,0 0,-2.439 L 0,-7.15 0,0 z"
             style="fill:#ffffff;fill-opacity:1;fill-rule:nonzero;stroke:none"
             id="path24652"
             inkscape:connector-curvature="0" /></g><g
           id="g24654"
           transform="translate(159.2461,199.5896)"><path
             d="m 0,0 c 0,2.093 1.242,2.587 3.328,2.587 l 2.723,0 c 3.297,0 3.724,-0.671 3.703,-2.696 l -2.315,0 0,0.197 c 0,0.514 -0.397,0.662 -1.086,0.662 l -2.524,0 c -1.22,0 -1.45,-0.542 -1.45,-1.431 l 0,-0.772 c 0,-1.035 0.23,-1.431 1.325,-1.431 l 2.472,0 c 1.044,0 1.357,0.099 1.357,0.987 l 2.316,0 0,-0.671 c 0,-1.205 -0.459,-2.153 -2.787,-2.153 l -3.734,0 C 1.242,-4.721 0,-4.227 0,-2.133 L 0,0 z"
             style="fill:#ffffff;fill-opacity:1;fill-rule:nonzero;stroke:none"
             id="path24656"
             inkscape:connector-curvature="0" /></g><g
           id="g24658"
           transform="translate(47.6992,205.5789)"><path
             d="m 0,0 c 10.871,10.606 28.494,24.018 53.731,2.725 2.767,39.85 33.107,78.385 74.498,83.524 0.22,0.003 0.789,-1.211 0.687,-1.276 C 109.266,80.096 87.908,64.789 75.758,43.63 62.086,21.817 55.948,-6.605 75.227,-35.025 60.536,-17.431 41.017,-10.68 30.844,-9.697 11.763,-8.06 9.172,-20.219 8.278,-23.494 0.887,-17.141 0,0 0,0"
             style="fill:#ffffff;fill-opacity:1;fill-rule:nonzero;stroke:none"
             id="path24660"
             inkscape:connector-curvature="0" /></g><g
           id="g24662"
           transform="translate(112.1631,321.3889)"
           style="fill:#0c437c;fill-opacity:1"><path
             d="m 0,0 2.16,-6.647 6.989,0 -5.654,-4.108 2.159,-6.647 -5.654,4.108 -5.654,-4.108 2.159,6.647 -5.654,4.108 6.989,0 L 0,0 z"
             style="fill:#0c437c;fill-opacity:1;fill-rule:nonzero;stroke:none"
             id="path24664"
             inkscape:connector-curvature="0" /></g></g></g></g></svg>