<?xml version="1.0" encoding="UTF-8" standalone="no"?>
<!-- Created with Inkscape (http://www.inkscape.org/) -->

<svg
   xmlns:dc="http://purl.org/dc/elements/1.1/"
   xmlns:cc="http://creativecommons.org/ns#"
   xmlns:rdf="http://www.w3.org/1999/02/22-rdf-syntax-ns#"
   xmlns:svg="http://www.w3.org/2000/svg"
   xmlns="http://www.w3.org/2000/svg"
   xmlns:sodipodi="http://sodipodi.sourceforge.net/DTD/sodipodi-0.dtd"
   xmlns:inkscape="http://www.inkscape.org/namespaces/inkscape"
   id="svg2"
   version="1.1"
   inkscape:version="0.48.5 r10040"
   xml:space="preserve"
   width="24.532984"
   height="26.048286"
   viewBox="0 0 24.532984 26.048286"
   sodipodi:docname="D.C._United_logo_(2016).svg"><metadata
     id="metadata8"><rdf:RDF><cc:Work
         rdf:about=""><dc:format>image/svg+xml</dc:format><dc:type
           rdf:resource="http://purl.org/dc/dcmitype/StillImage" /><dc:title /></cc:Work></rdf:RDF></metadata><defs
     id="defs6"><clipPath
       clipPathUnits="userSpaceOnUse"
       id="clipPath16"><path
         d="M 0,0 792,0 792,612 0,612 0,0 Z"
         id="path18"
         inkscape:connector-curvature="0" /></clipPath><clipPath
       clipPathUnits="userSpaceOnUse"
       id="clipPath26"><path
         d="M 0,612 792,612 792,0 0,0 0,612 Z"
         id="path28"
         inkscape:connector-curvature="0" /></clipPath><clipPath
       clipPathUnits="userSpaceOnUse"
       id="clipPath48"><path
         d="M 0,612 792,612 792,0 0,0 0,612 Z"
         id="path50"
         inkscape:connector-curvature="0" /></clipPath><clipPath
       clipPathUnits="userSpaceOnUse"
       id="clipPath138"><path
         d="m 432,450 72,0 0,108 -72,0 0,-108 z"
         id="path140"
         inkscape:connector-curvature="0" /></clipPath><clipPath
       clipPathUnits="userSpaceOnUse"
       id="clipPath152"><path
         d="m 54.003,232.947 287.995,0 0,305.783 -287.995,0 0,-305.783 z"
         id="path154"
         inkscape:connector-curvature="0" /></clipPath></defs><sodipodi:namedview
     pagecolor="#ffffff"
     bordercolor="#666666"
     borderopacity="1"
     objecttolerance="10"
     gridtolerance="10"
     guidetolerance="10"
     inkscape:pageopacity="0"
     inkscape:pageshadow="2"
     inkscape:window-width="1600"
     inkscape:window-height="838"
     id="namedview4"
     showgrid="false"
     fit-margin-top="0"
     fit-margin-left="0"
     fit-margin-right="0"
     fit-margin-bottom="0"
     inkscape:zoom="90.509668"
     inkscape:cx="2.7547816"
     inkscape:cy="21.973143"
     inkscape:window-x="-8"
     inkscape:window-y="-8"
     inkscape:window-maximized="1"
     inkscape:current-layer="g160" /><g
     id="g10"
     inkscape:groupmode="layer"
     inkscape:label="DCU 2016 Media Guide"
     transform="matrix(1.25,0,0,-1.25,-67.50375,317.23204)"><g
       id="g42"
       transform="matrix(0.06814849,0,0,0.06814849,50.322777,217.07202)"><g
         id="g44"><g
           id="g46"
           clip-path="url(#clipPath48)" /></g></g><g
       id="g148"
       transform="matrix(0.06814849,0,0,0.06814849,50.322777,217.07202)"><g
         id="g150"
         clip-path="url(#clipPath152)"><g
           id="g160"
           transform="translate(250.5023,523.3287)"><path
             style="fill:#ffffff;stroke:none"
             d="m -52.107299,-287.01004 c 43.9928542,25.02328 70.417423,61.14232 88.195765,102.72213 18.229041,10.35291 35.997676,21.4951 35.278306,64.33101 10.939323,13.70414 11.738085,30.48447 8.845636,52.48767 8.399036,16.32322 10.11199,33.545278 3.296214,54.017988 -3.993949,-16.92543 -14.695486,-19.286024 -26.668212,-25.573074 l 2.075186,42.5414793 c -70.378353,12.5059607 -143.715815,13.7672907 -221.008176,0 l 0.77819,-42.6711863 c -12.20838,5.77664 -27.22456,8.552831 -27.42304,26.33937 -5.19948,-17.639149 -8.2619,-32.435253 2.78011,-50.074403 -4.24497,-25.73053 -0.93991,-45.169354 11.41357,-57.067844 -5.14137,-35.73022 9.42086,-53.47279 33.20311,-63.03403 10.38386,-41.84686 41.625499,-75.67614 89.233341,-104.01911 z"
             id="path3033"
             inkscape:connector-curvature="0"
             sodipodi:nodetypes="cccccccccccccc" /><g
             id="g3859"><g
               transform="translate(-0.38939625,-189.1226)"
               id="g156"><path
                 inkscape:connector-curvature="0"
                 id="path158"
                 style="fill:#ef3e42;fill-opacity:1;fill-rule:nonzero;stroke:none"
                 d="m 0,0 c 11.807,3.806 25.86,8.625 25.86,8.625 l -156.113,0.006 c 0,0 14.431,-5.075 26.327,-8.677 10.222,-3.097 22.546,-7.499 26.331,-15.955 l 50.944,0 C -22.508,-7.545 -10.162,-3.275 0,0 m -82.736,-44.41 c -2.907,-5.367 -6.599,-9.843 -8.277,-12.255 l 78.266,0 c -1.678,2.412 -5.233,6.989 -8.443,12.255 -2.389,3.919 -4.503,7.751 -5.888,12.248 l -50.192,0 c -1.257,-4.154 -3.265,-8.183 -5.466,-12.248 m 69.93,74.249 -8.592,0 6.952,-5.05 -2.655,-8.173 6.951,5.051 6.953,-5.051 -2.657,8.173 6.952,5.05 -8.593,0 -2.655,8.169 -2.656,-8.169 z m -42.354,0 -8.593,0 6.952,-5.05 -2.656,-8.173 6.952,5.051 6.949,-5.051 -2.653,8.173 6.948,5.05 -8.589,0 -2.655,8.169 -2.655,-8.169 z m -40.265,8.169 2.656,-8.169 8.592,0 -6.953,-5.05 2.656,-8.173 -6.951,5.051 -6.952,-5.051 2.656,8.173 -6.952,5.05 8.593,0 2.655,8.169 z" /></g><path
               inkscape:connector-curvature="0"
               id="path162"
               style="fill:#231f20;fill-opacity:1;fill-rule:nonzero;stroke:none"
               d="m 0,0 c 0,0 -7.203,0.517 -10.107,0.692 -4.013,0.241 -9.616,0.562 -9.616,0.562 l -2.126,-4.287 7.702,-0.439 0.003,-38.523 c 0,0 7.224,-0.498 7.075,-0.493 L -7.072,-3.894 0.038,-4.387 0,0 Z m 19.235,-40.071 -8.716,1.016 0.018,15.512 4.657,-0.483 2.573,4.931 -7.241,0.759 0,12.903 7.589,-0.812 0.034,4.486 c 0,0 -4.873,0.503 -7.038,0.743 -1.777,0.197 -7.663,0.757 -7.663,0.757 l 0,-43.009 c 0,0 5.418,-0.541 7.453,-0.757 2.276,-0.241 8.373,-0.895 8.373,-0.895 l -0.039,4.849 z m -43.779,41.583 -7.093,0.239 0,-42.879 7.093,-0.405 0,43.045 z m -14.604,0.435 -7.15,0.073 -0.022,-15.818 -7.154,15.882 -6.636,-0.027 0,-42.908 7.085,-10e-4 0,29.653 6.907,-13.646 0,-15.986 6.97,-0.135 0,42.913 m -27.798,-0.027 -7.237,-0.185 0,-36.172 c 0,-2.548 -1.464,-2.998 -2.919,-3.02 -1.794,-0.027 -2.799,0.767 -2.799,2.724 l 0,36.28 -7.141,-0.333 0,-35.586 c 0,-3.716 1.513,-4.824 2.231,-5.464 1.36,-1.211 4.425,-2.034 7.625,-1.905 3.78,0.152 5.901,0.949 7.738,2.319 1.708,1.273 2.502,3.291 2.502,5.605 l 0,35.737 m -41.011,-1.761 c -1.257,-0.087 -5.248,-0.338 -7.683,-2.838 -2.249,-2.309 -2.115,-5.306 -2.097,-6.363 l 0,-27.308 c 0.043,-2.458 0.956,-4.445 2.607,-5.74 0.774,-0.608 2.484,-1.951 7.104,-1.524 3.915,0.361 6.067,1.599 7.255,2.649 2.101,1.858 2.191,4.202 2.174,5.258 l -0.008,10.119 -7.021,-2.964 0.006,-7.26 c 0,-2.21 -0.792,-3.201 -2.481,-3.406 -1.107,-0.133 -2.608,0.027 -2.608,2.784 l 0,29.549 c 0,1.675 0.863,2.661 2.321,2.82 1.487,0.164 2.689,-0.487 2.689,-2.449 l 0.007,-8.474 7.027,2.992 -0.015,4.165 c 0,2.197 -0.213,3.93 -1.002,5.141 -1.578,2.417 -5.334,3.052 -8.275,2.849 m 14.559,-42.563 c 0.682,0.053 1.252,0.358 1.711,0.917 0.458,0.558 0.659,1.192 0.606,1.903 -0.055,0.71 -0.351,1.306 -0.889,1.784 -0.536,0.479 -1.146,0.691 -1.827,0.638 -0.683,-0.056 -1.252,-0.362 -1.71,-0.92 -0.458,-0.558 -0.661,-1.195 -0.607,-1.903 0.053,-0.709 0.35,-1.303 0.887,-1.782 0.538,-0.482 1.148,-0.693 1.829,-0.637 m -30.187,-2.565 c 0.682,0.054 1.253,0.358 1.711,0.918 0.458,0.557 0.66,1.192 0.607,1.903 -0.055,0.71 -0.352,1.305 -0.889,1.784 -0.537,0.479 -1.146,0.691 -1.829,0.637 -0.681,-0.056 -1.249,-0.362 -1.709,-0.92 -0.458,-0.558 -0.66,-1.194 -0.607,-1.902 0.054,-0.709 0.351,-1.304 0.888,-1.782 0.537,-0.483 1.149,-0.694 1.828,-0.638 m 159.688,4.078 c 0,-0.832 -0.142,-1.239 -0.413,-1.447 -0.435,-0.332 -1.078,-0.271 -1.788,-0.164 l -3.298,0.471 0,34.436 3.561,-0.502 c 1.062,-0.147 1.373,-0.411 1.643,-1.006 0.189,-0.417 0.293,-1.058 0.295,-2.342 l 0,-29.446 z m 7.131,25.963 c 0,1.015 0.128,4.489 -0.384,6.032 -0.642,1.934 -1.534,2.692 -2.834,3.48 -1.254,0.759 -3.472,1.156 -6.537,1.655 -3.025,0.476 -10.02,1.32 -10.02,1.32 l 0,-43.067 c 0,0 4.42,-0.566 5.876,-0.807 1.445,-0.242 6.848,-0.984 7.972,-0.997 2.382,-0.027 2.993,0.477 3.698,0.921 1.431,0.902 2.252,2.632 2.252,5.112 l -0.023,26.351 z m -179.42,-26.605 c -0.427,-0.397 -1.132,-0.555 -1.663,-0.626 l -3.43,-0.454 -0.025,34.684 3.639,0.491 c 0.815,0.109 1.276,-0.048 1.61,-0.404 0.352,-0.376 0.394,-1.111 0.397,-2.394 l 0.023,-29.495 c 0,-0.643 -0.026,-1.315 -0.551,-1.802 m 7.671,29.664 c 0,1.26 -0.115,4.104 -0.95,5.572 -0.797,1.4 -1.837,2.253 -2.913,2.687 -1.08,0.437 -2.711,0.631 -5.893,0.186 -3.021,-0.369 -10.182,-1.537 -10.182,-1.537 l 0.036,-42.667 c 0,0 4.316,0.554 5.857,0.772 1.634,0.232 6.698,0.846 7.839,1.084 2.37,0.493 3.271,1.364 3.975,2.004 1.431,1.302 2.255,3.262 2.255,5.742 l -0.024,26.157 z m 75.782,-266 c 11.68,6.183 30.124,23.423 39.651,32.106 l -78.367,-0.004 c 9.237,-10.463 28.096,-26.485 38.716,-32.102 m -25.251,72.745 c 1.066,-1.854 1.433,-4.32 1.632,-6.968 0.269,-3.566 -0.848,-7.974 -1.29,-9.193 l 50.185,0 c -0.442,1.219 -1.56,5.627 -1.291,9.193 0.199,2.648 0.612,5.114 1.679,6.968 l -50.915,0 z m 54.026,-6.505 c -0.92,-10.263 12.693,-25.231 16.129,-28.656 7.744,8.074 14.885,17.624 20.227,25.944 4.839,7.538 10.871,18.869 14.133,27.161 -9.604,-3.694 -18.138,-6.371 -26.284,-8.952 -10.057,-3.188 -23.475,-7.361 -24.205,-15.497 m -81.194,15.327 c -7.844,2.447 -16.68,5.366 -26.285,9.06 3.263,-8.292 9.294,-19.622 14.134,-27.16 5.342,-8.321 12.584,-17.976 20.329,-26.051 3.873,4.001 16.027,18.458 16.027,28.762 0,7.938 -14.134,12.247 -24.205,15.389 m 98.905,31.953 6.952,5.05 -8.593,0 -2.655,8.169 -2.656,-8.169 -8.592,0 6.952,-5.05 -2.655,-8.172 6.951,5.049 6.953,-5.049 -2.657,8.172 z m -34.708,32.257 c -0.702,0.642 -4.113,5.052 -4.257,10.589 -0.242,9.369 6.198,14.983 14.614,14.983 6.221,0 8.09,-3.666 8.09,-3.666 0.64,0.77 1.727,3.49 1.332,5.817 -0.672,3.964 -4.007,5.612 -9.288,5.617 -5.508,0.005 -8.934,-1.533 -8.934,-1.533 l -0.68,-0.258 c 0,0 1.011,4.92 -2.596,7.794 -2.775,2.214 -7.56,1.49 -11.721,0.783 -5.207,-0.858 -13.218,-0.864 -17.385,1.219 0,0 2.226,-3.309 1.744,-7.458 -0.363,-3.136 -2.706,-5.354 -3.975,-6.262 2.184,-1.618 6.33,-4.475 6.33,-12.697 0,-6.718 -4.486,-13.118 -6.412,-14.666 3.918,0.722 8.253,0.955 11.058,-0.065 6.6,-2.401 7.73,-7.121 8.582,-9.42 l 0.614,0.254 c -0.586,3.113 -0.771,8.656 2.435,10.381 2.536,1.363 7.273,-0.168 10.324,-1.794 0,0 0.003,0.452 0.125,0.382 m -7.65,-32.257 6.951,5.05 -8.592,0 -2.655,8.169 -2.655,-8.169 -8.593,0 6.952,-5.05 -2.656,-8.172 6.952,5.049 6.951,-5.049 -2.655,8.172 z m -42.921,0 6.952,5.05 -8.591,0 -2.656,8.169 -2.655,-8.169 -8.593,0 6.952,-5.05 -2.656,-8.172 6.952,5.049 6.951,-5.049 -2.656,8.172 z m 164.223,92.56 c 2.811,-10.272 1.478,-20.489 -0.334,-26.67 -5.621,-19.174 -21.713,-26.277 -34.018,-33.203 -5.875,-3.308 -10.444,-6.216 -13.741,-9.101 -11.466,-10.039 -9.372,-17.216 -9.372,-17.216 4.135,8.246 16.549,13.64 27.402,19.12 14.806,7.478 19.551,14.286 19.551,14.286 2.169,-12.875 -1.786,-24.855 -6.957,-33.209 -11.11,-17.948 -29.078,-22.459 -29.61,-22.73 l -156.254,0 c -0.532,0.271 -18.487,4.782 -29.596,22.73 -5.172,8.354 -9.126,20.334 -6.958,33.209 0,0 4.746,-6.808 19.552,-14.286 10.852,-5.48 23.266,-10.874 27.402,-19.12 0,0 2.094,7.177 -9.373,17.216 -3.296,2.885 -7.865,5.793 -13.74,9.101 -12.306,6.926 -28.398,14.029 -34.019,33.203 -1.812,6.181 -3.144,16.398 -0.334,26.67 0,0 2.628,-8.875 21.828,-18.431 13.924,-6.93 23.423,-13.496 27.601,-23.018 0,0 3.224,11.771 -9.513,21.336 -3.643,2.736 -6.646,4.583 -14.739,9.051 -5.366,2.963 -17.527,9.078 -26.161,21.702 -5.425,7.932 -8.976,17.424 -7.243,27.517 0,0 1.747,-3.803 8.329,-7.869 7.971,-4.923 16.649,-7.424 28.872,-10.733 11.552,-3.127 31.327,-7.014 43.007,-13.525 5.279,-2.942 8.642,-7.147 8.714,-11.864 0.19,-12.466 -11.031,-24.323 -11.031,-40.537 0,-10.186 5.266,-16.886 16.638,-16.886 5.362,0 9.529,1.923 12.605,4.723 3.808,3.467 5.847,8.279 5.847,12.449 0,10.345 -7.373,12.631 -9.056,13.473 3.969,1.624 6.702,4.226 7.089,8.176 0.308,3.132 -0.317,5.355 -0.912,6.63 -1.082,2.322 -2.3,3.795 -2.3,3.795 0,0 3.513,-1.253 8.336,-1.753 12.226,-1.269 16.503,0.678 22.621,0.678 5.886,0 11.358,-2.85 11.111,-8.663 0,0 2.857,0.883 6.907,0.883 8.918,0 12.138,-5.376 12.138,-10.218 0,-7.226 -4.771,-10.7 -6.01,-11.068 -0.722,3.249 -4.599,4.928 -7.607,4.928 -4.311,0 -9.548,-2.796 -9.548,-9.791 0,-4.66 2.569,-8.194 4.198,-9.606 2.467,-2.138 7.46,-4.767 17.579,-4.767 13.591,0 21.435,6.831 21.435,17.017 0,16.214 -11.307,27.98 -11.03,40.537 0.103,4.716 3.348,8.832 8.757,11.863 11.666,6.54 31.408,10.398 42.963,13.526 12.223,3.309 20.901,5.81 28.872,10.733 6.582,4.066 8.329,7.869 8.329,7.869 1.733,-10.093 -1.818,-19.585 -7.243,-27.517 -8.633,-12.624 -20.795,-18.739 -26.16,-21.702 -8.094,-4.468 -11.097,-6.315 -14.74,-9.051 -12.737,-9.565 -9.513,-21.336 -9.513,-21.336 4.178,9.522 13.678,16.088 27.601,23.018 19.2,9.556 21.828,18.431 21.828,18.431 m 11.002,50.744 c -1.894,-4.808 -6.057,-9.327 -10.198,-12.919 -4.955,-4.299 -13.509,-8.209 -18.659,-9.054 l 0,45.039 c -6.529,1.361 -44.584,9.4 -107.414,9.4 -62.824,0 -100.745,-8.039 -107.275,-9.4 l 0,-45.039 c -5.15,0.845 -13.704,4.755 -18.659,9.054 -4.141,3.592 -8.304,8.111 -10.197,12.919 -2.545,-6 -3.531,-13.58 -3.332,-20.035 0.352,-11.486 4.192,-17.999 9.488,-25.693 0,0 -3.816,-8.18 -2.966,-24.227 0.722,-13.593 8.581,-24.646 12.19,-29.673 -4.107,-24.002 6.972,-40.284 13.793,-48.116 8.336,-9.571 19.613,-14.596 19.613,-14.596 3.586,-9.431 12.83,-30.23 25.339,-46.426 15.162,-19.634 37.11,-42.666 61.845,-55.531 24.74,12.865 47.144,35.897 62.307,55.531 12.508,16.196 21.752,36.995 25.339,46.426 0,0 11.276,5.025 19.612,14.596 6.821,7.832 17.9,24.114 13.793,48.116 3.609,5.027 11.469,16.08 12.19,29.673 0.85,16.047 -2.966,24.227 -2.966,24.227 5.296,7.694 9.136,14.207 9.489,25.693 0.198,6.455 -0.788,14.035 -3.332,20.035 m 7.772,-20.986 c -0.287,-11.013 -4.52,-19.584 -9.078,-25.45 0,0 2.617,-8.564 2.598,-19.441 -0.04,-20.281 -9.528,-31.032 -11.93,-34.681 2.038,-13.437 -0.521,-26.341 -5.652,-36.437 -6.352,-12.5 -15.001,-21.114 -28.606,-27.978 0,0 -10.295,-25.678 -23.738,-44.106 -28.775,-39.448 -61.969,-58.36 -67.755,-60.258 -6.29,2 -38.484,20.645 -67.38,60.258 -13.442,18.428 -23.738,44.106 -23.738,44.106 -13.605,6.864 -22.254,15.478 -28.606,27.978 -5.131,10.096 -7.69,23 -5.651,36.437 -2.402,3.649 -11.89,14.4 -11.93,34.681 -0.019,10.877 2.598,19.441 2.598,19.441 -4.558,5.866 -8.792,14.437 -9.079,25.45 -0.174,6.768 0.467,16.831 6.113,27.679 0.708,1.36 1.658,2.707 2.292,3.602 0,0 1.307,-5.237 3.919,-9.869 1.617,-2.867 3.373,-5.451 7.247,-9.002 4.777,-4.379 9.851,-6.66 12.963,-7.638 l -0.042,42.311 c 19.406,4.277 58.617,10.349 111.348,10.349 52.735,0 91.579,-6.072 111.615,-10.349 l -0.042,-42.311 c 3.112,0.978 8.187,3.259 12.963,7.638 3.874,3.551 5.631,6.135 7.247,9.002 2.612,4.632 3.919,9.869 3.919,9.869 0.634,-0.895 1.584,-2.242 2.292,-3.602 5.646,-10.848 6.287,-20.911 6.113,-27.679 M -5,-125.865 c 1.306,1.609 2.31,4.544 2.333,7.608 0.038,5.253 -1.902,12.176 -5.588,20.729 -2.271,5.271 -6.049,13.737 -5.505,21.601 0.375,5.415 4.459,10.431 10.438,13.674 10.001,5.424 23.728,8.597 23.728,8.597 -21.644,2.167 -46.987,3.849 -73.164,3.849 -26.387,0 -51.349,-1.645 -73.014,-3.849 0,0 13.548,-3.173 23.727,-8.597 6.004,-3.198 10.064,-8.259 10.439,-13.674 0.543,-7.864 -3.234,-16.33 -5.505,-21.601 -3.686,-8.553 -5.626,-15.476 -5.588,-20.729 0.023,-3.064 0.962,-5.992 2.176,-7.671 1.618,-2.238 4.078,-4.506 9.572,-4.506 9.205,0 12.704,8.209 12.704,13.105 0,4.848 -2.536,7.161 -4.308,8.696 -2.458,2.128 -5.885,3.63 -7.737,4.212 0,0 10.599,3.401 10.599,9.576 0,5.061 -3.079,10.854 -7.049,15.065 l 0.26,0.271 c 1.088,-0.611 5.024,-2.092 8.39,-2.706 3.629,-0.661 9.04,-1.23 14.959,-1.23 8.145,0 11.855,0.966 17.882,0.966 6.28,0 11.846,-2.97 13.209,-8.66 0,0 3.399,0.478 6.66,0.148 7.467,-0.752 12.568,-6.007 12.7,-12.839 0.261,-13.47 -11.259,-17.812 -13.465,-18.134 0,0 0.454,1.044 0.209,2.72 -0.235,1.613 -1.717,3.774 -4.175,3.774 -3.495,0 -5.244,-2.878 -5.128,-5.739 0.253,-6.259 7.291,-8.937 14.353,-9.325 1.07,-0.059 1.83,-0.086 2.836,-0.059 6.56,0.174 10.676,1.8 13.052,4.728 m -35.3,25.201 c -0.8,0.536 -1.744,0.992 -2.884,1.338 -1.36,0.411 -3.093,0.739 -6.944,0.602 -2.367,-0.085 -5.454,0 -5.454,0 0,0 2.648,-3.591 3.849,-4.491 1.925,-1.443 5.095,-0.144 7.7,0.963 1.254,0.594 3.733,1.588 3.733,1.588 m 59.576,-140.6 1.168,-4.619 1.136,0 1.17,4.619 0,-4.619 1.099,0 0,5.877 -1.785,0 -1.045,-4.009 -1.063,4.009 -1.774,0 0,-5.877 1.094,0 0,4.619 z m -3.578,-4.619 -1.179,0 0,4.875 -1.748,0 0,1.002 4.668,0 0,-1.002 -1.741,0 0,-4.875 z" /></g></g></g></g></g></svg>