<?xml version="1.0" encoding="UTF-8" standalone="no"?>
<svg
   xmlns:dc="http://purl.org/dc/elements/1.1/"
   xmlns:cc="http://creativecommons.org/ns#"
   xmlns:rdf="http://www.w3.org/1999/02/22-rdf-syntax-ns#"
   xmlns:svg="http://www.w3.org/2000/svg"
   xmlns="http://www.w3.org/2000/svg"
   xmlns:sodipodi="http://sodipodi.sourceforge.net/DTD/sodipodi-0.dtd"
   xmlns:inkscape="http://www.inkscape.org/namespaces/inkscape"
   version="1.0"
   width="1016.000000pt"
   height="1016.000000pt"
   viewBox="0 0 1016.000000 1016.000000"
   preserveAspectRatio="xMidYMid meet"
   id="svg20"
   sodipodi:docname="UWS.svg"
   inkscape:version="0.92.1 r15371">
  <metadata
     id="metadata26">
    <rdf:RDF>
      <cc:Work
         rdf:about="">
        <dc:format>image/svg+xml</dc:format>
        <dc:type
           rdf:resource="http://purl.org/dc/dcmitype/StillImage" />
      </cc:Work>
    </rdf:RDF>
  </metadata>
  <defs
     id="defs24" />
  <sodipodi:namedview
     pagecolor="#ffffff"
     bordercolor="#666666"
     borderopacity="1"
     objecttolerance="10"
     gridtolerance="10"
     guidetolerance="10"
     inkscape:pageopacity="0"
     inkscape:pageshadow="2"
     inkscape:window-width="1080"
     inkscape:window-height="1866"
     id="namedview22"
     showgrid="false"
     inkscape:zoom="0.1742126"
     inkscape:cx="-195.16383"
     inkscape:cy="1595.7514"
     inkscape:window-x="0"
     inkscape:window-y="25"
     inkscape:window-maximized="1"
     inkscape:current-layer="g18" />
  <g
     transform="translate(0.000000,1016.000000) scale(0.100000,-0.100000)"
     stroke="none"
     id="g18">
    <circle
       style="fill:#ffffff;"
       id="path5682"
       cx="5038.75"
       cy="-4998.75"
       transform="scale(1,-1)"
       r="4878.9062" />
    <path
       d="M157 7873 c-3 -1719 -6 -2188 -17 -2263 -18 -132 -18 -928 0 -1060 11 -75 14 -544 17 -2262 l3 -2168 4880 0 4880 0 2 1918 c0 1054 2 1922 3 1927 1 6 5 17 8 25 8 19 54 283 73 417 43 314 43 1032 0 1346 -19 134 -65 398 -73 417 -3 8 -7 20 -8 25 -1 6 -3 873 -3 1928 l-2 1917 -4880 0 -4880 0 -3 -2167z m5358 1892 c782 -74 1519 -335 2175 -771 1080 -718 1817 -1857 2030 -3137 45 -274 60 -466 60 -777 0 -167 -6 -338 -15 -435 -212 -2257 -1993 -4038 -4250 -4250 -211 -20 -659 -20 -870 0 -781 74 -1520 335 -2175 771 -1179 783 -1942 2062 -2075 3479 -20 211 -20 659 0 870 87 921 443 1799 1019 2515 567 705 1336 1237 2196 1520 306 101 693 182 1015 214 198 19 690 20 890 1z"
       id="path2"
       style="fill:none;fill-opacity:1" />
    <path
       d="M4740 9594 c-795 -68 -1529 -321 -2162 -744 -1049 -703 -1750 -1781 -1957 -3012 -52 -306 -56 -359 -56 -758 0 -399 4 -452 56 -758 221 -1315 1004 -2451 2167 -3144 532 -317 1130 -515 1812 -600 144 -18 816 -18 960 0 682 85 1280 283 1812 600 1163 693 1946 1829 2167 3144 52 306 56 359 56 758 0 399 -4 452 -56 758 -92 550 -281 1069 -558 1535 -684 1150 -1825 1941 -3118 2163 -299 51 -353 55 -723 59 -195 1 -375 1 -400 -1z m454 -541 c45 -123 84 -223 88 -223 3 0 30 43 60 95 52 94 54 96 87 93 34 -3 34 -4 70 -105 20 -57 40 -102 45 -100 5 2 61 92 124 200 l114 197 50 0 c36 0 49 -4 46 -13 -2 -7 -73 -133 -158 -280 l-155 -267 -34 2 c-32 3 -34 5 -71 103 -21 54 -42 100 -46 102 -5 1 -32 -39 -61 -90 -45 -82 -54 -92 -82 -95 -24 -3 -33 2 -41 20 -20 49 -210 576 -210 584 0 3 21 4 47 2 l47 -3 80 -222z m-1268 -37 c211 -98 228 -395 29 -511 -23 -14 -94 -43 -158 -64 l-116 -38 -93 271 c-51 148 -94 272 -95 275 -2 3 50 25 115 48 146 52 236 57 318 19z m2605 -18 c206 -122 206 -394 -1 -516 -40 -24 -55 -27 -135 -27 -105 0 -142 14 -206 79 -61 60 -83 115 -83 206 0 124 57 214 168 267 44 21 62 24 132 20 65 -3 90 -8 125 -29z m-3386 -263 c11 -19 17 -36 15 -38 -3 -2 -60 -36 -127 -76 -68 -40 -123 -74 -123 -77 0 -8 62 -114 70 -119 4 -3 60 27 124 66 64 39 118 70 120 68 18 -25 46 -68 46 -72 0 -3 -52 -36 -116 -73 -63 -37 -117 -70 -119 -73 -2 -3 15 -37 37 -74 38 -65 41 -68 61 -54 51 33 229 137 236 137 8 0 41 -54 41 -68 0 -10 -314 -202 -328 -202 -4 0 -62 94 -130 208 -67 114 -134 226 -147 249 l-25 42 142 84 c180 106 181 106 194 107 6 0 19 -16 29 -35z m4046 -39 c22 -20 29 -42 44 -123 26 -149 40 -208 51 -207 5 1 75 14 156 30 143 27 149 27 183 11 20 -10 35 -21 33 -25 -5 -11 -309 -466 -318 -476 -5 -4 -24 4 -44 19 l-35 27 120 179 c65 98 114 179 107 179 -7 0 -71 -12 -141 -26 -74 -15 -132 -23 -137 -18 -5 5 -21 69 -36 142 -15 72 -30 132 -33 132 -5 0 -165 -236 -232 -342 -9 -14 -80 34 -74 50 11 29 311 472 320 472 6 0 22 -11 36 -24z m-1665 -365 c541 -72 1063 -285 1510 -616 709 -525 1178 -1321 1296 -2199 31 -231 31 -641 0 -872 -75 -555 -284 -1070 -617 -1520 -525 -709 -1321 -1178 -2199 -1296 -231 -31 -641 -31 -872 0 -555 75 -1070 284 -1521 618 -708 524 -1177 1320 -1295 2198 -31 231 -31 641 0 872 104 772 482 1489 1055 2001 549 489 1189 767 1924 833 157 14 546 4 719 -19z m-3042 -25 l26 -34 -72 -65 -71 -65 50 -54 c28 -29 103 -111 167 -183 l117 -130 -33 -27 c-18 -16 -35 -28 -38 -27 -5 0 -229 246 -296 326 l-32 36 -71 -63 -72 -64 -32 32 -31 32 74 67 c41 38 120 109 175 160 55 51 103 92 106 93 4 0 18 -15 33 -34z m5606 -323 c58 -60 119 -123 135 -141 l29 -32 -34 -31 -34 -31 -99 106 c-54 58 -104 106 -111 106 -14 0 -96 -82 -96 -95 0 -6 41 -53 90 -105 49 -52 90 -98 90 -101 0 -3 -14 -18 -31 -35 l-30 -29 -95 102 -96 103 -59 -52 c-33 -28 -58 -55 -57 -59 2 -3 47 -53 101 -109 53 -57 97 -106 97 -109 0 -4 -13 -20 -29 -35 l-29 -28 -134 137 c-73 76 -133 142 -133 147 0 10 405 398 415 398 3 0 53 -48 110 -107z m-6041 -452 c117 -94 218 -174 223 -179 11 -11 -28 -72 -45 -72 -7 0 -306 231 -437 338 l-25 20 29 31 c17 17 32 31 35 31 3 0 102 -76 220 -169z m6487 -84 c15 -30 14 -36 -11 -102 -45 -121 -145 -408 -145 -416 0 -4 27 9 60 29 226 141 279 172 286 172 9 0 44 -56 44 -70 0 -4 -26 -23 -57 -42 -61 -37 -210 -129 -350 -216 l-82 -52 -22 32 -23 31 47 131 c25 72 64 182 87 245 22 63 38 116 36 119 -3 2 -82 -43 -175 -101 l-170 -105 -25 38 -25 38 242 151 c133 83 248 151 255 151 7 0 19 -15 28 -33z m-6907 -209 c53 -28 114 -61 136 -73 162 -90 208 -115 214 -115 3 0 17 -9 30 -19 l24 -19 -19 -33 c-22 -36 18 -26 -372 -94 -128 -23 -160 -31 -150 -41 7 -6 87 -51 178 -100 91 -48 167 -89 169 -90 6 -5 -40 -74 -50 -74 -6 0 -90 43 -187 96 -97 53 -206 112 -242 131 -36 20 -68 38 -73 40 -12 7 26 64 48 73 11 4 115 24 230 44 116 21 226 40 245 45 l35 7 -65 36 c-36 19 -117 63 -180 98 -63 34 -117 64 -119 66 -4 4 39 74 46 74 4 0 49 -23 102 -52z m7303 -535 c25 -23 22 -48 -8 -72 -35 -27 -48 -26 -103 6 l-45 26 41 18 c22 9 44 22 47 28 10 16 47 13 68 -6z m-7604 -304 c98 -28 178 -57 201 -73 93 -65 125 -211 67 -310 -35 -59 -93 -102 -160 -117 -48 -10 -62 -8 -186 25 -184 49 -255 72 -255 82 0 5 4 24 9 42 10 41 1 42 225 -23 l163 -47 44 17 c103 39 130 161 54 240 -24 25 -52 39 -109 55 -134 36 -273 78 -278 83 -2 3 1 24 8 46 10 35 15 40 33 34 12 -3 94 -28 184 -54z m7700 -123 c15 -8 40 -28 57 -45 25 -27 30 -41 33 -99 3 -57 0 -72 -20 -101 -24 -37 -66 -65 -109 -76 -23 -6 -27 -3 -33 22 -4 15 -9 36 -12 46 -4 12 0 17 14 17 37 0 72 38 72 78 0 74 -75 108 -127 56 -23 -23 -25 -31 -19 -75 10 -70 -7 -120 -53 -162 -110 -99 -281 -24 -280 123 0 69 64 149 132 164 28 7 31 4 51 -61 6 -19 4 -23 -14 -23 -29 0 -80 -53 -80 -83 0 -13 11 -36 25 -51 34 -37 76 -35 109 5 23 27 25 36 20 87 -4 47 -1 65 18 102 40 77 144 114 216 76z m-7798 -1059 l45 -92 103 -14 104 -14 -75 -76 -75 -76 15 -93 c9 -51 14 -95 11 -98 -3 -2 -44 16 -92 41 l-86 46 -85 -46 c-46 -25 -88 -45 -93 -45 -5 0 0 44 10 97 l19 97 -77 77 -76 76 104 14 103 14 45 92 c25 51 47 93 50 93 3 0 25 -42 50 -93z m7800 0 l45 -92 103 -14 104 -14 -76 -76 -77 -77 19 -97 c10 -53 15 -97 10 -97 -5 0 -47 20 -93 45 l-85 46 -86 -46 c-48 -25 -89 -43 -92 -41 -3 3 2 47 11 98 l15 93 -75 76 -75 76 104 14 103 14 45 92 c25 51 47 93 50 93 3 0 25 -42 50 -93z m-7413 -1471 c15 -3 48 -8 73 -11 25 -3 58 -9 74 -12 l28 -5 -73 -74 -73 -74 16 -97 c9 -54 16 -99 14 -100 -1 -1 -42 18 -91 44 l-88 46 -95 -47 c-89 -44 -94 -46 -89 -24 3 13 11 58 18 101 l12 79 -72 72 c-82 83 -84 78 34 92 33 3 69 10 80 14 12 5 38 44 65 99 l44 92 48 -95 c40 -79 52 -95 75 -100z m7170 0 c15 -3 48 -8 73 -11 25 -3 58 -9 74 -12 l28 -5 -72 -73 -73 -73 12 -79 c7 -43 15 -88 18 -101 5 -22 0 -20 -89 24 l-95 47 -88 -46 c-49 -26 -90 -45 -91 -44 -2 1 5 46 14 100 l16 97 -73 74 c-82 83 -84 78 34 92 33 3 69 10 80 14 12 5 38 44 65 99 l44 92 48 -95 c40 -79 52 -95 75 -100z m-6348 -1245 c56 -7 101 -14 101 -16 0 -1 -34 -36 -75 -76 l-74 -74 13 -65 c8 -36 17 -82 20 -102 l7 -37 -94 49 -93 49 -88 -45 c-48 -25 -90 -44 -92 -41 -2 2 3 48 13 101 l17 96 -74 70 c-41 38 -72 71 -69 74 2 3 46 10 97 17 50 6 96 17 102 24 6 7 29 50 51 96 l41 84 48 -96 48 -96 101 -12z m5521 118 c22 -45 44 -87 50 -94 6 -7 52 -18 102 -24 51 -7 95 -14 97 -17 3 -3 -28 -36 -69 -74 l-74 -70 17 -96 c10 -53 15 -99 13 -101 -2 -3 -44 16 -92 41 l-88 45 -93 -49 -94 -49 7 37 c3 20 12 66 20 102 l13 65 -74 74 c-41 40 -75 75 -75 76 0 2 45 9 101 16 l101 12 46 94 c26 51 48 93 49 93 2 0 21 -37 43 -81z m-889 -670 c40 -14 85 -53 105 -91 18 -35 17 -136 -1 -168 -8 -14 -14 -30 -15 -36 0 -5 45 -36 100 -68 55 -32 97 -62 94 -67 -3 -5 -22 -18 -43 -29 l-39 -19 -101 60 c-99 58 -102 59 -130 44 -17 -8 -32 -19 -35 -23 -3 -5 17 -47 43 -93 l49 -84 -22 -17 c-21 -18 -55 -33 -60 -26 -1 1 -56 98 -121 213 -65 116 -129 228 -141 249 l-23 40 67 39 c146 86 198 101 273 76z m-3827 -13 c39 -16 69 -55 86 -113 11 -36 11 -49 -4 -85 -27 -71 -28 -72 -69 -48 -21 12 -37 24 -37 26 0 3 7 19 16 36 21 41 3 85 -43 104 -29 12 -37 12 -62 0 -32 -17 -41 -34 -41 -76 0 -21 10 -36 39 -60 56 -44 81 -88 81 -144 0 -138 -148 -216 -265 -140 -37 24 -73 103 -68 150 3 30 25 87 39 103 3 3 74 -38 74 -44 0 -1 -6 -18 -14 -36 -35 -84 55 -148 122 -86 38 35 30 78 -22 120 -52 43 -76 90 -76 149 0 54 35 115 81 139 41 22 117 24 163 5z m3224 -273 c6 -21 8 -40 4 -44 -4 -3 -65 -25 -137 -49 -71 -24 -132 -44 -134 -46 -3 -3 27 -100 40 -125 7 -14 24 -10 135 28 70 24 131 40 134 36 4 -5 12 -23 18 -41 11 -33 11 -33 -31 -51 -23 -10 -69 -26 -102 -36 -33 -9 -74 -23 -92 -30 l-31 -13 24 -68 c14 -37 27 -71 29 -75 3 -4 68 15 145 42 l141 49 8 -23 c15 -39 22 -67 19 -67 -2 0 -84 -27 -182 -61 -98 -33 -182 -57 -187 -52 -6 6 -146 407 -179 515 -8 26 -6 27 63 52 40 14 115 41 167 60 125 45 134 45 148 -1z m-2512 -43 c59 -26 128 -99 148 -157 20 -59 21 -158 1 -213 -23 -65 -77 -125 -143 -157 -48 -23 -69 -28 -132 -27 -114 0 -198 52 -255 156 -56 102 -35 250 48 336 83 87 221 112 333 62z m1769 -173 c88 -45 89 -47 55 -87 -25 -30 -31 -33 -47 -22 -77 54 -151 65 -220 31 -147 -71 -157 -264 -19 -353 77 -50 198 -29 260 44 28 33 43 32 79 -7 16 -19 15 -21 -18 -60 -54 -63 -123 -93 -214 -93 -172 0 -290 118 -291 288 0 60 5 84 27 129 70 143 247 203 388 130z m-901 -1 c57 -17 114 -55 143 -94 l21 -29 -35 -28 -35 -28 -24 30 c-34 44 -116 76 -177 70 -99 -9 -177 -95 -177 -195 0 -178 205 -270 336 -150 22 19 22 19 50 -18 l28 -37 -34 -28 c-75 -63 -225 -78 -316 -31 -55 28 -119 102 -138 159 -79 232 126 449 358 379z"
       id="path4"
       style="fill:#002356;fill-opacity:1" />
    <path
       d="M3682 8926 c-35 -13 -65 -26 -68 -29 -5 -5 114 -358 125 -370 11 -11 149 39 188 69 62 47 91 155 62 231 -14 38 -67 92 -106 109 -48 21 -129 16 -201 -10z"
       id="path6"
       style="fill:#002356;fill-opacity:1" />
    <path
       d="M6286 8910 c-63 -40 -101 -118 -94 -192 10 -98 99 -178 199 -178 63 0 96 14 142 58 83 81 82 209 -3 286 -51 46 -77 56 -144 56 -41 0 -62 -7 -100 -30z"
       id="path8"
       style="fill:#002356;fill-opacity:1" />
    <path
       d="M5020 8227 c-3 -2 -66 -7 -140 -10 -243 -11 -563 -74 -815 -160 -340 -116 -660 -291 -946 -518 -134 -106 -392 -364 -498 -498 -347 -438 -569 -947 -650 -1491 -29 -197 -34 -264 -34 -470 0 -206 5 -273 34 -470 81 -544 303 -1053 650 -1491 106 -134 364 -392 498 -498 491 -389 1088 -625 1706 -677 116 -9 394 -9 510 0 618 52 1215 288 1706 677 134 106 392 364 498 498 347 438 569 947 650 1491 29 197 34 264 34 470 0 206 -5 273 -34 470 -81 544 -303 1053 -650 1491 -106 134 -364 392 -498 498 -433 343 -936 564 -1471 646 -85 13 -186 26 -225 29 -135 10 -320 18 -325 13z m618 -1855 c7 -21 21 -47 32 -57 20 -18 35 -18 153 1 38 6 39 6 27 -16 -30 -55 10 -62 145 -25 161 45 242 32 322 -50 40 -41 56 -67 69 -111 34 -118 -1 -235 -83 -275 -36 -17 -48 -19 -76 -10 -39 13 -81 54 -96 94 -6 16 -11 73 -11 127 0 139 4 136 -203 144 -223 9 -227 8 -306 -19 l-71 -24 -6 25 c-15 59 15 195 53 236 21 23 36 11 51 -40z m-2538 14 c782 -134 1268 -450 1430 -932 46 -134 61 -233 67 -426 3 -98 9 -178 12 -177 3 0 31 32 61 71 78 101 231 260 301 312 74 56 153 93 225 108 47 9 65 8 109 -6 163 -51 236 -300 221 -751 -3 -104 -8 -201 -10 -215 -2 -14 -7 -58 -11 -97 l-6 -73 54 0 c75 0 139 -25 194 -74 l47 -43 34 40 c67 80 190 275 244 387 76 157 112 310 73 310 -49 0 -186 -109 -237 -189 -30 -49 -38 -97 -14 -88 29 11 86 19 86 12 0 -16 -70 -121 -97 -146 -38 -35 -59 -46 -114 -54 -58 -9 -115 13 -129 50 -15 41 -12 97 11 171 39 130 179 368 277 475 l47 50 50 -23 c66 -30 184 -30 308 0 49 12 93 20 98 16 14 -9 10 -168 -6 -250 -37 -176 -124 -373 -255 -572 -172 -262 -364 -464 -497 -524 -106 -48 -246 -18 -322 68 -58 66 -66 110 -64 319 4 285 -21 416 -89 482 -91 88 -238 45 -467 -136 -59 -47 -234 -214 -396 -376 -356 -358 -386 -380 -531 -380 -87 0 -95 2 -136 30 -28 21 -53 50 -73 89 -27 53 -29 68 -29 150 0 56 7 116 19 156 22 81 103 254 177 380 215 367 308 637 308 893 0 136 -17 210 -71 325 -35 72 -57 101 -138 182 -110 111 -210 177 -370 244 -182 76 -466 149 -698 178 -51 7 -93 15 -93 19 0 3 24 16 53 27 65 26 139 23 347 -12z m4520 -127 c33 -17 60 -32 60 -34 0 -2 -33 -8 -72 -15 -274 -44 -627 -172 -818 -297 -261 -171 -380 -369 -380 -631 l0 -79 -42 -16 c-155 -57 -279 -48 -346 25 l-23 26 61 118 c169 327 329 491 632 649 202 105 457 194 726 255 70 16 131 29 135 29 4 1 35 -13 67 -30z m-1452 -541 c-8 -13 -44 -68 -79 -123 -35 -55 -70 -104 -78 -109 -35 -22 -107 -95 -146 -151 -53 -74 -119 -207 -170 -340 -21 -55 -42 -103 -45 -108 -4 -4 -3 23 2 60 25 210 93 422 179 559 82 129 221 230 323 233 27 1 28 0 14 -21z"
       id="path10"
       style="fill:#db082e;fill-opacity:1" />
    <path
       d="M5472 4099 c-60 -30 -87 -72 -87 -136 0 -144 185 -213 300 -112 142 125 -37 335 -213 248z"
       id="path12"
       style="fill:#db082e;fill-opacity:1" />
    <path
       d="M6918 1837 c-32 -18 -58 -35 -58 -38 0 -4 21 -43 46 -88 l45 -81 50 27 c75 40 99 68 99 115 0 30 -7 46 -29 69 -39 38 -79 37 -153 -4z"
       id="path14"
       style="fill:#002356;fill-opacity:1" />
    <path
       d="M3765 1546 c-53 -20 -111 -83 -125 -137 -49 -182 158 -328 309 -219 66 48 101 136 82 208 -32 118 -157 187 -266 148z"
       id="path16"
       style="fill:#002356;fill-opacity:1" />
  </g>
</svg>
