<?xml version="1.0" encoding="UTF-8" standalone="no"?>
<!-- Created with Inkscape (http://www.inkscape.org/) -->

<svg
   xmlns:dc="http://purl.org/dc/elements/1.1/"
   xmlns:cc="http://creativecommons.org/ns#"
   xmlns:rdf="http://www.w3.org/1999/02/22-rdf-syntax-ns#"
   xmlns:svg="http://www.w3.org/2000/svg"
   xmlns="http://www.w3.org/2000/svg"
   xmlns:sodipodi="http://sodipodi.sourceforge.net/DTD/sodipodi-0.dtd"
   xmlns:inkscape="http://www.inkscape.org/namespaces/inkscape"
   width="205"
   height="174"
   id="svg3505"
   version="1.1"
   inkscape:version="0.48.4 r9939"
   sodipodi:docname="New document 3">
  <defs
     id="defs3507" />
  <sodipodi:namedview
     id="base"
     pagecolor="#ffffff"
     bordercolor="#666666"
     borderopacity="1.0"
     inkscape:pageopacity="0"
     inkscape:pageshadow="2"
     inkscape:zoom="1"
     inkscape:cx="226.4667"
     inkscape:cy="40.105192"
     inkscape:document-units="px"
     inkscape:current-layer="layer1"
     showgrid="false"
     fit-margin-top="0"
     fit-margin-left="0"
     fit-margin-right="0"
     fit-margin-bottom="0"
     inkscape:window-width="1024"
     inkscape:window-height="714"
     inkscape:window-x="-4"
     inkscape:window-y="-4"
     inkscape:window-maximized="1" />
  <metadata
     id="metadata3510">
    <rdf:RDF>
      <cc:Work
         rdf:about="">
        <dc:format>image/svg+xml</dc:format>
        <dc:type
           rdf:resource="http://purl.org/dc/dcmitype/StillImage" />
        <dc:title></dc:title>
      </cc:Work>
    </rdf:RDF>
  </metadata>
  <g
     inkscape:label="Layer 1"
     inkscape:groupmode="layer"
     id="layer1"
     transform="translate(-652.58112,-444.04141)">
    <g
       id="g3426"
       transform="matrix(0.39752134,0,0,-0.39752134,597.65292,652.7733)">
      <path
         d="m 596.0723,315.1392 -55.944,174.914 c -6.2,15.826 -22.413,26.881 -39.442,26.881 l -210.515,-0.213 c -16.76,-0.014 -33.333,-11.363 -39.398,-26.967 l -55.6,-175.045 c -6.684,-17.182 0.447,-38.106 16.238,-47.633 l 161.305,-113.824 c 6.524,-3.942 14.699,-6.119 23.021,-6.119 8.342,0 16.549,2.191 23.09,6.16 l 161.096,114.179 c 15.786,9.557 22.872,30.495 16.149,47.667"
         style="fill:#ffffff;fill-opacity:1;fill-rule:nonzero;stroke:none"
         id="path22"
         inkscape:connector-curvature="0" />
      <path
         d="m 309.3765,238.7773 c 1.885,12.285 13.373,20.717 25.661,18.832 12.284,-1.887 20.714,-13.373 18.831,-25.658 -1.72,-11.221 -11.452,-19.221 -22.484,-19.09 l 21.571,-13.617 c 0.373,3.58 3.54,7.445 4.023,8.492 0.511,1.117 2.224,1.707 2.224,1.707 0,0 2.513,2.518 3.983,5.119 1.466,2.604 8.269,17.537 10.527,25.291 2.266,7.756 0.105,7.137 2.734,12.803 2.451,5.307 10.168,15.826 9.874,18.994 -0.295,3.174 -2.008,7.984 -4.777,9.617 -1.354,0.799 -3.448,3.149 -5.88,6.465 -2.467,-0.125 -6.339,-1.105 -6.804,2.229 -0.634,4.548 -10.521,21.457 -10.521,21.457 0,0 -12.794,-6.698 -15.309,-10.575 -1.178,-1.818 -2.33,-1.013 -5.45,-0.466 -0.826,0.144 -1.512,0.33 -2.109,0.531 -1.646,-1.043 -3.041,-1.916 -4.02,-2.506 -3.834,-2.312 -9.416,-3.305 -14.117,-7.553 -4.703,-4.248 -14.334,-9.724 -16.755,-10.574 -2.427,-0.853 -5.96,0.529 -8.332,0.512 -2.373,-0.018 -8.507,2.836 -10.267,6.314 -1.759,3.483 -6.242,7.149 -12.603,15.004 -6.576,8.124 -8.018,8.036 -8.832,8.696 -0.817,0.66 -5.752,1.875 -6.687,1.258 -0.938,-0.623 -1.683,-0.508 -1.904,0.06 -0.216,0.569 -7.678,5.762 -17.624,4.69 -7.113,-0.766 -8.892,2.345 -8.87,4.955 0.028,3.043 8.423,10.555 13.965,10.314 5.544,-0.236 12.833,-0.97 14.406,-0.894 2.155,0.105 5.923,1.857 6.15,2.051 0.232,0.193 1.515,1.66 1.908,1.771 0.389,0.111 1.003,-0.01 1.062,-0.363 0.06,-0.354 0.199,-0.864 0.434,-0.899 0.232,-0.035 1.105,-0.111 1.393,0.2 0.285,0.314 0.448,1 0.886,1.167 0.441,0.168 2.728,-0.359 2.887,-0.855 0.159,-0.5 0.213,-0.922 0.635,-1.281 0.415,-0.362 1.636,-1.008 2.162,-4.332 0.603,-3.836 -1.255,-7.108 -1.054,-7.317 0.204,-0.209 1.961,-0.715 5.943,-2.154 3.978,-1.439 7.794,-2.93 11.513,-4.785 4.222,-2.104 7.704,-10.712 7.704,-10.712 0,0 5.235,4.821 8.472,7.399 2.421,1.932 6.912,7.346 9.022,9.953 -0.019,0.022 -0.046,0.053 -0.059,0.069 -0.692,0.863 -1.042,1.801 1.007,3.504 1.445,1.203 6.866,6.765 10.898,10.904 2.105,2.377 4.47,4.949 7.051,7.613 2.723,3.338 6.027,7.619 7.201,8.76 1.462,1.424 4.464,3.15 5.27,3.604 0.061,0.062 0.115,0.123 0.173,0.187 -0.115,0.223 -0.478,0.99 -0.47,1.818 0.019,2.502 3.045,4.399 6.686,7.629 0.588,0.522 1.123,1.073 1.61,1.635 0.774,1.748 1.241,3.174 2.177,4.705 2.755,4.504 1.574,12.42 -0.275,19.065 -1.844,6.648 -2.059,12.89 -2.059,12.89 -0.136,0.022 -0.319,0.041 -0.527,0.063 -1.262,-0.625 -2.689,-1.11 -4.056,-1.074 -3.732,0.093 -4.585,-0.961 -7.069,-1.582 -2.484,-0.62 -2.57,-0.096 -2.822,0.457 -0.079,0.175 -0.108,0.609 -0.11,1.115 -2.353,-0.711 -4.806,-1.787 -6.994,-3.424 -7.192,-5.377 -11.741,-5.885 -14.787,-6.676 -3.045,-0.793 -7.651,-2.439 -12.343,-3.494 -4.692,-1.059 -16.555,-2.906 -22.359,-4.883 -5.809,-1.974 -6.564,-3.519 -6.564,-3.519 -3.88,-3.248 -5.939,-1.727 -7.933,-3.143 -1.992,-1.412 -2.878,-1.562 -2.878,-1.562 -0.443,-1.768 -1.455,-2.014 -1.455,-2.014 0.698,-0.68 0.497,-1.623 0.497,-1.623 0.214,-1.582 -2.309,-0.852 -2.309,-0.852 l -0.093,-0.615 c 0.062,-1.445 -1.17,-1.254 -1.17,-1.254 -0.222,0.033 -0.823,0.24 -1.297,0.887 -0.474,0.646 -1.097,0.684 -2.123,1.475 -1.028,0.785 -1.002,2.445 -1.002,2.445 l -0.785,2.353 c -0.782,2.36 -1.049,3.256 -0.07,4.772 0.978,1.512 2.114,3.687 2.114,3.687 2.307,5.323 3.253,2.883 5.973,3.438 2.723,0.562 5.346,0.099 8.867,0.994 3.52,0.895 10.051,3.848 18.41,7.15 8.358,3.303 23.009,9.483 23.009,9.483 7.523,3.832 9.656,1.269 13.742,4.369 4.087,3.1 10.514,6.871 14.506,8.609 3.992,1.739 6.098,6.86 12.691,8.717 3.346,0.942 5.546,1.658 6.903,2.137 1.447,1.006 3.385,1.973 5.366,2.611 2.879,0.93 4.851,1.612 6.736,2.778 1.882,1.167 4.237,1.607 4.669,1.835 0.43,0.227 2.927,2.079 2.927,2.079 1.346,0.332 2.423,-0.243 2.971,-0.635 0.973,1.412 1.647,3.265 1.647,3.265 -0.929,3.639 -0.022,10.666 -0.022,10.666 0,0 -0.564,-0.539 -1.334,0.663 -1.035,1.623 -0.624,3.019 -0.624,3.019 0.093,3.598 -1.06,2.238 0.032,6.188 1.071,3.869 2.434,1.289 2.434,1.289 l 0.202,0.943 c 0.016,0.064 0.036,0.141 0.054,0.209 0.037,0.613 0.116,1.303 0.258,2.1 0.46,2.552 1.2,6.507 3.457,9.416 -2.122,0.898 -4.577,-0.502 -5.082,-4.444 -0.665,-5.205 -6.596,-6.349 -9.612,-7.033 -3.023,-0.695 -5.154,-4.75 -5.154,-4.75 0,0 0.887,5.147 5.103,6.049 6.58,1.406 4.89,6.467 4.89,6.467 -6.027,-5.278 -11.493,-6.094 -14.267,-5.754 -6.604,0.797 -8.972,4.793 -8.972,4.793 4.158,-3.451 10.243,-0.752 10.243,-0.752 -8.562,-0.365 -12.05,6.724 -12.602,7.982 -0.062,0.133 -0.088,0.209 -0.088,0.209 0,0 0.036,-0.086 0.088,-0.209 0.43,-0.9 2.592,-4.422 10.147,-4.207 3.836,0.108 6.055,1.61 7.679,3.623 -0.148,-0.027 -0.239,-0.035 -0.239,-0.035 -4.315,-0.642 -7.75,6.533 -7.75,6.533 0,0 1.256,-2.117 5.319,-4.349 4.059,-2.231 5.097,2.312 7.104,5.129 0.24,0.339 0.524,0.646 0.833,0.927 0.385,0.432 0.809,0.832 1.272,1.2 l -93.061,-0.094 c -6.828,-0.008 -14.435,-5.219 -16.909,-11.574 l -58.878,-171.727 c -2.488,-6.362 0.273,-14.448 6.121,-17.977 l 96.327,-60.809 c -1.954,3.987 -2.757,8.586 -2.032,13.307"
         style="fill:#d21e25;fill-opacity:1;fill-rule:nonzero;stroke:none"
         id="path26"
         inkscape:connector-curvature="0" />
      <path
         d="m 579.9746,274.7031 -165.5,-105.09 c -5.14,-3.101 -11.659,-4.826 -18.375,-4.826 -6.684,0 -13.186,1.705 -18.308,4.793 l -165.704,104.736 c -12.067,7.266 -17.494,23.221 -12.393,36.335 l 57.259,167.543 c 4.668,12.015 17.935,21.097 30.845,21.111 l 215.997,0.229 c 13.123,0 26.106,-8.862 30.889,-21.067 l 57.594,-167.39 c 5.143,-13.112 -0.271,-29.081 -12.304,-36.374 m 19.21,40.334 -56.774,177.327 c -6.292,16.029 -22.716,27.234 -39.974,27.234 l -213.291,-0.221 c -16.992,-0.013 -33.787,-11.507 -39.925,-27.322 l -56.438,-177.447 c -6.781,-17.413 0.44,-38.608 16.448,-48.268 l 163.551,-115.434 c 6.614,-3.988 14.889,-6.191 23.318,-6.191 8.455,0 16.767,2.22 23.403,6.236 l 163.325,115.793 c 16.002,9.682 23.182,30.896 16.357,48.293"
         style="fill:#adb0ad;fill-opacity:1;fill-rule:nonzero;stroke:none"
         id="path30"
         inkscape:connector-curvature="0" />
      <path
         d="m 543.1904,221.877 -0.18,-0.855 -2.418,0 -1.341,-6.319 -0.987,0 1.342,6.319 -2.416,0 0.18,0.855 5.82,0 z"
         style="fill:#1d2d53;fill-opacity:1;fill-rule:nonzero;stroke:none"
         id="path34"
         inkscape:connector-curvature="0" />
      <path
         d="m 544.0557,221.877 1.391,0 0.771,-6.064 3.335,6.064 1.377,0 -1.523,-7.174 -0.923,0 0.899,4.235 c 0.029,0.146 0.084,0.388 0.163,0.726 0.079,0.34 0.16,0.701 0.241,1.09 l -3.329,-6.051 -0.963,0 -0.775,6.051 -0.049,-0.221 c -0.036,-0.176 -0.088,-0.443 -0.156,-0.802 -0.068,-0.36 -0.121,-0.625 -0.156,-0.793 l -0.899,-4.235 -0.927,0 1.523,7.174 z"
         style="fill:#1d2d53;fill-opacity:1;fill-rule:nonzero;stroke:none"
         id="path38"
         inkscape:connector-curvature="0" />
      <path
         d="m 552.9346,323.7803 -27.928,0 2.038,8.097 2.534,0 5.619,22.695 -2.478,0 2.038,8.098 15.643,0 -2.038,-8.098 -2.533,0 -5.674,-22.695 5.452,0 1.875,6.777 9.419,0 -3.967,-14.874 z m -31.122,2.534 c -2.642,-2.534 -6.002,-2.534 -8.537,-2.534 l -17.076,0 2.92,11.788 10.026,0 -0.938,-3.691 6.059,0 1.984,7.822 -7.547,0 c -3.031,0.055 -7.383,0.055 -7.383,5.179 0,1.101 0.221,2.147 0.442,3.194 l 1.542,6.225 c 0.552,1.873 1.104,3.745 2.644,5.398 2.645,2.865 5.895,2.919 8.427,2.975 l 16.969,0 -2.866,-11.458 -9.365,0 0.828,3.36 -6.06,0 -1.819,-7.271 7.108,0 c 3.633,-0.055 7.822,-0.166 7.822,-5.123 0,-1.486 -0.331,-2.864 -0.883,-5.178 l -1.487,-5.728 c -0.496,-1.874 -1.707,-3.912 -2.81,-4.958 m -48.707,-2.534 1.598,23.906 -10.467,-23.906 -13.056,0 2.534,30.792 -2.534,0 2.04,8.098 15.588,0 -2.038,-8.098 -3.306,0 -2.919,-22.86 13.385,30.958 9.255,0 -2.204,-30.958 8.484,22.86 -3.581,0 2.038,8.098 15.588,0 -2.037,-8.098 -2.533,0 -12.615,-30.792 -13.22,0 z m -24.361,30.792 -2.423,0 -7.671,-30.792 -9.957,0 -5.343,22.695 -5.398,-22.695 -11.844,0 2.038,8.097 2.48,0 5.619,22.695 -2.48,0 2.038,8.098 12.395,0 5.121,-23.742 5.62,23.742 11.843,0 -2.038,-8.098 z m 133.562,-49.92 -59.231,171.588 c -2.494,6.352 -10.113,11.547 -16.937,11.54 l -114.696,-0.088 c 1.727,-1.565 2.604,-3.832 2.686,-6.291 0.014,-0.473 0.093,-0.946 0.194,-1.416 2.278,1.025 4.56,1.847 7.128,1.33 2.488,-0.502 9.771,-2.864 13.884,-9.241 0,0 3.835,-3.447 -0.982,-13.714 -0.434,-0.924 -0.903,-1.713 -1.397,-2.397 -0.08,-0.248 -0.128,-0.398 -0.128,-0.398 0,0 1.734,0.543 1.994,-0.733 0.258,-1.271 -1.342,-4.267 -2.533,-5.689 -1.196,-1.42 -1.845,-3.043 -2.59,-3.787 -0.745,-0.748 -1.808,-0.584 -1.808,-0.584 -0.075,-0.848 -1.011,-1.735 -2.52,-4.828 -0.568,-1.168 -1.021,-2.038 -1.371,-2.68 0.762,0.498 1.5,0.914 1.847,0.914 0.317,0 0.748,-0.328 1.17,-0.742 5.622,2.021 11.843,1.84 15.064,2.267 3.37,0.45 7.747,0.633 14.607,4.994 6.85,4.362 6.371,4.643 15.52,6.821 9.147,2.178 14.977,5.24 16.692,6.127 1.713,0.886 2.487,3.224 3.404,6.207 0.919,2.984 0.583,2.371 1.25,5.226 0.664,2.854 1.164,3.754 2.051,3.506 0.795,-0.222 0.178,-4.269 -0.193,-5.674 -0.428,-1.605 -0.369,-4.435 -0.369,-4.435 0,0 0.617,-0.248 1.551,1.471 0.961,1.773 1.327,2.865 2.019,4.126 0.696,1.266 0.763,1.159 1.533,2.627 0.771,1.467 1.504,5.227 2.889,4.737 1.283,-0.455 0.324,-3.256 -0.389,-5.178 -0.711,-1.922 -3.248,-7.205 -3.061,-7.139 0.572,0.198 1.323,2.026 2.536,3.399 1.209,1.377 1.585,2.758 2.737,5.277 1.15,2.516 3.143,2.195 2.964,0.791 -0.134,-1.021 -1.882,-6.008 -2.955,-7.514 -1.075,-1.505 -2.359,-4.201 -2.343,-4.24 0.089,-0.226 0.517,-0.222 1.817,1.448 1.842,2.367 2.246,1.96 3.065,3.273 0.814,1.316 2.299,3.006 3.051,2.73 1.521,-0.556 -0.21,-3.621 -1.835,-5.712 -1.626,-2.092 -4.243,-4.518 -4.937,-7.756 -0.695,-3.243 3.14,-1.871 5.715,-1.498 2.571,0.373 3.998,-0.373 4.13,-1.442 0.106,-0.853 -1.993,-2.867 -5.566,-2.597 -3.57,0.273 -5.884,-0.881 -9.9,-1.418 -4.012,-0.538 -6.038,2.867 -11.994,-1.014 -5.951,-3.883 -10.812,-6.627 -16.233,-10.807 -3.345,-2.58 -3.387,-1.791 -8.972,-4.013 -2.24,-0.891 -5.841,-1.985 -9.617,-3.245 0.247,-0.74 0.532,-1.462 0.341,-1.605 -0.689,-0.518 -1.667,-0.432 -4.543,-0.789 -1.817,-0.227 -4.208,-0.957 -5.721,-1.463 -1.784,-0.885 -3.264,-1.811 -4.208,-2.773 -3.04,-3.108 -5.403,-3.774 -6.447,-9.286 -0.295,-2.593 0.161,-5.806 0.161,-5.806 5.052,-17.283 -2.363,-17.369 -3.943,-21.715 -1.581,-4.344 -0.805,-8.051 -5.307,-14.787 -5.738,-8.586 -7.964,-17.043 -8.922,-23.057 -0.351,-2.836 -0.455,-6.338 0.38,-9.603 0.616,-2.41 -0.941,-1.444 -0.922,-2.916 0.079,-0.416 0.166,-0.844 0.263,-1.284 0.483,-1.544 2.209,-6.988 3.485,-9.947 0.025,-0.043 0.048,-0.092 0.072,-0.133 0.304,-0.515 0.669,-1.177 1.076,-1.941 2.841,-4.094 9.904,-18.852 9.282,-19.342 -0.112,-0.088 -0.315,-0.235 -0.581,-0.422 0.764,-3.41 1.787,-8.508 1.659,-10.551 -0.172,-2.793 -0.006,-7.328 2.41,-13.848 2.414,-6.517 -1.518,-12.66 -3.777,-15.134 -2.257,-2.471 -1.197,-2.803 -4.993,-11.957 -3.795,-9.153 -11.766,-20.481 -15.009,-26.047 -3.06,-5.246 -10.464,-15.131 -7.458,-18.629 0.47,0.226 0.92,0.465 1.152,0.433 0.405,-0.056 0.933,-0.367 1.241,-1.384 0.189,-0.621 0.836,-1.397 1.316,-1.911 1.385,-1.328 2.306,-2.613 7.598,-5.929 7.947,-4.975 12.788,-8.149 9.604,-11.789 -2.024,-2.317 -12.941,-0.93 -15.086,0.213 -2.119,1.127 -9.555,6.722 -17.743,6.785 -0.918,0.008 -1.797,0.051 -2.644,0.117 l 21.153,-13.352 c 5.849,-3.525 15.411,-3.513 21.242,0.024 l 169.841,107.723 c 5.844,3.537 8.578,11.63 6.087,17.976"
         style="fill:#1d2d53;fill-opacity:1;fill-rule:nonzero;stroke:none"
         id="path42"
         inkscape:connector-curvature="0" />
      <path
         d="m 160.8159,92.4629 3.772,0 6.325,25.297 2.437,0 0.767,3.137 -6.005,0 -5.575,-23.321 -0.299,1.852 c -0.558,3.459 -1.435,6.914 -2.283,10.256 l -0.381,1.484 c -0.966,3.639 -1.209,4.555 -2.352,9.729 l -6.927,0 -0.767,-3.137 2.44,0 -5.519,-22.162 -2.44,0 -0.801,-3.135 6.001,0 5.672,23.789 0.366,-1.953 c 0.582,-3.107 0.848,-4.527 1.895,-8.432 0.254,-0.994 0.52,-1.97 0.785,-2.943 0.21,-0.772 0.42,-1.541 0.621,-2.309 l 0.247,-0.955 c 0.945,-3.652 1.138,-4.4 2.021,-7.197"
         style="fill:#1d2d53;fill-opacity:1;fill-rule:nonzero;stroke:none"
         id="path46"
         inkscape:connector-curvature="0" />
      <path
         d="m 176.1191,103.0703 4.201,0 0.6,10.535 -4.801,-10.535 z m 7.769,-7.436 1.833,0 -0.8,-3.132 -5.235,0 0.434,7.502 -5.368,0 -3.401,-7.502 -5.134,0 0.8,3.132 1.834,0 9.768,20.405 5.902,0 -0.633,-20.405 z"
         style="fill:#1d2d53;fill-opacity:1;fill-rule:nonzero;stroke:none"
         id="path50"
         inkscape:connector-curvature="0" />
      <path
         d="m 200.9087,112.9063 -3.334,0 -4.301,-17.271 1.933,0 -0.766,-3.133 -7.669,0 0.801,3.133 2,0 4.301,17.271 -3.367,0 -0.868,-3.469 -3.5,0 1.667,6.602 17.337,0 -1.633,-6.602 -3.468,0 0.867,3.469 z"
         style="fill:#1d2d53;fill-opacity:1;fill-rule:nonzero;stroke:none"
         id="path54"
         inkscape:connector-curvature="0" />
      <path
         d="m 211.731,112.9063 -4.301,-17.271 1.968,0 -0.768,-3.133 -7.668,0 0.767,3.133 2.001,0 4.3,17.271 -1.967,0 0.767,3.133 7.669,0 -0.768,-3.133 -2,0 z"
         style="fill:#1d2d53;fill-opacity:1;fill-rule:nonzero;stroke:none"
         id="path58"
         inkscape:connector-curvature="0" />
      <path
         d="m 215.5283,99.0703 c -0.333,-1.367 -0.434,-1.834 -0.434,-2.301 0,-1 0.801,-1.101 2.001,-1.135 l 2.567,0 c 2.301,0 2.601,0.967 3.234,3.436 l 2.568,10.268 c 0.133,0.466 0.466,1.767 0.466,2.334 0,1.334 -1.1,1.367 -2.367,1.4 l -1.767,0 c -2.601,0 -2.768,-0.533 -3.701,-3.768 l -2.567,-10.234 z m 9.835,17.07 c 1.634,-0.068 4.501,-0.134 4.501,-3.201 0,-0.701 -0.2,-1.767 -0.366,-2.467 l -2.901,-11.636 c -0.633,-2.534 -1.033,-4.067 -2.867,-5.368 -1.467,-1.066 -2.734,-1.066 -4.268,-1.066 l -3.634,0 c -1.567,0.033 -4.634,0.066 -4.634,3.232 0,0.735 0.066,1 0.6,3.602 l 2.467,9.836 c 0.767,2.9 0.967,3.701 1.767,4.768 1.667,2.334 4.201,2.3 5.368,2.3 l 3.967,0 z"
         style="fill:#1d2d53;fill-opacity:1;fill-rule:nonzero;stroke:none"
         id="path62"
         inkscape:connector-curvature="0" />
      <path
         d="m 249.5967,112.9063 -5.101,-20.404 -3.501,0 c -0.833,2.633 -0.933,3.066 -1.9,6.8 -0.367,1.401 -0.767,2.801 -1.134,4.235 -0.866,3.234 -1.067,4.334 -1.567,7.002 l -4.3,-18.037 -5.468,0 0.8,3.133 1.967,0 4.301,17.271 -1.967,0 0.766,3.133 6.068,0 c 1.001,-4.533 1.167,-5.133 2.035,-8.401 0.766,-3.035 1.566,-6.068 2.066,-9.17 l 4.201,17.571 5.468,0 -0.767,-3.133 -1.967,0 z"
         style="fill:#1d2d53;fill-opacity:1;fill-rule:nonzero;stroke:none"
         id="path66"
         inkscape:connector-curvature="0" />
      <path
         d="m 256.043,103.0703 4.201,0 0.6,10.535 -4.801,-10.535 z m 7.769,-7.436 1.833,0 -0.8,-3.132 -5.235,0 0.434,7.502 -5.368,0 -3.401,-7.502 -5.134,0 0.8,3.132 1.834,0 9.768,20.405 5.902,0 -0.633,-20.405 z"
         style="fill:#1d2d53;fill-opacity:1;fill-rule:nonzero;stroke:none"
         id="path70"
         inkscape:connector-curvature="0" />
      <path
         d="m 277.3101,112.9063 -4.334,-17.271 5.368,0 1.166,4.667 3.501,0 -1.933,-7.8 -14.57,0 0.8,3.133 2,0 4.301,17.271 -2,0 0.766,3.133 7.735,0 -0.766,-3.133 -2.034,0 z"
         style="fill:#1d2d53;fill-opacity:1;fill-rule:nonzero;stroke:none"
         id="path74"
         inkscape:connector-curvature="0" />
      <path
         d="m 321.1123,99.0703 c -0.333,-1.367 -0.434,-1.834 -0.434,-2.301 0,-1 0.801,-1.101 2.001,-1.135 l 2.567,0 c 2.301,0 2.601,0.967 3.234,3.436 l 2.568,10.268 c 0.133,0.466 0.466,1.767 0.466,2.334 0,1.334 -1.1,1.367 -2.367,1.4 l -1.767,0 c -2.601,0 -2.768,-0.533 -3.701,-3.768 l -2.567,-10.234 z m 9.835,17.07 c 1.634,-0.068 4.501,-0.134 4.501,-3.201 0,-0.701 -0.2,-1.767 -0.366,-2.467 l -2.901,-11.636 c -0.633,-2.534 -1.033,-4.067 -2.867,-5.368 -1.467,-1.066 -2.734,-1.066 -4.268,-1.066 l -3.634,0 c -1.567,0.033 -4.634,0.066 -4.634,3.232 0,0.735 0.066,1 0.6,3.602 l 2.467,9.836 c 0.767,2.9 0.967,3.701 1.767,4.768 1.667,2.334 4.201,2.3 5.368,2.3 l 3.967,0 z"
         style="fill:#1d2d53;fill-opacity:1;fill-rule:nonzero;stroke:none"
         id="path78"
         inkscape:connector-curvature="0" />
      <path
         d="m 358.9204,112.9063 -4.301,-17.271 1.901,0 -0.767,-3.133 -5.568,0 4.668,17.904 -8.069,-11.369 -2.7,0 -2.001,11.369 -4.468,-17.904 -5.401,0 0.8,3.133 2.001,0 4.301,17.271 -2,0 0.799,3.133 6.069,0 2.433,-12.77 8.902,12.77 6.102,0 -0.767,-3.133 -1.934,0 z"
         style="fill:#1d2d53;fill-opacity:1;fill-rule:nonzero;stroke:none"
         id="path82"
         inkscape:connector-curvature="0" />
      <path
         d="m 374.5962,112.9063 -6.468,0 -1.734,-6.836 7.035,0 -0.8,-3.166 -7.002,0 -1.833,-7.269 6.701,0 1.067,4.335 3.468,0 -1.868,-7.468 -15.803,0 0.8,3.133 1.901,0 4.334,17.271 -1.934,0 0.767,3.133 15.637,0 -1.734,-6.901 -3.468,0 0.934,3.768 z"
         style="fill:#1d2d53;fill-opacity:1;fill-rule:nonzero;stroke:none"
         id="path86"
         inkscape:connector-curvature="0" />
      <path
         d="m 397.5645,112.9063 -5.102,-20.404 -3.5,0 c -0.834,2.633 -0.933,3.066 -1.9,6.8 -0.367,1.401 -0.767,2.801 -1.134,4.235 -0.866,3.234 -1.067,4.334 -1.567,7.002 l -4.3,-18.037 -5.468,0 0.8,3.133 1.967,0 4.301,17.271 -1.967,0 0.766,3.133 6.068,0 c 1.001,-4.533 1.167,-5.133 2.034,-8.401 0.768,-3.035 1.567,-6.068 2.067,-9.17 l 4.201,17.571 5.468,0 -0.767,-3.133 -1.967,0 z"
         style="fill:#1d2d53;fill-opacity:1;fill-rule:nonzero;stroke:none"
         id="path90"
         inkscape:connector-curvature="0" />
      <path
         d="m 420.7305,116.0391 -1.635,-6.5 -3.566,0 0.867,3.367 -4.201,0 c -1.401,-0.033 -2.401,-0.066 -2.934,-2.467 l -0.467,-1.834 c -0.134,-0.466 -0.201,-0.8 -0.201,-1.101 0,-1.199 0.934,-1.233 2.268,-1.299 l 2.599,0 c 1.901,-0.135 4.235,-0.301 4.235,-3.367 0,-0.801 -0.133,-1.434 -0.266,-2.069 l -0.734,-2.933 c -0.266,-1.033 -0.567,-2.168 -1.533,-3.268 -1.567,-1.8 -3.702,-2.066 -5.301,-2.066 l -8.869,0 1.701,6.767 3.566,0 -0.9,-3.634 4.035,0 c 2.199,0.033 3,0.068 3.6,2.502 l 0.5,2.033 c 0.168,0.732 0.234,1.033 0.234,1.367 0,1.066 -0.934,1.066 -2.201,1.1 l -2.967,0 c -1.566,0.132 -3.9,0.334 -3.9,3.466 0,0.735 0.132,1.401 0.265,1.901 l 0.701,2.867 c 0.299,1.135 0.801,3.068 3,4.402 1.301,0.766 2.368,0.766 3.768,0.766 l 8.336,0 z"
         style="fill:#1d2d53;fill-opacity:1;fill-rule:nonzero;stroke:none"
         id="path94"
         inkscape:connector-curvature="0" />
      <path
         d="m 424.9746,92.4023 10.58,0 c 1.799,0 4.414,0.254 6.326,2.451 1.163,1.324 1.518,2.703 1.831,3.918 l 0.909,3.637 c 0.157,0.74 0.321,1.517 0.321,2.484 0,3.504 -2.628,3.688 -4.947,3.85 l -3.2,0 c -1.716,0.086 -3.138,0.156 -3.138,1.937 0,0.379 0.076,0.799 0.261,1.452 l 0.578,2.265 c 0.715,3.227 2.211,3.262 3.944,3.305 l 5.636,0 -1.075,-4.176 3.749,0 1.862,7.41 -9.916,0 c -1.725,0 -2.971,0 -4.506,-0.906 -2.596,-1.572 -3.202,-3.863 -3.565,-5.232 l -0.873,-3.575 c -0.214,-0.802 -0.321,-1.566 -0.321,-2.279 0,-3.59 2.622,-3.812 4.538,-3.975 l 3.652,0 0.114,-0.002 c 1.511,-0.041 2.939,-0.078 2.939,-1.687 0,-0.447 -0.086,-0.832 -0.296,-1.762 l -0.624,-2.533 c -0.81,-3.287 -2.052,-3.305 -4.775,-3.346 l -5.42,0 1.115,4.506 -3.754,0 -1.945,-7.742 z"
         style="fill:#1d2d53;fill-opacity:1;fill-rule:nonzero;stroke:none"
         id="path98"
         inkscape:connector-curvature="0" />
      <path
         d="m 449.1553,99.0703 c -0.333,-1.367 -0.433,-1.834 -0.433,-2.301 0,-1 0.8,-1.101 2,-1.135 l 2.568,0 c 2.301,0 2.6,0.967 3.234,3.436 l 2.567,10.268 c 0.133,0.466 0.466,1.767 0.466,2.334 0,1.334 -1.099,1.367 -2.367,1.4 l -1.766,0 c -2.601,0 -2.768,-0.533 -3.702,-3.768 l -2.567,-10.234 z m 9.836,17.07 c 1.634,-0.068 4.501,-0.134 4.501,-3.201 0,-0.701 -0.2,-1.767 -0.367,-2.467 l -2.901,-11.636 c -0.633,-2.534 -1.033,-4.067 -2.867,-5.368 -1.467,-1.066 -2.733,-1.066 -4.267,-1.066 l -3.634,0 c -1.568,0.033 -4.635,0.066 -4.635,3.232 0,0.735 0.066,1 0.601,3.602 l 2.466,9.836 c 0.767,2.9 0.967,3.701 1.768,4.768 1.667,2.334 4.2,2.3 5.367,2.3 l 3.968,0 z"
         style="fill:#1d2d53;fill-opacity:1;fill-rule:nonzero;stroke:none"
         id="path102"
         inkscape:connector-curvature="0" />
      <path
         d="m 480.0195,116.0391 -1.733,-6.934 -3.635,0 0.967,3.801 -3.701,0 c -0.966,-0.033 -1.466,-0.033 -2.001,-0.433 -0.632,-0.467 -0.766,-0.901 -1.233,-2.534 l -2.801,-11.336 c -0.033,-0.134 -0.066,-0.3 -0.099,-0.433 -0.134,-0.467 -0.267,-1.102 -0.267,-1.434 0,-1.101 1.2,-1.101 2.066,-1.101 l 3.968,0 1.034,4.201 3.634,0 -1.834,-7.334 -8.601,0 c -0.701,0.033 -1.368,0.033 -2.001,0.266 -0.234,0.066 -2.167,0.701 -2.167,3.035 0,0.666 0.133,1.334 0.367,2.533 l 2.834,11.269 c 0.3,1.266 0.667,2.666 1.5,3.868 1.667,2.433 3.867,2.5 5.335,2.566 l 8.368,0 z"
         style="fill:#1d2d53;fill-opacity:1;fill-rule:nonzero;stroke:none"
         id="path106"
         inkscape:connector-curvature="0" />
      <path
         d="m 495.2344,116.0391 -1.733,-6.934 -3.635,0 0.967,3.801 -3.701,0 c -0.966,-0.033 -1.466,-0.033 -2.001,-0.433 -0.632,-0.467 -0.766,-0.901 -1.233,-2.534 l -2.801,-11.336 c -0.033,-0.134 -0.066,-0.3 -0.099,-0.433 -0.134,-0.467 -0.267,-1.102 -0.267,-1.434 0,-1.101 1.2,-1.101 2.066,-1.101 l 3.968,0 1.034,4.201 3.634,0 -1.834,-7.334 -8.601,0 c -0.701,0.033 -1.368,0.033 -2.001,0.266 -0.234,0.066 -2.167,0.701 -2.167,3.035 0,0.666 0.133,1.334 0.367,2.533 l 2.834,11.269 c 0.3,1.266 0.667,2.666 1.5,3.868 1.667,2.433 3.867,2.5 5.335,2.566 l 8.368,0 z"
         style="fill:#1d2d53;fill-opacity:1;fill-rule:nonzero;stroke:none"
         id="path110"
         inkscape:connector-curvature="0" />
      <path
         d="m 508.2158,112.9063 -6.469,0 -1.733,-6.836 7.035,0 -0.801,-3.166 -7.001,0 -1.834,-7.269 6.701,0 1.068,4.335 3.467,0 -1.867,-7.468 -15.803,0 0.8,3.133 1.9,0 4.335,17.271 -1.935,0 0.768,3.133 15.637,0 -1.735,-6.901 -3.467,0 0.934,3.768 z"
         style="fill:#1d2d53;fill-opacity:1;fill-rule:nonzero;stroke:none"
         id="path114"
         inkscape:connector-curvature="0" />
      <path
         d="m 517.2842,105.8379 3.9,0 c 1.035,0 1.834,0.166 2.268,0.533 0.467,0.367 0.533,0.567 0.9,1.834 l 0.5,2 c 0.201,1 0.234,1.1 0.234,1.401 0,1.132 -1.134,1.234 -1.901,1.3 l -4.134,0 -1.767,-7.068 z m 8.035,-10.203 2,0 -0.766,-3.133 -5.768,0 1.9,7.701 c 0.166,0.735 0.201,0.934 0.201,1.133 0,1.201 -0.967,1.268 -2.268,1.334 l -4.134,0 -2.534,-10.168 -5.701,0 0.8,3.133 1.933,0 4.302,17.271 -1.935,0 0.768,3.133 10.602,0 c 3.868,0 4.835,-1.933 4.168,-4.599 l -0.868,-3.469 c -0.599,-2 -1.367,-2.901 -3.267,-3.633 0.734,-0.135 2.1,-0.434 2.1,-2.002 0,-0.398 -0.066,-0.898 -0.333,-1.832 l -1.2,-4.869 z"
         style="fill:#1d2d53;fill-opacity:1;fill-rule:nonzero;stroke:none"
         id="path118"
         inkscape:connector-curvature="0" />
      <path
         d="m 535.4004,92.4863 17.288,0 2.211,8.922 -3.567,0 -1.448,-5.787 -7.428,0 5.561,22.162 2.521,0 0.767,3.137 -8.819,0 -0.767,-3.137 2.483,0 -5.52,-22.162 -2.481,0 -0.801,-3.135 z"
         style="fill:#1d2d53;fill-opacity:1;fill-rule:nonzero;stroke:none"
         id="path122"
         inkscape:connector-curvature="0" />
      <path
         d="m 306.0659,92.502 3.895,0 10.458,25.297 2.566,0 0.792,3.236 -5.445,0 c -0.848,-2.035 -1.639,-3.982 -2.354,-5.789 l -0.848,-2.154 c -3.548,-9.02 -4.093,-10.406 -5.552,-14.899 l -0.702,-2.16 0.068,2.272 c 0.125,4.185 0.165,5.677 0.165,9.207 0,7.34 -0.04,8.59 -0.187,13.24 l -0.009,0.283 -4.034,0 c -2.214,-4.293 -4.484,-8.949 -7.345,-15.066 -1.681,-3.74 -2.24,-5.11 -3.173,-7.582 l -0.919,-2.438 0.292,2.588 c 0.293,2.596 0.621,5.504 0.826,7.682 0.187,2.113 0.404,4.861 0.622,7.607 0.204,2.58 0.409,5.158 0.587,7.209 l -5.635,0 -0.825,-3.236 2.448,0 -1.57,-25.297 3.96,0 c 3.563,7.049 7.587,15.023 11.103,23.199 l 0.712,1.655 -0.089,-1.799 c -0.125,-2.553 -0.164,-3.801 -0.164,-6.639 0,-7.551 0.153,-11.783 0.357,-16.416"
         style="fill:#1d2d53;fill-opacity:1;fill-rule:nonzero;stroke:none"
         id="path126"
         inkscape:connector-curvature="0" />
      <path
         d="m 571.5195,112.9063 -6.469,0 -1.733,-6.836 7.035,0 -0.801,-3.166 -7.001,0 -1.834,-7.269 6.701,0 1.068,4.335 3.467,0 -1.867,-7.468 -15.803,0 0.8,3.133 1.9,0 4.335,17.271 -1.935,0 0.768,3.133 15.637,0 -1.735,-6.901 -3.467,0 0.934,3.768 z"
         style="fill:#1d2d53;fill-opacity:1;fill-rule:nonzero;stroke:none"
         id="path130"
         inkscape:connector-curvature="0" />
      <path
         d="m 581.5908,103.0703 4.2,0 0.601,10.535 -4.801,-10.535 z m 7.768,-7.436 1.834,0 -0.8,-3.132 -5.235,0 0.434,7.502 -5.368,0 -3.401,-7.502 -5.134,0 0.799,3.132 1.834,0 9.769,20.405 5.901,0 -0.633,-20.405 z"
         style="fill:#1d2d53;fill-opacity:1;fill-rule:nonzero;stroke:none"
         id="path134"
         inkscape:connector-curvature="0" />
      <path
         d="m 607.2588,112.9063 -4.468,0 c -0.7,0 -1.533,0.033 -2.266,-0.5 -0.8,-0.566 -0.967,-1.234 -1.535,-3.234 l -2.5,-10.002 c -0.133,-0.534 -0.433,-1.768 -0.433,-2.235 0,-1.3 1.1,-1.3 2.433,-1.3 l 4.468,0 1.768,7.001 -3.935,0 0.834,3.268 7.534,0 -3.334,-13.402 -9.002,0 c -1.233,0.066 -4.633,0.265 -4.633,3.533 0,0.734 0.166,1.433 0.399,2.568 l 2.635,10.569 c 0.5,1.966 0.899,3.367 1.866,4.601 1.667,2.067 3.835,2.266 5.935,2.266 l 8.435,0 -1.733,-6.867 -3.402,0 0.934,3.734 z"
         style="fill:#1d2d53;fill-opacity:1;fill-rule:nonzero;stroke:none"
         id="path138"
         inkscape:connector-curvature="0" />
      <path
         d="m 628.8232,112.9063 -3.7,-14.871 c -0.834,-3.334 -3.001,-5.533 -6.769,-5.533 l -3.434,0 c -2.201,0 -4.701,0.732 -4.701,3.467 0,0.734 0.133,1.433 0.267,1.966 l 3.734,14.971 -1.9,0 0.767,3.133 5.701,0 -4.101,-16.403 c -0.467,-1.933 -0.501,-2.201 -0.501,-2.535 0,-1.299 1.001,-1.398 2.601,-1.466 l 1.534,0 c 2.367,0.167 2.634,0.701 3.434,4.001 l 4.101,16.403 5.735,0 -0.801,-3.133 -1.967,0 z"
         style="fill:#1d2d53;fill-opacity:1;fill-rule:nonzero;stroke:none"
         id="path142"
         inkscape:connector-curvature="0" />
      <path
         d="m 644.5244,112.9063 -6.469,0 -1.733,-6.836 7.035,0 -0.801,-3.166 -7.001,0 -1.834,-7.269 6.701,0 1.068,4.335 3.467,0 -1.867,-7.468 -15.803,0 0.8,3.133 1.9,0 4.335,17.271 -1.935,0 0.768,3.133 15.637,0 -1.735,-6.901 -3.467,0 0.934,3.768 z"
         style="fill:#1d2d53;fill-opacity:1;fill-rule:nonzero;stroke:none"
         id="path146"
         inkscape:connector-curvature="0" />
      <path
         d="m 401.9541,116.0391 -0.798,-3.135 1.563,0 -3.26,-4.767 2.086,0 5.41,7.902 -5.001,0 z"
         style="fill:#1d2d53;fill-opacity:1;fill-rule:nonzero;stroke:none"
         id="path150"
         inkscape:connector-curvature="0" />
    </g>
  </g>
</svg>
