<?xml version="1.0" encoding="UTF-8" standalone="no"?>
<!-- Created with Inkscape (http://www.inkscape.org/) -->

<svg
   xmlns:dc="http://purl.org/dc/elements/1.1/"
   xmlns:cc="http://creativecommons.org/ns#"
   xmlns:rdf="http://www.w3.org/1999/02/22-rdf-syntax-ns#"
   xmlns:svg="http://www.w3.org/2000/svg"
   xmlns="http://www.w3.org/2000/svg"
   xmlns:sodipodi="http://sodipodi.sourceforge.net/DTD/sodipodi-0.dtd"
   xmlns:inkscape="http://www.inkscape.org/namespaces/inkscape"
   width="159"
   height="159"
   id="svg6270"
   version="1.1"
   inkscape:version="0.48.4 r9939"
   sodipodi:docname="New document 4">
  <defs
     id="defs6272" />
  <sodipodi:namedview
     id="base"
     pagecolor="#ffffff"
     bordercolor="#666666"
     borderopacity="1.0"
     inkscape:pageopacity="0.0"
     inkscape:pageshadow="2"
     inkscape:zoom="1"
     inkscape:cx="31.292142"
     inkscape:cy="65.675817"
     inkscape:document-units="px"
     inkscape:current-layer="layer1"
     showgrid="false"
     fit-margin-top="0"
     fit-margin-left="0"
     fit-margin-right="0"
     fit-margin-bottom="0"
     inkscape:window-width="1024"
     inkscape:window-height="714"
     inkscape:window-x="-4"
     inkscape:window-y="-4"
     inkscape:window-maximized="1" />
  <metadata
     id="metadata6275">
    <rdf:RDF>
      <cc:Work
         rdf:about="">
        <dc:format>image/svg+xml</dc:format>
        <dc:type
           rdf:resource="http://purl.org/dc/dcmitype/StillImage" />
        <dc:title></dc:title>
      </cc:Work>
    </rdf:RDF>
  </metadata>
  <g
     inkscape:label="Layer 1"
     inkscape:groupmode="layer"
     id="layer1"
     transform="translate(-343.70786,-238.2258)">
    <g
       id="g6201"
       transform="matrix(1.8114297,0,0,-1.8114297,288.1469,1659.9352)">
      <path
         d="m 104.75154,771.15799 c -8.074005,8.074 -18.808005,12.521 -30.227005,12.521 -11.418,0 -22.153,-4.447 -30.227,-12.521 -8.074,-8.074 -12.521,-18.809 -12.521,-30.227 0,-11.419 4.447,-22.153 12.521,-30.227 8.074,-8.074 18.809,-12.521 30.227,-12.521 11.419,0 22.153,4.447 30.227005,12.521 8.074,8.074 12.521,18.808 12.521,30.227 0,11.418 -4.447,22.153 -12.521,30.227"
         style="fill:#000000;fill-opacity:1;fill-rule:nonzero;stroke:none"
         id="path1852"
         inkscape:connector-curvature="0" />
      <path
         d="m 74.524433,779.87379 c -21.473,0 -38.943,-17.47 -38.943,-38.943 0,-21.474 17.47,-38.943 38.943,-38.943 21.474,0 38.943007,17.469 38.943007,38.943 0,21.473 -17.469007,38.943 -38.943007,38.943 m 0,-79.976 c -22.625,0 -41.033,18.408 -41.033,41.033 0,22.626 18.408,41.033 41.033,41.033 22.626,0 41.033007,-18.407 41.033007,-41.033 0,-22.625 -18.407007,-41.033 -41.033007,-41.033"
         style="fill:#163a25;fill-opacity:1;fill-rule:nonzero;stroke:none"
         id="path1856"
         inkscape:connector-curvature="0" />
      <path
         d="m 43.788633,756.42259 0.522,-0.227 c 0.323,-0.14 0.319,-0.33 0.166,-0.681 l -1.111,-2.562 -1.301,0.564 1.113,2.562 c 0.152,0.351 0.288,0.484 0.611,0.344 m 2.328,-4.665 -1.907,0.828 1.334,3.075 c 0.326,0.749 0.212,1.216 -0.471,1.512 l -1.091,0.474 c -0.683,0.297 -1.101,0.061 -1.426,-0.689 l -1.821,-4.194 4.896,-2.125 0.486,1.119 z"
         style="fill:#ffffff;fill-opacity:1;fill-rule:nonzero;stroke:none"
         id="path1860"
         inkscape:connector-curvature="0" />
      <path
         d="m 53.065933,763.87429 -2.801,-2.987 -2.468,2.314 2.803,2.988 2.466,-2.315 z m -2.014,-3.613 2.689,2.866 c 0.687,0.732 0.718,1.143 -0.014,1.83 l -2.052,1.924 c -0.732,0.686 -1.14,0.63 -1.826,-0.102 l -2.689,-2.867 c -0.686,-0.731 -0.718,-1.142 0.014,-1.829 l 2.052,-1.924 c 0.732,-0.687 1.14,-0.63 1.826,0.102"
         style="fill:#ffffff;fill-opacity:1;fill-rule:nonzero;stroke:none"
         id="path1864"
         inkscape:connector-curvature="0" />
      <path
         d="m 60.856433,772.52369 0.288,-0.573 c 0.157,-0.315 0.033,-0.458 -0.309,-0.63 l -2.497,-1.252 -0.667,1.331 2.496,1.252 c 0.342,0.172 0.531,0.186 0.689,-0.128 m 0.257,-2.081 0.629,0.315 c 0.73,0.366 0.942,0.797 0.609,1.462 l -0.561,1.119 c -0.334,0.666 -0.807,0.753 -1.537,0.387 l -4.086,-2.05 2.393,-4.77 1.09,0.547 -0.904,1.803 1.054,0.528 2.828,-0.838 1.589,0.797 -3.104,0.7 z"
         style="fill:#ffffff;fill-opacity:1;fill-rule:nonzero;stroke:none"
         id="path1868"
         inkscape:connector-curvature="0" />
      <path
         d="m 66.115733,775.81279 0.148,-0.94 2.421,0.381 0.681,-4.332 1.227,0.193 -0.682,4.332 2.432,0.383 -0.148,0.939 -6.079,-0.956 z"
         style="fill:#ffffff;fill-opacity:1;fill-rule:nonzero;stroke:none"
         id="path1872"
         inkscape:connector-curvature="0" />
      <path
         d="m 82.161633,771.68779 -3.966,0.542 0.585,4.293 -1.229,0.168 -0.722,-5.288 5.196,-0.709 0.136,0.994 z"
         style="fill:#ffffff;fill-opacity:1;fill-rule:nonzero;stroke:none"
         id="path1876"
         inkscape:connector-curvature="0" />
      <path
         d="m 87.882833,770.83619 2.013,1.441 0.093,-2.455 -2.106,1.014 z m 3.041,2.096 -1.083,0.519 -5.035,-3.499 1.118,-0.538 1.066,0.783 3.048,-1.466 0.071,-1.332 1.258,-0.605 -0.443,6.138 z"
         style="fill:#ffffff;fill-opacity:1;fill-rule:nonzero;stroke:none"
         id="path1880"
         inkscape:connector-curvature="0" />
      <path
         d="m 97.670433,765.36309 c 0.112,0.107 0.307,0.308 0.577,0.624 -0.019,-0.219 -0.016,-0.416 -0.006,-0.622 l 0.325,-5.113 0.586,-0.613 3.857007,3.689 -0.772,0.807 -2.02601,-1.938 c -0.12,-0.114 -0.328997,-0.343 -0.628997,-0.673 0.028,0.285 0.02,0.563 -0.003,0.841 l -0.324,4.887 -0.585,0.613 -3.857,-3.689 0.772,-0.808 2.085,1.995 z"
         style="fill:#ffffff;fill-opacity:1;fill-rule:nonzero;stroke:none"
         id="path1884"
         inkscape:connector-curvature="0" />
      <path
         d="m 103.72314,753.67559 -0.649,1.466 3.092,1.369 0.892,-2.014 c 0.474,-1.068 0.183,-1.842 -0.81,-2.281 -1.211,-0.537 -1.888,0.022 -2.525,1.46 m -0.809,-0.652 c 0.385,-0.87 0.764,-1.494 1.267,-1.837 0.717,-0.497 1.65,-0.559 2.567,-0.153 1.513,0.67 1.984,2.033 1.176,3.858 l -1.39,3.14 -4.881,-2.162 1.261,-2.846 z"
         style="fill:#ffffff;fill-opacity:1;fill-rule:nonzero;stroke:none"
         id="path1888"
         inkscape:connector-curvature="0" />
      <path
         d="m 45.302233,729.20729 1.104,-2.188 -3.914,-1.977 0.559,-1.108 3.915,1.977 1.109,-2.198 0.85,0.429 -2.773,5.494 -0.85,-0.429 z"
         style="fill:#ffffff;fill-opacity:1;fill-rule:nonzero;stroke:none"
         id="path1892"
         inkscape:connector-curvature="0" />
      <path
         d="m 55.714433,714.16779 -3.012,2.444 1.304,1.605 -0.964,0.783 -3.363,-4.144 0.965,-0.782 1.445,1.782 3.012,-2.443 -1.446,-1.783 0.972,-0.788 3.362,4.143 -0.972,0.789 -1.303,-1.606 z"
         style="fill:#ffffff;fill-opacity:1;fill-rule:nonzero;stroke:none"
         id="path1896"
         inkscape:connector-curvature="0" />
      <path
         d="m 69.842833,709.51299 -0.749,-3.298 -3.995,0.907 0.749,3.298 3.995,-0.907 z m 0.129,0.947 -3.833,0.87 c -0.978,0.222 -1.347,0.041 -1.569,-0.938 l -0.623,-2.743 c -0.223,-0.979 0.033,-1.302 1.011,-1.524 l 3.833,-0.87 c 0.978,-0.222 1.348,-0.041 1.571,0.937 l 0.623,2.744 c 0.221,0.978 -0.034,1.302 -1.013,1.524"
         style="fill:#ffffff;fill-opacity:1;fill-rule:nonzero;stroke:none"
         id="path1900"
         inkscape:connector-curvature="0" />
      <path
         d="m 83.022933,710.29759 c 0.373,0.086 0.56,0.055 0.639,-0.288 l 0.144,-0.625 c 0.079,-0.342 -0.076,-0.453 -0.449,-0.538 l -2.721,-0.627 -0.335,1.451 2.722,0.627 z m 1.083,-2.212 c 0.796,0.183 1.104,0.551 0.937,1.276 l -0.281,1.221 c -0.168,0.725 -0.606,0.921 -1.402,0.737 l -4.454,-1.026 1.199,-5.201 1.189,0.274 -0.454,1.966 1.149,0.264 2.55,-1.482 1.734,0.4 -2.853,1.412 0.686,0.159 z"
         style="fill:#ffffff;fill-opacity:1;fill-rule:nonzero;stroke:none"
         id="path1904"
         inkscape:connector-curvature="0" />
      <path
         d="m 95.388733,718.03639 1.745,-2.194 c 0.103,-0.129 0.313,-0.359 0.614,-0.689 -0.281,0.055 -0.559,0.072 -0.838,0.074 l -4.897,0.124 -0.664,-0.528 3.323,-4.177 0.875,0.695 -1.797,2.258 c -0.096,0.122 -0.278,0.334 -0.569,0.632 0.217,-0.039 0.414,-0.054 0.619,-0.063 l 5.122,-0.142 0.664,0.528 -3.323,4.177 -0.874,-0.695 z"
         style="fill:#ffffff;fill-opacity:1;fill-rule:nonzero;stroke:none"
         id="path1908"
         inkscape:connector-curvature="0" />
      <path
         d="m 107.23684,728.25949 -0.661,0.32 c -0.902,0.438 -1.28,0.253 -1.718,-0.65 l -1.454,-2.996 -1.032,0.501 1.526,3.146 0.549,-0.267 0.246,1.1 -0.103,0.05 c -0.828,0.401 -1.214,0.174 -1.629,-0.682 l -1.323,-2.726 c -0.439,-0.903 -0.346,-1.305 0.557,-1.742 l 0.53,-0.258 c 0.903,-0.438 1.276,-0.262 1.713,0.641 l 1.455,2.996 1.097,-0.532 -1.648,-3.397 -0.567,0.275 -0.274,-1.086 0.131,-0.063 c 0.902,-0.439 1.279,-0.253 1.717,0.649 l 1.441,2.969 c 0.438,0.903 0.349,1.314 -0.553,1.752"
         style="fill:#ffffff;fill-opacity:1;fill-rule:nonzero;stroke:none"
         id="path1912"
         inkscape:connector-curvature="0" />
      <path
         d="m 44.108433,741.71949 -1.887,0 0,-0.639 1.019,0 0,-0.441 -1.019,0 0,-0.92 -0.563,0 0,2.422 2.45,0 0,-0.422 z m -1.213,4.636 c -0.051,-5.336 -5.462,-5.361 -5.462,-5.361 0,0 5.436,-0.127 5.436,-5.488 0.026,5.387 5.588,5.387 5.462,5.412 -0.126,0.025 -5.487,0.076 -5.436,5.437 m 64.594007,-5.016 -0.563,-0.09 0,0.46 -1.521,0 0,-1.534 1.521,0 0,0.521 0.563,-0.118 0,-0.285 c 0,-0.456 -0.145,-0.574 -0.601,-0.574 l -1.446,0 c -0.455,0 -0.6,0.118 -0.6,0.574 l 0,1.276 c 0,0.455 0.145,0.572 0.6,0.572 l 1.446,0 c 0.456,0 0.601,-0.117 0.601,-0.572 l 0,-0.23 z m -1.312,5.016 c -0.05,-5.336 -5.46201,-5.361 -5.46201,-5.361 0,0 5.43701,-0.127 5.43701,-5.488 0.025,5.387 5.588,5.387 5.462,5.412 -0.126,0.025 -5.487,0.076 -5.437,5.437"
         style="fill:#ffffff;fill-opacity:1;fill-rule:nonzero;stroke:none"
         id="path1916"
         inkscape:connector-curvature="0" />
      <path
         d="m 59.918033,761.20489 c -2.462,1.05 -3.741,0.646 -3.741,0.646 0,0 2.783,-0.931 2.198,-3.453 -0.427,-1.838 -0.793,-4.082 -0.869,-6.155 -0.188,-3.24 0.138,-5.486 -2.141,-8.566 l 1.235,-1.724 c 0.551,0.431 1.166,1.32 1.527,1.856 2.54,-0.592 3.807,-0.242 3.807,-0.242 0,0 -2.903,1.221 -2.782,3.323 0.143,2.486 0.266,4.702 0.362,6.597 0.34,5.775 2.396,8.636 6.54,6.635 l 1.239,1.676 c -3.488,1.751 -5.862,0.87 -7.375,-0.593"
         style="fill:#163a25;fill-opacity:1;fill-rule:nonzero;stroke:none"
         id="path1920"
         inkscape:connector-curvature="0" />
      <path
         d="m 50.790033,748.74779 c -2.609,-0.598 -3.405,-1.676 -3.405,-1.676 0,0 2.798,0.882 3.806,-1.502 0.736,-1.738 1.76,-3.769 2.916,-5.491 1.752,-2.731 3.336,-4.357 3.303,-8.188 l 2.012,-0.67 c 0.193,0.673 0.167,1.755 0.145,2.401 2.403,1.012 3.222,2.041 3.222,2.041 0,0 -3.066,-0.719 -4.204,1.053 -1.345,2.095 -2.548,3.96 -3.584,5.55 -3.12,4.871 -3.139,8.395 1.391,9.212 l 0.017,2.083 c -3.851,-0.633 -5.254,-2.741 -5.619,-4.813"
         style="fill:#163a25;fill-opacity:1;fill-rule:nonzero;stroke:none"
         id="path1924"
         inkscape:connector-curvature="0" />
      <path
         d="m 50.728533,733.30349 c -1.759,-2.017 -1.77,-3.357 -1.77,-3.357 0,0 1.746,2.358 3.963,1.023 1.616,-0.975 3.638,-2.016 5.586,-2.73 3.022,-1.179 5.26,-1.563 7.485,-4.683 l 2.021,0.642 c -0.24,0.658 -0.896,1.518 -1.293,2.026 1.348,2.233 1.406,3.545 1.406,3.545 0,0 -2.058,-2.383 -4.019,-1.618 -2.321,0.905 -4.39,1.706 -6.162,2.383 -5.388,2.107 -7.474,4.947 -4.29,8.27 l -1.211,1.696 c -2.743,-2.776 -2.639,-5.305 -1.716,-7.197"
         style="fill:#163a25;fill-opacity:1;fill-rule:nonzero;stroke:none"
         id="path1928"
         inkscape:connector-curvature="0" />
      <path
         d="m 59.756333,720.77369 c -0.238,-2.666 0.542,-3.757 0.542,-3.757 0,0 0.025,2.934 2.604,3.157 1.88,0.162 4.128,0.507 6.123,1.075 3.139,0.823 5.174,1.826 8.808,0.611 l 1.259,1.707 c -0.58,0.391 -1.618,0.702 -2.238,0.88 -0.222,2.598 -0.946,3.695 -0.946,3.695 0,0 -0.265,-3.138 -2.301,-3.673 -2.409,-0.632 -4.554,-1.201 -6.385,-1.694 -5.597,-1.462 -8.954,-0.391 -8.332,4.169 l -1.976,0.661 c -0.588,-3.859 0.983,-5.844 2.842,-6.831"
         style="fill:#163a25;fill-opacity:1;fill-rule:nonzero;stroke:none"
         id="path1932"
         inkscape:connector-curvature="0" />
      <path
         d="m 74.424833,715.94219 c 1.375,-2.297 2.647,-2.72 2.647,-2.72 0,0 -1.704,2.388 0.251,4.084 1.426,1.236 3.04,2.837 4.322,4.469 2.055,2.511 3.112,4.52 6.766,5.672 l 0.015,2.12 c -0.699,-0.024 -1.721,-0.383 -2.327,-0.603 -1.706,1.972 -2.937,2.432 -2.937,2.432 0,0 1.63,-2.694 0.297,-4.323 -1.577,-1.927 -2.979,-3.648 -4.171,-5.124 -3.668,-4.472 -7.013,-5.579 -9.191,-1.523 l -1.986,-0.629 c 1.792,-3.466 4.23,-4.148 6.314,-3.855"
         style="fill:#163a25;fill-opacity:1;fill-rule:nonzero;stroke:none"
         id="path1936"
         inkscape:connector-curvature="0" />
      <path
         d="m 89.131833,720.65599 c 2.462,-1.05 3.741,-0.646 3.741,-0.646 0,0 -2.783,0.932 -2.198,3.453 0.427,1.838 0.792,4.082 0.869,6.155 0.188,3.24 -0.139,5.486 2.141,8.567 l -1.235,1.723 c -0.551,-0.431 -1.167,-1.32 -1.528,-1.856 -2.54,0.592 -3.805,0.242 -3.805,0.242 0,0 2.901,-1.221 2.781,-3.323 -0.143,-2.486 -0.266,-4.702 -0.363,-6.597 -0.338,-5.774 -2.395,-8.635 -6.539,-6.635 l -1.239,-1.675 c 3.487,-1.751 5.862,-0.871 7.375,0.592"
         style="fill:#163a25;fill-opacity:1;fill-rule:nonzero;stroke:none"
         id="path1940"
         inkscape:connector-curvature="0" />
      <path
         d="m 98.259833,733.11359 c 2.607997,0.599 3.405007,1.677 3.405007,1.677 0,0 -2.799007,-0.884 -3.807007,1.501 -0.735,1.739 -1.758,3.769 -2.915,5.491 -1.753,2.731 -3.336,4.357 -3.303,8.188 l -2.013,0.669 c -0.193,-0.672 -0.167,-1.754 -0.144,-2.399 -2.404,-1.014 -3.222,-2.042 -3.222,-2.042 0,0 3.066,0.718 4.204,-1.053 1.345,-2.095 2.549,-3.96 3.584,-5.55 3.121,-4.872 3.139,-8.394 -1.391,-9.212 l -0.017,-2.084 c 3.851,0.633 5.253,2.742 5.619,4.814"
         style="fill:#163a25;fill-opacity:1;fill-rule:nonzero;stroke:none"
         id="path1944"
         inkscape:connector-curvature="0" />
      <path
         d="m 98.320833,748.55739 c 1.758997,2.017 1.770997,3.358 1.770997,3.358 0,0 -1.746997,-2.359 -3.962997,-1.023 -1.617,0.975 -3.638,2.015 -5.586,2.728 -3.024,1.18 -5.261,1.564 -7.486,4.684 l -2.021,-0.641 c 0.24,-0.658 0.896,-1.518 1.293,-2.027 -1.347,-2.232 -1.406,-3.545 -1.406,-3.545 0,0 2.058,2.382 4.02,1.618 2.32,-0.904 4.39,-1.705 6.162,-2.383 5.387,-2.106 7.474,-4.946 4.29,-8.27 l 1.21,-1.696 c 2.743,2.776 2.639,5.305 1.716,7.197"
         style="fill:#163a25;fill-opacity:1;fill-rule:nonzero;stroke:none"
         id="path1948"
         inkscape:connector-curvature="0" />
      <path
         d="m 89.293033,761.08819 c 0.238,2.666 -0.542,3.757 -0.542,3.757 0,0 -0.025,-2.935 -2.604,-3.157 -1.88,-0.162 -4.128,-0.508 -6.123,-1.075 -3.139,-0.823 -5.174,-1.827 -8.808,-0.612 l -1.259,-1.706 c 0.581,-0.392 1.617,-0.703 2.238,-0.88 0.222,-2.598 0.946,-3.695 0.946,-3.695 0,0 0.264,3.138 2.3,3.672 2.41,0.633 4.555,1.201 6.387,1.694 5.596,1.463 8.953,0.392 8.332,-4.169 l 1.975,-0.66 c 0.588,3.858 -0.983,5.843 -2.842,6.831"
         style="fill:#163a25;fill-opacity:1;fill-rule:nonzero;stroke:none"
         id="path1952"
         inkscape:connector-curvature="0" />
      <path
         d="m 74.624533,765.91919 c -1.375,2.296 -2.647,2.721 -2.647,2.721 0,0 1.704,-2.389 -0.251,-4.085 -1.427,-1.236 -3.04,-2.837 -4.322,-4.469 -2.056,-2.511 -3.112,-4.52 -6.766,-5.672 l -0.015,-2.121 c 0.699,0.025 1.721,0.383 2.327,0.604 1.707,-1.972 2.937,-2.433 2.937,-2.433 0,0 -1.63,2.694 -0.297,4.324 1.577,1.926 2.978,3.648 4.17,5.123 3.669,4.473 7.014,5.58 9.192,1.525 l 1.987,0.627 c -1.793,3.466 -4.231,4.149 -6.315,3.856"
         style="fill:#163a25;fill-opacity:1;fill-rule:nonzero;stroke:none"
         id="path1956"
         inkscape:connector-curvature="0" />
      <path
         d="m 74.516633,737.72979 c 0,3.164 -3.208,3.239 -3.208,3.239 0,0 3.193,0.015 3.223,3.164 -0.03,-3.164 3.134,-3.195 3.209,-3.209 0.073,-0.015 -3.209,-0.015 -3.224,-3.194 m 9.083,3.33 c 0,0 -1.092,-2.313 -1.309,-1.456 -0.522,2.066 -1.8,4.084 -6.315,5.6 0.868,0.336 1.966,0.486 3.325,0.194 3.659,-0.784 3.568,-4.593 3.586,-4.595 0,0 1.153,1.381 0.739,3.687 -0.721,4.025 -6.191,4.699 -6.191,4.699 0,0 1.863,-1.753 0.981,-1.694 -2.127,0.141 -4.441,-0.452 -7.278,-4.279 -0.053,0.931 0.145,2.022 0.843,3.226 1.876,3.236 5.471,1.973 5.478,1.99 0,0 -0.957,1.523 -3.277,1.842 -4.051,0.557 -6.383,-4.436 -6.383,-4.436 0,0 2.243,1.23 1.914,0.409 -0.791,-1.979 -0.943,-4.363 1.821,-8.244 -0.901,0.238 -1.879,0.764 -2.808,1.798 -2.499,2.785 -0.186,5.814 -0.2,5.825 0,0 -1.743,-0.439 -2.764,-2.547 -1.782,-3.681 2.246,-7.442 2.246,-7.442 0,0 -0.476,2.514 0.203,1.947 1.637,-1.363 3.857,-2.245 8.401,-0.816 -0.505,-0.784 -1.305,-1.551 -2.575,-2.114 -3.421,-1.515 -5.587,1.62 -5.603,1.611 0,0 -0.121,-1.795 1.569,-3.418 2.95,-2.831 7.771,-0.163 7.771,-0.163 0,0 -2.537,0.325 -1.789,0.796 1.803,1.134 3.327,2.974 3.373,7.736 0.589,-0.721 1.071,-1.719 1.214,-3.102 0.384,-3.722 -3.268,-4.813 -3.263,-4.83 0,0 1.67,-0.67 3.735,0.436 3.605,1.93 2.556,7.34 2.556,7.34"
         style="fill:#951b20;fill-opacity:1;fill-rule:nonzero;stroke:none"
         id="path1960"
         inkscape:connector-curvature="0" />
    </g>
  </g>
</svg>
