<?xml version="1.0" encoding="UTF-8" standalone="no"?>
<!-- Created with Inkscape (http://www.inkscape.org/) -->

<svg
   xmlns:dc="http://purl.org/dc/elements/1.1/"
   xmlns:cc="http://creativecommons.org/ns#"
   xmlns:rdf="http://www.w3.org/1999/02/22-rdf-syntax-ns#"
   xmlns:svg="http://www.w3.org/2000/svg"
   xmlns="http://www.w3.org/2000/svg"
   xmlns:sodipodi="http://sodipodi.sourceforge.net/DTD/sodipodi-0.dtd"
   xmlns:inkscape="http://www.inkscape.org/namespaces/inkscape"
   id="svg2"
   version="1.1"
   inkscape:version="0.48.5 r10040"
   width="315.00125"
   height="405.00375"
   xml:space="preserve"
   sodipodi:docname="2015-SCHEDULE.svg"><metadata
     id="metadata8"><rdf:RDF><cc:Work
         rdf:about=""><dc:format>image/svg+xml</dc:format><dc:type
           rdf:resource="http://purl.org/dc/dcmitype/StillImage" /><dc:title></dc:title></cc:Work></rdf:RDF></metadata><defs
     id="defs6"><linearGradient
       x1="0"
       y1="0"
       x2="1"
       y2="0"
       gradientUnits="userSpaceOnUse"
       gradientTransform="matrix(0,792,792,0,0,0)"
       spreadMethod="pad"
       id="linearGradient24"><stop
         style="stop-opacity:1;stop-color:#ffffff"
         offset="0"
         id="stop26" /><stop
         style="stop-opacity:1;stop-color:#cecece"
         offset="1"
         id="stop28" /></linearGradient><linearGradient
       x1="0"
       y1="0"
       x2="1"
       y2="0"
       gradientUnits="userSpaceOnUse"
       gradientTransform="scale(612,-612)"
       spreadMethod="pad"
       id="linearGradient44"><stop
         style="stop-opacity:1;stop-color:#ffffff"
         offset="0"
         id="stop46" /><stop
         style="stop-opacity:1;stop-color:#cecece"
         offset="1"
         id="stop48" /></linearGradient><clipPath
       clipPathUnits="userSpaceOnUse"
       id="clipPath56"><path
         d="m 0,323.22 587.849,0 0,434.22 L 0,757.44 0,323.22 z"
         id="path58"
         inkscape:connector-curvature="0" /></clipPath><clipPath
       clipPathUnits="userSpaceOnUse"
       id="clipPath160"><path
         d="m 58.32,577.737 127.864,0 0,127.863 -127.864,0 0,-127.863 z"
         id="path162"
         inkscape:connector-curvature="0" /></clipPath><clipPath
       clipPathUnits="userSpaceOnUse"
       id="clipPath398"><path
         d="m 526.566,629.119 49.434,0 0,63.881 -49.434,0 0,-63.881 z"
         id="path400"
         inkscape:connector-curvature="0" /></clipPath></defs><sodipodi:namedview
     pagecolor="#ffffff"
     bordercolor="#666666"
     borderopacity="1"
     objecttolerance="10"
     gridtolerance="10"
     guidetolerance="10"
     inkscape:pageopacity="0"
     inkscape:pageshadow="2"
     inkscape:window-width="1366"
     inkscape:window-height="705"
     id="namedview4"
     showgrid="false"
     inkscape:zoom="1.2974205"
     inkscape:cx="157.50059"
     inkscape:cy="202.49683"
     inkscape:window-x="-8"
     inkscape:window-y="-8"
     inkscape:window-maximized="1"
     inkscape:current-layer="g10"
     fit-margin-top="2.88"
     fit-margin-left="3.56"
     fit-margin-right="3.56"
     fit-margin-bottom="2.87" /><g
     id="g10"
     inkscape:groupmode="layer"
     inkscape:label="2015-SCHEDULE"
     transform="matrix(1.25,0,0,-1.25,-531.60287,1028.831)"><g
       id="g394"
       transform="matrix(5,0,0,5,-2205.1312,-2644.2372)"><g
         id="g396"
         clip-path="url(#clipPath398)"><g
           id="g402"
           transform="translate(572.2253,653.1696)"><path
             d="m 0,0 -1.575,0 c 3.295,4.189 5.263,9.469 5.263,15.2 0,13.581 -11.049,24.63 -24.631,24.63 -13.581,0 -24.63,-11.049 -24.63,-24.63 0,-5.731 1.968,-11.011 5.263,-15.2 l -3.928,0 0,-23.958 6.958,0 0,0.133 c 0.013,-0.036 0.048,-0.133 0.048,-0.133 l 12.803,0 0,3.365 1.891,0 c 1.219,0 2.16,0.22 2.853,0.672 l 0,-0.519 c 0,-2.261 1.611,-3.611 4.309,-3.611 l 5.068,0 c 1.339,0 2.27,0.316 2.915,0.788 l 0,-0.695 10.415,0 0,5.347 -3.022,0 L 0,0 z m -7.393,-15.312 c -0.085,0.061 -0.175,0.119 -0.271,0.175 l 0.271,0 0,-0.175 z"
             style="fill:#233f63;fill-opacity:1;fill-rule:nonzero;stroke:none"
             id="path404"
             inkscape:connector-curvature="0" /></g><g
           id="g406"
           transform="translate(536.3116,668.3698)"><path
             d="m 0,0 c 0,8.255 6.716,14.971 14.971,14.971 8.255,0 14.971,-6.716 14.971,-14.971 0,-8.255 -6.716,-14.971 -14.971,-14.971 C 6.716,-14.971 0,-8.255 0,0"
             style="fill:#ffffff;fill-opacity:1;fill-rule:nonzero;stroke:none"
             id="path408"
             inkscape:connector-curvature="0" /></g><g
           id="g410"
           transform="translate(551.283,657.3035)"><path
             d="m 0,0 c 6.102,0 11.066,4.964 11.066,11.066 0,6.102 -4.964,11.066 -11.066,11.066 -0.139,0 -0.276,-0.005 -0.414,-0.01 C 5.236,21.957 9.782,17.298 9.782,11.591 9.782,5.781 5.07,1.054 -0.723,1.054 c -4.704,0 -8.695,3.117 -10.03,7.401 C -9.576,3.609 -5.203,0 0,0"
             style="fill:#b4b5a6;fill-opacity:1;fill-rule:nonzero;stroke:none"
             id="path412"
             inkscape:connector-curvature="0" /></g><g
           id="g414"
           transform="translate(534.0899,658.2266)"><path
             d="m 0,0 2.246,1.881 -0.479,0.84 -5.109,-2.915 0.447,-0.783 2.617,1.494 -2.362,-1.94 0.479,-0.841 L 2.948,0.652 2.504,1.429 0,0 z"
             style="fill:#ffffff;fill-opacity:1;fill-rule:nonzero;stroke:none"
             id="path416"
             inkscape:connector-curvature="0" /></g><g
           id="g418"
           transform="translate(535.3603,662.1884)"><path
             d="m 0,0 -1.115,-0.327 -0.144,0.392 1.06,0.474 -0.339,0.92 -5.299,-2.631 0.435,-1.18 5.736,1.444 L 0,0 z m -4.213,-1.243 2.073,0.931 0.109,-0.294 -2.182,-0.637 z"
             style="fill:#ffffff;fill-opacity:1;fill-rule:nonzero;stroke:none"
             id="path420"
             inkscape:connector-curvature="0" /></g><g
           id="g422"
           transform="translate(529.897,663.23)"><path
             d="M 0,0 4.802,1.032 4.585,2.043 -0.217,1.012 -0.329,1.532 -1.278,1.328 -0.838,-0.724 0.112,-0.52 0,0 z"
             style="fill:#ffffff;fill-opacity:1;fill-rule:nonzero;stroke:none"
             id="path424"
             inkscape:connector-curvature="0" /></g><g
           id="g426"
           transform="translate(534.2382,667.248)"><path
             d="m 0,0 -5.856,-0.555 0.098,-1.03 5.856,0.556 L 0,0 z"
             style="fill:#ffffff;fill-opacity:1;fill-rule:nonzero;stroke:none"
             id="path428"
             inkscape:connector-curvature="0" /></g><g
           id="g430"
           transform="translate(529.4803,667.9352)"><path
             d="M 0,0 3.512,-0.125 C 4.619,-0.165 4.748,0.001 4.785,1.022 4.821,2.067 4.682,2.218 3.596,2.256 L 0.085,2.381 C -1.008,2.42 -1.137,2.256 -1.173,1.228 -1.212,0.158 -1.064,0.038 0,0 M 0.085,1.341 3.522,1.218 C 3.588,1.215 3.625,1.214 3.639,1.214 3.755,1.21 3.818,1.153 3.814,1.056 3.81,0.935 3.715,0.909 3.513,0.915 L 0.073,1.038 C 0.03,1.04 0.016,1.041 -0.035,1.043 c -0.116,0.004 -0.179,0.054 -0.177,0.139 0.006,0.139 0.086,0.167 0.297,0.159"
             style="fill:#ffffff;fill-opacity:1;fill-rule:nonzero;stroke:none"
             id="path432"
             inkscape:connector-curvature="0" /></g><g
           id="g434"
           transform="translate(534.4991,671.493)"><path
             d="M 0,0 -2.825,0.576 0.104,0.509 0.297,1.458 -5.466,2.634 -5.646,1.751 -2.694,1.149 -5.749,1.248 -5.943,0.3 -0.179,-0.877 0,0 z"
             style="fill:#ffffff;fill-opacity:1;fill-rule:nonzero;stroke:none"
             id="path436"
             inkscape:connector-curvature="0" /></g><g
           id="g438"
           transform="translate(535.2396,674.2094)"><path
             d="m 0,0 -1.055,0.488 0.15,0.389 1.111,-0.34 0.35,0.915 -5.721,1.509 -0.45,-1.175 5.269,-2.69 L 0,0 z M -1.928,0.881 -3.989,1.838 -1.816,1.174 -1.928,0.881 z"
             style="fill:#ffffff;fill-opacity:1;fill-rule:nonzero;stroke:none"
             id="path440"
             inkscape:connector-curvature="0" /></g><g
           id="g442"
           transform="translate(536.7972,677.4462)"><path
             d="M 0,0 -0.835,0.466 -1.136,-0.073 -5.437,2.328 -5.941,1.425 -0.805,-1.442 0,0 z"
             style="fill:#ffffff;fill-opacity:1;fill-rule:nonzero;stroke:none"
             id="path444"
             inkscape:connector-curvature="0" /></g><g
           id="g446"
           transform="translate(537.3107,681.3083)"><path
             d="M 0,0 C 0.715,0.772 0.672,1.002 -0.089,1.706 L -1.168,2.705 C -1.933,3.414 -2.163,3.421 -2.874,2.654 L -3.68,1.784 0.636,-2.213 1.343,-1.449 -0.102,-0.111 0,0 z M -0.728,0.6 C -0.748,0.578 -0.774,0.561 -0.799,0.534 l -1.478,1.368 c 0.021,0.023 0.042,0.045 0.063,0.067 0.139,0.151 0.197,0.106 0.378,-0.061 0.015,-0.015 0.037,-0.035 0.052,-0.05 L -0.875,1.017 C -0.822,0.968 -0.779,0.928 -0.758,0.908 -0.63,0.79 -0.617,0.72 -0.728,0.6"
             style="fill:#ffffff;fill-opacity:1;fill-rule:nonzero;stroke:none"
             id="path448"
             inkscape:connector-curvature="0" /></g><g
           id="g450"
           transform="translate(539.6625,684.5867)"><path
             d="m 0,0 c 0.244,0.436 0.059,0.714 -0.343,1.236 l -0.372,0.482 c -0.638,0.826 -0.863,0.871 -1.691,0.231 l -0.939,-0.724 3.594,-4.656 0.824,0.636 -1.425,1.846 c 0.019,0.014 0.033,0.026 0.047,0.037 0.153,0.118 0.236,0.09 0.382,-0.099 l 1.235,-1.6 0.823,0.636 -1.168,1.514 C 0.626,-0.02 0.376,0.126 0,0 m -0.939,-0.03 c -0.025,-0.018 -0.053,-0.031 -0.082,-0.053 l -0.92,1.193 c 0.024,0.018 0.047,0.037 0.071,0.055 0.162,0.126 0.212,0.072 0.362,-0.123 0.014,-0.017 0.032,-0.04 0.045,-0.057 L -1.016,0.406 C -0.971,0.348 -0.937,0.302 -0.919,0.279 -0.813,0.142 -0.811,0.07 -0.939,-0.03"
             style="fill:#ffffff;fill-opacity:1;fill-rule:nonzero;stroke:none"
             id="path452"
             inkscape:connector-curvature="0" /></g><g
           id="g454"
           transform="translate(542.6647,684.2052)"><path
             d="m 0,0 -0.88,1.566 0.538,0.302 -0.469,0.834 -0.538,-0.303 -0.6,1.068 0.538,0.302 -0.465,0.827 -1.439,-0.809 2.882,-5.128 1.44,0.81 L 0.538,0.302 0,0 z"
             style="fill:#ffffff;fill-opacity:1;fill-rule:nonzero;stroke:none"
             id="path456"
             inkscape:connector-curvature="0" /></g><g
           id="g458"
           transform="translate(543.9872,690.1403)"><path
             d="m 0,0 0.655,-2.926 -1.334,2.686 -1.192,-0.421 1.961,-5.546 0.884,0.312 -1.13,3.197 1.501,-3.065 0.553,0.195 -0.759,3.327 1.13,-3.196 0.883,0.313 L 1.191,0.422 0,0 z"
             style="fill:#ffffff;fill-opacity:1;fill-rule:nonzero;stroke:none"
             id="path460"
             inkscape:connector-curvature="0" /></g><g
           id="g462"
           transform="translate(546.5743,690.8467)"><path
             d="M 0,0 1.076,-5.783 2.093,-5.594 1.017,0.189 0,0 z"
             style="fill:#ffffff;fill-opacity:1;fill-rule:nonzero;stroke:none"
             id="path464"
             inkscape:connector-curvature="0" /></g><g
           id="g466"
           transform="translate(550.1968,686.3708)"><path
             d="M 0,0 -0.13,1.792 0.485,1.837 0.417,2.79 -0.198,2.746 -0.287,3.967 0.329,4.011 0.26,4.958 -1.387,4.839 -0.963,-1.028 0.684,-0.909 0.615,0.044 0,0 z"
             style="fill:#ffffff;fill-opacity:1;fill-rule:nonzero;stroke:none"
             id="path468"
             inkscape:connector-curvature="0" /></g><g
           id="g470"
           transform="translate(553.0059,691.2631)"><path
             d="m 0,0 -1.182,0.088 -0.439,-5.866 1.038,-0.077 0.174,2.326 c 0.023,-0.002 0.042,-0.003 0.06,-0.005 0.192,-0.014 0.236,-0.09 0.218,-0.328 l -0.151,-2.016 1.038,-0.077 0.143,1.907 c 0.041,0.556 -0.048,0.832 -0.411,0.99 0.472,0.16 0.52,0.491 0.571,1.148 l 0.045,0.607 C 1.182,-0.263 1.044,-0.078 0,0 M 0.063,-1.276 C 0.061,-1.297 0.059,-1.327 0.057,-1.348 l -0.054,-0.73 c -0.007,-0.072 -0.01,-0.13 -0.012,-0.159 -0.013,-0.173 -0.06,-0.228 -0.222,-0.216 -0.031,0.003 -0.061,0.012 -0.097,0.015 l 0.113,1.503 c 0.03,-0.003 0.06,-0.005 0.09,-0.007 C 0.08,-0.958 0.08,-1.03 0.063,-1.276"
             style="fill:#ffffff;fill-opacity:1;fill-rule:nonzero;stroke:none"
             id="path472"
             inkscape:connector-curvature="0" /></g><g
           id="g474"
           transform="translate(558.5468,687.4121)"><path
             d="m 0,0 -0.473,0.598 c -0.129,0.166 -0.129,0.258 -0.061,0.457 l 0.181,0.528 c 0.058,0.172 0.116,0.266 0.23,0.227 C 0.009,1.765 0.004,1.675 -0.062,1.483 L -0.334,0.688 0.633,0.358 0.918,1.187 C 0.983,1.379 1.02,1.489 1.032,1.523 1.285,2.264 0.93,2.461 0.186,2.715 -0.781,3.046 -0.978,2.975 -1.326,1.953 L -1.549,1.302 C -1.712,0.822 -1.71,0.477 -1.461,0.155 l 0.508,-0.664 c 0.134,-0.168 0.129,-0.258 0.061,-0.457 l -0.284,-0.83 c -0.018,-0.054 -0.03,-0.089 -0.034,-0.102 -0.035,-0.103 -0.122,-0.151 -0.207,-0.121 -0.11,0.037 -0.121,0.133 -0.056,0.325 l 0.373,1.09 -0.985,0.336 -0.384,-1.124 c -0.355,-1.042 -0.21,-1.214 0.746,-1.541 0.526,-0.18 0.835,-0.269 1.074,-0.075 0.166,0.134 0.247,0.336 0.347,0.624 0.024,0.068 0.049,0.143 0.076,0.226 l 0.357,1.042 C 0.28,-0.677 0.287,-0.358 0,0"
             style="fill:#ffffff;fill-opacity:1;fill-rule:nonzero;stroke:none"
             id="path476"
             inkscape:connector-curvature="0" /></g><g
           id="g478"
           transform="translate(562.1998,688.6163)"><path
             d="m 0,0 c -0.942,0.507 -1.115,0.428 -1.62,-0.51 l -1.665,-3.094 c -0.526,-0.976 -0.434,-1.165 0.465,-1.649 0.922,-0.496 1.118,-0.437 1.633,0.52 l 1.665,3.094 C 0.996,-0.676 0.906,-0.487 0,0 m -0.455,-1.178 -1.631,-3.03 c -0.03,-0.058 -0.047,-0.09 -0.054,-0.102 -0.055,-0.102 -0.134,-0.134 -0.219,-0.088 -0.107,0.057 -0.089,0.154 0.007,0.333 l 1.631,3.03 c 0.021,0.039 0.027,0.051 0.051,0.096 0.056,0.102 0.128,0.137 0.202,0.096 0.124,-0.066 0.113,-0.15 0.013,-0.335"
             style="fill:#ffffff;fill-opacity:1;fill-rule:nonzero;stroke:none"
             id="path480"
             inkscape:connector-curvature="0" /></g><g
           id="g482"
           transform="translate(564.2321,683.1143)"><path
             d="m 0,0 -0.823,0.637 -0.78,-1.007 c -0.036,-0.046 -0.058,-0.075 -0.063,-0.081 -0.075,-0.097 -0.164,-0.121 -0.239,-0.061 -0.091,0.07 -0.062,0.167 0.062,0.327 L 0.265,2.534 C 0.377,2.677 0.448,2.76 0.548,2.682 0.658,2.596 0.633,2.515 0.505,2.349 L 0.025,1.731 0.847,1.094 1.349,1.74 C 2.024,2.611 1.961,2.806 1.148,3.436 0.302,4.092 0.123,4.048 -0.535,3.201 L -2.687,0.424 c -0.679,-0.876 -0.621,-1.078 0.187,-1.704 0.826,-0.641 1.031,-0.615 1.696,0.244 L 0,0 z"
             style="fill:#ffffff;fill-opacity:1;fill-rule:nonzero;stroke:none"
             id="path484"
             inkscape:connector-curvature="0" /></g><g
           id="g486"
           transform="translate(566.4738,680.7883)"><path
             d="M 0,0 -0.705,0.765 -1.642,-0.1 c -0.042,-0.04 -0.069,-0.064 -0.074,-0.069 -0.091,-0.084 -0.181,-0.093 -0.247,-0.022 -0.078,0.085 -0.033,0.175 0.116,0.312 L 0.682,2.456 C 0.814,2.579 0.898,2.648 0.984,2.555 1.078,2.453 1.041,2.376 0.886,2.234 L 0.312,1.703 1.017,0.939 1.619,1.494 C 2.427,2.241 2.399,2.445 1.7,3.2 0.974,3.986 0.789,3.972 0.002,3.245 L -2.579,0.861 c -0.814,-0.752 -0.79,-0.96 -0.097,-1.711 0.71,-0.768 0.915,-0.776 1.713,-0.039 L 0,0 z"
             style="fill:#ffffff;fill-opacity:1;fill-rule:nonzero;stroke:none"
             id="path488"
             inkscape:connector-curvature="0" /></g><g
           id="g490"
           transform="translate(566.6588,677.8482)"><path
             d="M 0,0 -0.348,0.509 1.135,1.523 1.484,1.014 2.273,1.553 1.926,2.063 2.936,2.753 3.283,2.244 4.067,2.78 3.135,4.143 -1.721,0.824 -0.789,-0.54 0,0 z"
             style="fill:#ffffff;fill-opacity:1;fill-rule:nonzero;stroke:none"
             id="path492"
             inkscape:connector-curvature="0" /></g><g
           id="g494"
           transform="translate(566.6024,675.9473)"><path
             d="M 0,0 2.097,1.022 C 2.108,1 2.115,0.984 2.123,0.967 2.208,0.793 2.164,0.718 1.95,0.613 l -1.818,-0.885 0.456,-0.935 1.72,0.838 C 2.809,-0.125 3.003,0.09 2.955,0.484 3.333,0.157 3.643,0.281 4.235,0.57 L 4.782,0.836 C 5.72,1.293 5.81,1.505 5.352,2.446 L 4.832,3.511 -0.456,0.935 0,0 z M 4.436,2.16 C 4.448,2.133 4.461,2.106 4.474,2.079 4.565,1.894 4.503,1.857 4.282,1.749 4.262,1.74 4.235,1.727 4.217,1.717 L 3.558,1.397 C 3.493,1.366 3.441,1.34 3.415,1.327 3.259,1.251 3.188,1.264 3.117,1.411 3.104,1.438 3.097,1.468 3.08,1.501 L 4.436,2.16 z"
             style="fill:#ffffff;fill-opacity:1;fill-rule:nonzero;stroke:none"
             id="path496"
             inkscape:connector-curvature="0" /></g><g
           id="g498"
           transform="translate(568.1666,671.1891)"><path
             d="M 0,0 0.934,0.205 0.801,0.807 5.614,1.86 5.392,2.871 -0.354,1.613 0,0 z"
             style="fill:#ffffff;fill-opacity:1;fill-rule:nonzero;stroke:none"
             id="path500"
             inkscape:connector-curvature="0" /></g><g
           id="g502"
           transform="translate(568.3847,669.0513)"><path
             d="M 0,0 0.952,0.084 0.898,0.699 2.687,0.857 2.742,0.243 3.695,0.327 3.639,0.942 4.86,1.05 4.913,0.435 5.86,0.519 5.714,2.164 -0.146,1.644 0,0 z"
             style="fill:#ffffff;fill-opacity:1;fill-rule:nonzero;stroke:none"
             id="path504"
             inkscape:connector-curvature="0" /></g><g
           id="g506"
           transform="translate(568.4213,668.6772)"><path
             d="M 0,0 -0.055,-0.966 1.098,-1.109 1.074,-1.526 -0.087,-1.539 -0.142,-2.518 5.766,-2.213 5.837,-0.957 0,0 z m 2.032,-1.531 0.017,0.314 2.256,-0.284 -2.273,-0.03 z"
             style="fill:#ffffff;fill-opacity:1;fill-rule:nonzero;stroke:none"
             id="path508"
             inkscape:connector-curvature="0" /></g><g
           id="g510"
           transform="translate(572.8163,664.8031)"><path
             d="m 0,0 -3.437,0.763 c -0.855,0.19 -1.215,0.171 -1.389,-0.609 -0.084,-0.378 -0.065,-0.599 0.243,-0.915 l -0.422,-0.098 -0.101,-0.449 2.95,-0.655 0.267,1.206 -0.927,0.205 -0.042,-0.189 -0.834,0.185 c -0.056,0.013 -0.084,0.019 -0.098,0.022 -0.121,0.027 -0.174,0.094 -0.152,0.188 0.025,0.113 0.117,0.129 0.315,0.085 l 3.366,-0.746 c 0.177,-0.04 0.29,-0.071 0.262,-0.195 -0.03,-0.136 -0.121,-0.146 -0.326,-0.101 l -0.764,0.17 -0.226,-1.016 0.799,-0.177 C 0.559,-2.565 0.709,-2.424 0.932,-1.421 1.162,-0.382 1.047,-0.232 0,0"
             style="fill:#ffffff;fill-opacity:1;fill-rule:nonzero;stroke:none"
             id="path512"
             inkscape:connector-curvature="0" /></g><g
           id="g514"
           transform="translate(567.0945,661.9855)"><path
             d="m 0,0 c -0.39,-0.971 -0.317,-1.157 0.685,-1.56 l 4.368,-1.758 0.387,0.965 -4.333,1.745 c -0.055,0.022 -0.088,0.035 -0.095,0.038 -0.114,0.046 -0.153,0.121 -0.118,0.21 0.044,0.107 0.137,0.108 0.326,0.032 L 5.554,-2.072 5.943,-1.108 1.574,0.651 C 0.553,1.062 0.382,0.948 0,0"
             style="fill:#ffffff;fill-opacity:1;fill-rule:nonzero;stroke:none"
             id="path516"
             inkscape:connector-curvature="0" /></g><g
           id="g518"
           transform="translate(565.616,659.009)"><path
             d="M 0,0 0.826,-0.483 1.137,0.05 2.688,-0.857 2.376,-1.389 3.202,-1.872 3.514,-1.339 4.57,-1.957 4.259,-2.49 5.078,-2.969 5.912,-1.543 0.832,1.425 0,0 z"
             style="fill:#ffffff;fill-opacity:1;fill-rule:nonzero;stroke:none"
             id="path520"
             inkscape:connector-curvature="0" /></g><g
           id="g522"
           transform="translate(540.496,643.2449)"><path
             d="m 0,0 -4.687,0 0,-4.256 C -5.19,-2.905 -6.274,0 -6.274,0 l -5.202,0 0,-13.001 4.892,0 0,4.957 c 0.531,-1.459 1.805,-4.957 1.805,-4.957 l 4.986,0 L 0.207,0 0,0 z"
             style="fill:#ffffff;fill-opacity:1;fill-rule:nonzero;stroke:none"
             id="path524"
             inkscape:connector-curvature="0" /></g><g
           id="g526"
           transform="translate(540.2895,642.8318)"><path
             d="m 0,0 0,-12.175 -4.283,0 c -0.095,0.26 -2.507,6.886 -2.507,6.886 l 0,-6.886 -4.066,0 0,12.175 4.502,0 c 0.095,-0.255 2.287,-6.132 2.287,-6.132 L -4.067,0 0,0 z"
             style="fill:#a92333;fill-opacity:1;fill-rule:nonzero;stroke:none"
             id="path528"
             inkscape:connector-curvature="0" /></g><g
           id="g530"
           transform="translate(549.6873,643.2449)"><path
             d="m 0,0 -8.045,0 -0.206,0 0,-13.001 5.327,0 0,3.365 2.924,0 c 2.422,0 3.323,0.879 3.323,3.243 l 0,3.473 C 3.323,-0.873 2.329,0 0,0 m -2.004,-5.679 c 0,-0.644 -0.188,-0.692 -0.475,-0.692 l -0.445,0 0,3.12 0.46,0 c 0.26,0 0.46,-0.052 0.46,-0.707 l 0,-1.721 z"
             style="fill:#ffffff;fill-opacity:1;fill-rule:nonzero;stroke:none"
             id="path532"
             inkscape:connector-curvature="0" /></g><g
           id="g534"
           transform="translate(556.849,643.3217)"><path
             d="m 0,0 c -2.112,0 -3.275,-0.91 -3.275,-2.563 l 0,-1.348 c 0,-1.567 0.748,-2.169 2.127,-2.733 l 3.411,-1.38 c 0.596,-0.244 0.708,-0.315 0.708,-1.096 0,-0.77 -0.239,-0.77 -0.414,-0.77 -0.177,0 -0.398,0 -0.398,0.693 l 0,1.09 -5.434,0 0,-2.485 c 0,-1.663 1.163,-2.578 3.275,-2.578 l 5.069,0 c 2.204,0 3.276,0.95 3.276,2.904 l 0,1.395 c 0,1.415 -0.244,2.338 -1.49,2.871 l -3.969,1.674 c -0.576,0.24 -0.758,0.332 -0.758,0.663 0,0.259 0.143,0.413 0.383,0.413 0.117,0 0.429,0 0.429,-0.645 l 0,-0.361 5.405,0 0,1.693 C 8.345,-0.91 7.181,0 5.069,0 L 0,0 z"
             style="fill:#ffffff;fill-opacity:1;fill-rule:nonzero;stroke:none"
             id="path536"
             inkscape:connector-curvature="0" /></g><g
           id="g538"
           transform="translate(560.2332,634.2021)"><path
             d="m 0,0 c 0,0.941 -0.217,1.172 -0.965,1.479 l -3.411,1.379 c -1.293,0.529 -1.87,0.993 -1.87,2.35 l 0,1.349 c 0,1.426 0.963,2.149 2.862,2.149 l 5.069,0 c 1.899,0 2.863,-0.723 2.863,-2.149 l 0,-1.281 -4.583,0 c -0.023,0.903 -0.59,1.007 -0.838,1.007 -0.469,0 -0.796,-0.34 -0.796,-0.826 0,-0.623 0.446,-0.809 1.012,-1.044 L 3.31,2.739 c 0.937,-0.4 1.238,-1.006 1.238,-2.49 l 0,-1.395 c 0,-1.723 -0.883,-2.491 -2.863,-2.491 l -5.069,0 c -1.899,0 -2.862,0.728 -2.862,2.164 l 0,2.073 4.608,0 0,-0.678 c 0,-0.273 0,-1.105 0.811,-1.105 C 0,-1.183 0,-0.323 0,0"
             style="fill:#a92333;fill-opacity:1;fill-rule:nonzero;stroke:none"
             id="path540"
             inkscape:connector-curvature="0" /></g><g
           id="g542"
           transform="translate(570.986,643.2449)"><path
             d="m 0,0 -5.121,0 0,-13.001 8.35,0 0,3.282 -3.022,0 L 0.207,0 0,0 z"
             style="fill:#ffffff;fill-opacity:1;fill-rule:nonzero;stroke:none"
             id="path544"
             inkscape:connector-curvature="0" /></g><g
           id="g546"
           transform="translate(570.7795,642.8318)"><path
             d="m 0,0 0,-9.719 3.022,0 0,-2.456 -7.523,0 L -4.501,0 0,0 z"
             style="fill:#a92333;fill-opacity:1;fill-rule:nonzero;stroke:none"
             id="path548"
             inkscape:connector-curvature="0" /></g><g
           id="g550"
           transform="translate(549.6873,642.8318)"><path
             d="m 0,0 -7.838,0 0,-12.175 4.501,0 0,3.365 3.337,0 c 2.203,0 2.91,0.688 2.91,2.83 l 0,3.473 C 2.91,-0.703 2.094,0 0,0 m -1.591,-5.266 c 0,-0.514 -0.101,-1.105 -0.888,-1.105 l -0.858,0 0,3.947 0.207,0 0.666,0 c 0.783,0 0.873,-0.64 0.873,-1.121 l 0,-1.721 z"
             style="fill:#a92333;fill-opacity:1;fill-rule:nonzero;stroke:none"
             id="path552"
             inkscape:connector-curvature="0" /></g><g
           id="g554"
           transform="translate(551.2825,681.1094)"><path
             d="m 0,0 c -7.036,0 -12.739,-5.704 -12.739,-12.74 0,-7.035 5.703,-12.739 12.739,-12.739 7.036,0 12.74,5.704 12.74,12.739 C 12.74,-5.704 7.036,0 0,0 m -3.2,-14.795 3.674,3.844 5.333,-1.403 1.002,-4.587 c -0.596,-0.338 -3.359,-3.321 -3.83,-3.832 -2.879,0.203 -4.554,0.869 -4.941,1.039 0.058,0.813 -0.896,4.162 -1.238,4.939 m -7.866,2.055 c 0,1.384 0.258,2.709 0.724,3.931 l 1.323,0.033 c 0.064,-0.479 0.323,-2.405 0.665,-4.533 l 0.003,-0.018 c -0.634,-0.439 -1.341,-3.11 -1.492,-3.712 -0.148,0.049 -0.285,0.1 -0.413,0.15 -0.521,1.282 -0.81,2.682 -0.81,4.149 m 2.298,4.05 4.124,4.001 4.263,-0.744 0.677,-5.328 -3.658,-3.828 c -0.607,0.339 -3.891,1.243 -4.734,1.312 l -0.002,0.01 c -0.356,2.22 -0.622,4.216 -0.67,4.577 M 9.59,-17.2 c -1.046,0.212 -2.023,0.394 -2.531,0.331 l -1.004,4.597 2.402,3.928 1.841,-0.352 c 0.494,-1.253 0.768,-2.617 0.768,-4.044 0,-1.622 -0.353,-3.162 -0.983,-4.552 L 9.59,-17.2 z m 0.593,8.79 -1.716,0.328 -3.568,4.799 0.081,0.421 C 7.302,-4.037 9.157,-6.005 10.183,-8.41 M 0.001,-1.674 c 1.694,0 3.3,-0.384 4.737,-1.067 l -0.091,-0.48 -4.889,-1.973 -4.316,0.754 -0.018,1.772 c 1.396,0.637 2.945,0.994 4.577,0.994 M -10.115,-17.22 c 0.097,-0.034 0.198,-0.069 0.305,-0.103 0.004,-0.006 0.007,-0.011 0.007,-0.011 0.7,-1.06 2.442,-3.548 3.708,-4.121 0.013,-0.107 0.042,-0.321 0.09,-0.573 -1.795,1.165 -3.233,2.835 -4.11,4.808 m 4.417,-5.002 c -0.068,0.299 -0.11,0.581 -0.131,0.738 0.749,0.13 3.212,1.126 3.741,1.521 0.363,-0.165 2.031,-0.851 5.017,-1.066 0.035,-0.13 0.447,-1.669 0.589,-2.2 -1.106,-0.372 -2.288,-0.577 -3.517,-0.577 -2.083,0 -4.033,0.579 -5.699,1.584"
             style="fill:#233f63;fill-opacity:1;fill-rule:nonzero;stroke:none"
             id="path556"
             inkscape:connector-curvature="0" /></g><g
           id="g558"
           transform="translate(551.2825,682.0527)"><path
             d="m 0,0 c -7.545,0 -13.683,-6.138 -13.683,-13.683 0,-7.545 6.138,-13.683 13.683,-13.683 7.545,0 13.683,6.138 13.683,13.683 C 13.683,-6.138 7.545,0 0,0 m 0,-26.422 c -7.036,0 -12.739,5.703 -12.739,12.739 0,7.036 5.703,12.74 12.739,12.74 7.036,0 12.74,-5.704 12.74,-12.74 0,-7.036 -5.704,-12.739 -12.74,-12.739"
             style="fill:#a92333;fill-opacity:1;fill-rule:nonzero;stroke:none"
             id="path560"
             inkscape:connector-curvature="0" /></g><g
           id="g562"
           transform="translate(535.393,644.465)"><path
             d="m 0,0 1.021,3.139 -2.675,1.941 3.307,0 1.022,3.139 1.022,-3.139 3.307,0 L 4.329,3.139 5.351,0 2.675,1.94 0,0 z"
             style="fill:#ffffff;fill-opacity:1;fill-rule:nonzero;stroke:none"
             id="path564"
             inkscape:connector-curvature="0" /></g><g
           id="g566"
           transform="translate(544.2028,644.465)"><path
             d="m 0,0 1.021,3.139 -2.675,1.941 3.307,0 1.022,3.139 1.022,-3.139 3.307,0 L 4.329,3.139 5.351,0 2.675,1.94 0,0 z"
             style="fill:#ffffff;fill-opacity:1;fill-rule:nonzero;stroke:none"
             id="path568"
             inkscape:connector-curvature="0" /></g><g
           id="g570"
           transform="translate(553.0127,644.465)"><path
             d="m 0,0 1.021,3.139 -2.675,1.941 3.307,0 1.022,3.139 1.022,-3.139 3.307,0 L 4.329,3.139 5.351,0 2.675,1.94 0,0 z"
             style="fill:#ffffff;fill-opacity:1;fill-rule:nonzero;stroke:none"
             id="path572"
             inkscape:connector-curvature="0" /></g><g
           id="g574"
           transform="translate(561.8225,644.465)"><path
             d="m 0,0 1.021,3.139 -2.675,1.941 3.307,0 1.022,3.139 1.022,-3.139 3.307,0 L 4.329,3.139 5.351,0 2.675,1.94 0,0 z"
             style="fill:#ffffff;fill-opacity:1;fill-rule:nonzero;stroke:none"
             id="path576"
             inkscape:connector-curvature="0" /></g></g></g></g></svg>