<?xml version="1.0" encoding="UTF-8" standalone="no"?>
<!-- Generator: Adobe Illustrator 16.0.0, SVG Export Plug-In . SVG Version: 6.00 Build 0)  -->

<svg
   xmlns:dc="http://purl.org/dc/elements/1.1/"
   xmlns:cc="http://creativecommons.org/ns#"
   xmlns:rdf="http://www.w3.org/1999/02/22-rdf-syntax-ns#"
   xmlns:svg="http://www.w3.org/2000/svg"
   xmlns="http://www.w3.org/2000/svg"
   xmlns:xlink="http://www.w3.org/1999/xlink"
   xmlns:sodipodi="http://sodipodi.sourceforge.net/DTD/sodipodi-0.dtd"
   xmlns:inkscape="http://www.inkscape.org/namespaces/inkscape"
   version="1.1"
   id="Layer_1"
   x="0px"
   y="0px"
   width="500px"
   height="500px"
   viewBox="0 0 500 500"
   enable-background="new 0 0 500 500"
   xml:space="preserve"
   sodipodi:docname="ATL2.svg"
   inkscape:version="0.92.1 r15371"><metadata
     id="metadata75"><rdf:RDF><cc:Work
         rdf:about=""><dc:format>image/svg+xml</dc:format><dc:type
           rdf:resource="http://purl.org/dc/dcmitype/StillImage" /><dc:title></dc:title></cc:Work></rdf:RDF></metadata><defs
     id="defs73" /><sodipodi:namedview
     pagecolor="#ffffff"
     bordercolor="#666666"
     borderopacity="1"
     objecttolerance="10"
     gridtolerance="10"
     guidetolerance="10"
     inkscape:pageopacity="0"
     inkscape:pageshadow="2"
     inkscape:window-width="1080"
     inkscape:window-height="1866"
     id="namedview71"
     showgrid="false"
     inkscape:zoom="0.472"
     inkscape:cx="254.23729"
     inkscape:cy="250"
     inkscape:window-x="0"
     inkscape:window-y="25"
     inkscape:window-maximized="1"
     inkscape:current-layer="Layer_1" /><g
     id="g6"><path
       fill="#231F20"
       d="M500,250.001C500,388.07,388.07,500,250,500S0,388.07,0,250.001C0,111.93,111.93,0,250,0   S500,111.93,500,250.001"
       id="path2" /><path
       fill="#A29061"
       d="M250.002,494.412c-65.226,0-126.547-25.4-172.67-71.521C31.21,376.77,5.809,315.447,5.809,250.223   c0-65.226,25.401-126.547,71.522-172.669c46.123-46.12,107.445-71.521,172.67-71.521c65.227,0,126.549,25.4,172.67,71.521   c46.119,46.121,71.521,107.442,71.521,172.668c0,65.225-25.402,126.547-71.521,172.668   C376.551,469.012,315.229,494.412,250.002,494.412 M250.002,12.034c-131.339,0-238.192,106.852-238.192,238.189   c0,131.338,106.853,238.189,238.192,238.189c131.338,0,238.189-106.852,238.189-238.189   C488.191,118.885,381.34,12.034,250.002,12.034"
       id="path4" /></g><g
     id="g20"><defs
       id="defs9"><path
         id="SVGID_1_"
         d="M86.181,250c0,90.475,73.345,163.82,163.819,163.82c90.477,0,163.821-73.346,163.821-163.82    c0-90.474-73.344-163.819-163.821-163.819C159.525,86.181,86.181,159.526,86.181,250" /></defs><clipPath
       id="SVGID_2_"><use
         xlink:href="#SVGID_1_"
         overflow="visible"
         id="use11" /></clipPath><rect
       x="211.302"
       y="84.421"
       clip-path="url(#SVGID_2_)"
       fill="#80000B"
       width="76.743"
       height="331.146"
       id="rect14" /><rect
       x="82.532"
       y="116.887"
       clip-path="url(#SVGID_2_)"
       fill="#80000B"
       width="64.11"
       height="266.214"
       id="rect16" /><rect
       x="352.707"
       y="116.887"
       clip-path="url(#SVGID_2_)"
       fill="#80000B"
       width="64.109"
       height="266.214"
       id="rect18" /></g><g
     id="g68"
     transform="translate(-1.8160017,-14.469017)"><path
       d="m 298.283,158.104 15.92,-31.946 h -128.66 l 15.925,31.954 -68.695,203.718 62.352,40.881 12.978,-37.023 h 84.245 l 11.945,36.752 63.189,-40.729 z m -65.562,134.953 17.237,-51.761 17.77,51.761 z"
       id="path22"
       inkscape:connector-curvature="0"
       style="fill:#231f20" /><path
       d="m 291.824,157.664 12.783,-25.573 H 195.149 l 12.774,25.572 -69.788,206.963 24.073,22.494 12.496,5.889 15.129,6.742 14.033,-40.037 h 92.821 l 13.51,41.568 25.508,-13.654 26.768,-22.096 z m -67.385,141.373 25.433,-76.393 26.222,76.398 z"
       id="path24"
       inkscape:connector-curvature="0"
       style="fill:#a29061" /><polygon
       points="182.1,329.416 250,131.955 317.9,329.416 276.094,299.043 249.872,222.645 224.439,299.037 "
       id="polygon26"
       style="fill:#817244" /><polygon
       points="182.1,329.418 317.9,329.418 335.396,380.295 308.459,395.936 296.686,359.715 203.867,359.715 191.227,395.777 164.186,381.512 "
       id="polygon28"
       style="fill:#817244" /><path
       d="M 250.004,415.836 C 158.561,415.836 84.167,341.441 84.167,250 c 0,-91.439 74.395,-165.83 165.837,-165.83 91.439,0 165.83,74.391 165.83,165.83 0,91.441 -74.391,165.836 -165.83,165.836 m 0,-324.923 C 162.28,90.913 90.91,162.28 90.91,250 c 0,87.723 71.37,159.092 159.094,159.092 87.721,0 159.086,-71.369 159.086,-159.092 0,-87.72 -71.365,-159.087 -159.086,-159.087"
       id="path30"
       inkscape:connector-curvature="0"
       style="fill:#a29061" /><path
       d="M 250.002,409.848 C 161.86,409.848 90.151,338.141 90.151,250 c 0,-88.14 71.708,-159.847 159.851,-159.847 88.141,0 159.848,71.707 159.848,159.847 0,88.141 -71.707,159.848 -159.848,159.848 m 0,-313.725 c -84.85,0 -153.881,69.029 -153.881,153.877 0,84.85 69.031,153.879 153.881,153.879 84.85,0 153.879,-69.029 153.879,-153.879 0,-84.848 -69.029,-153.877 -153.879,-153.877"
       id="path32"
       inkscape:connector-curvature="0"
       style="fill:#817244" /><path
       d="m 257.361,30.621 c 0.455,-1.445 0.904,-2.882 1.355,-4.32 -5.785,-0.304 -11.581,-0.319 -17.365,-0.055 0.442,1.44 0.886,2.88 1.328,4.328 -4.121,13.477 -8.236,27.089 -12.338,40.844 3.431,-0.367 6.868,-0.638 10.312,-0.804 0.636,-2.265 1.267,-4.526 1.903,-6.788 4.894,-0.182 9.792,-0.169 14.687,0.048 0.629,2.262 1.26,4.531 1.889,6.799 3.443,0.187 6.879,0.482 10.307,0.87 -4.017,-13.784 -8.044,-27.422 -12.078,-40.922 m -7.362,6.849 c 1.566,5.679 3.13,11.378 4.697,17.1 -3.172,-0.095 -6.351,-0.105 -9.527,-0.032 1.609,-5.711 3.218,-11.401 4.83,-17.068"
       id="path34"
       inkscape:connector-curvature="0"
       style="fill:#a39161" /><path
       d="m 364.656,111.459 c 2.662,2.192 5.262,4.459 7.793,6.801 2.07,-1.127 4.133,-2.25 6.197,-3.373 3.561,3.361 6.98,6.87 10.25,10.516 -1.182,2.027 -2.363,4.059 -3.547,6.088 2.271,2.589 4.473,5.248 6.596,7.964 7.023,-12.517 13.939,-24.944 20.75,-37.276 1.346,-0.689 2.695,-1.375 4.037,-2.06 -3.244,-3.668 -6.637,-7.202 -10.168,-10.593 -13.853,7.187 -27.822,14.495 -41.908,21.933 m 22.448,-1.218 c 5.199,-2.855 10.381,-5.695 15.547,-8.521 -2.949,5.1 -5.918,10.212 -8.896,15.343 -2.155,-2.333 -4.374,-4.608 -6.651,-6.822"
       id="path36"
       inkscape:connector-curvature="0"
       style="fill:#a39161" /><path
       d="m 351.799,50.293 c -1.588,2.629 -3.174,5.258 -4.76,7.887 3.264,1.691 6.496,3.452 9.678,5.29 -6.049,10.032 -12.102,20.058 -18.152,30.086 2.766,1.59 5.488,3.237 8.184,4.937 6.053,-10.027 12.102,-20.055 18.15,-30.085 2.713,1.71 5.395,3.479 8.039,5.291 2.361,-2.093 4.717,-4.186 7.072,-6.276 -9.006,-6.34 -18.432,-12.063 -28.211,-17.13"
       id="path38"
       inkscape:connector-curvature="0"
       style="fill:#a39161" /><path
       d="m 320.135,37.083 c -2.477,8.344 -4.945,16.69 -7.42,25.03 -1.73,-9.774 -3.514,-19.393 -5.338,-28.848 -3.408,-0.886 -6.844,-1.666 -10.301,-2.349 0.023,1.493 0.045,2.98 0.07,4.472 -3.787,12.769 -7.57,25.538 -11.359,38.311 3.125,0.638 6.232,1.362 9.318,2.167 2.471,-8.342 4.947,-16.691 7.422,-25.033 1.818,9.466 3.602,19.091 5.328,28.877 2.906,0.999 5.787,2.07 8.641,3.221 l 12.605,-42.518 c -2.958,-1.193 -5.951,-2.303 -8.966,-3.33"
       id="path40"
       inkscape:connector-curvature="0"
       style="fill:#a39161" /><path
       d="m 94.286,89.53 c -3.533,3.387 -6.928,6.921 -10.169,10.589 1.341,0.686 2.687,1.372 4.032,2.057 6.815,12.332 13.729,24.763 20.755,37.28 2.125,-2.72 4.324,-5.375 6.597,-7.964 -1.186,-2.035 -2.37,-4.063 -3.552,-6.088 3.271,-3.647 6.695,-7.155 10.25,-10.517 2.068,1.123 4.132,2.246 6.203,3.373 2.53,-2.341 5.125,-4.605 7.792,-6.799 -14.087,-7.44 -28.056,-14.747 -41.908,-21.931 m 12.809,27.534 c -2.983,-5.131 -5.947,-10.247 -8.901,-15.343 5.17,2.821 10.352,5.666 15.552,8.521 -2.279,2.216 -4.496,4.488 -6.651,6.822"
       id="path42"
       inkscape:connector-curvature="0"
       style="fill:#a39161" /><path
       d="m 149.05,50.293 c 1.586,2.629 3.172,5.258 4.759,7.887 -3.264,1.691 -6.495,3.452 -9.678,5.29 6.05,10.032 12.102,20.058 18.152,30.086 -2.765,1.59 -5.488,3.237 -8.183,4.937 -6.053,-10.027 -12.102,-20.055 -18.151,-30.085 -2.713,1.71 -5.394,3.479 -8.038,5.291 -2.362,-2.093 -4.718,-4.186 -7.073,-6.276 9.007,-6.34 18.433,-12.063 28.212,-17.13"
       id="path44"
       inkscape:connector-curvature="0"
       style="fill:#a39161" /><path
       d="m 193.953,69.776 c -3.219,-11.26 -6.443,-22.52 -9.662,-33.779 -3.042,0.947 -6.064,1.968 -9.058,3.059 4.065,14.211 8.132,28.424 12.197,42.633 8.076,-2.938 16.328,-5.364 24.711,-7.256 0.073,-3.158 0.149,-6.309 0.223,-9.456 -6.211,1.309 -12.355,2.91 -18.411,4.799"
       id="path46"
       inkscape:connector-curvature="0"
       style="fill:#a39161" /><path
       d="m 181.311,415.576 c -2.92,-1.27 -5.819,-2.582 -8.7,-3.943 -6.097,13.471 -12.197,26.932 -18.294,40.4 2.882,1.357 5.784,2.67 8.701,3.936 6.096,-13.461 12.196,-26.928 18.293,-40.393"
       id="path48"
       inkscape:connector-curvature="0"
       style="fill:#a39161" /><path
       d="m 225.303,427.646 c -0.692,2.99 -1.385,5.979 -2.078,8.975 -3.646,-0.523 -7.271,-1.15 -10.873,-1.885 -2.643,11.408 -5.29,22.816 -7.934,34.227 -3.122,-0.639 -6.229,-1.361 -9.314,-2.158 2.644,-11.408 5.288,-22.818 7.935,-34.229 -3.56,-0.922 -7.092,-1.953 -10.593,-3.092 0.689,-2.988 1.385,-5.98 2.079,-8.973 10.035,3.264 20.332,5.651 30.778,7.135"
       id="path50"
       inkscape:connector-curvature="0"
       style="fill:#a39161" /><path
       d="m 249.551,455.66 c 4.988,0.029 9.98,-0.145 14.957,-0.523 -0.061,-3.072 -0.125,-6.143 -0.186,-9.213 -4.977,0.385 -9.965,0.559 -14.957,0.527 -0.051,-2.598 -0.103,-5.197 -0.156,-7.801 6.343,0.035 12.687,-0.256 19.003,-0.883 -0.996,-2.979 -1.994,-5.961 -2.994,-8.951 -8.564,0.715 -17.169,0.82 -25.753,0.32 0.299,14.779 0.598,29.555 0.894,44.336 8.587,0.5 17.188,0.395 25.756,-0.32 0.877,-3.146 1.748,-6.301 2.623,-9.463 -6.318,0.623 -12.664,0.92 -19.007,0.877 -0.06,-2.966 -0.121,-5.937 -0.18,-8.906"
       id="path52"
       inkscape:connector-curvature="0"
       style="fill:#a39161" /><path
       d="m 317.064,428.723 c -1.689,-6.055 -7.848,-9.131 -13.861,-7.289 -6.668,2.049 -13.447,3.723 -20.309,5.018 0.834,1.328 1.666,2.65 2.502,3.971 3.588,12.828 7.172,25.656 10.764,38.484 6.406,-1.256 12.744,-2.846 18.986,-4.764 6.012,-1.844 9.418,-8.611 7.725,-14.654 -1.93,-6.921 -3.867,-13.843 -5.807,-20.766 m -3.228,23.896 c 0.326,1.16 -0.342,2.4 -1.498,2.75 -3.084,0.945 -6.195,1.807 -9.328,2.586 -2.33,-8.32 -4.652,-16.641 -6.98,-24.963 3.131,-0.785 6.242,-1.648 9.326,-2.59 1.156,-0.35 2.352,0.293 2.674,1.453 1.939,6.92 3.87,13.846 5.806,20.764"
       id="path54"
       inkscape:connector-curvature="0"
       style="fill:#a39161" /><path
       d="m 148.458,397.57 c -5.196,6.982 -10.392,13.961 -15.588,20.947 1.545,-9.506 3.179,-19.143 4.911,-28.904 -2.392,-1.926 -4.744,-3.908 -7.041,-5.951 -8.828,11.857 -17.652,23.719 -26.473,35.578 2.386,2.119 4.821,4.172 7.312,6.164 5.195,-6.984 10.391,-13.969 15.587,-20.947 -1.728,9.754 -3.358,19.385 -4.897,28.883 2.531,1.744 5.104,3.424 7.724,5.043 8.823,-11.861 17.644,-23.719 26.468,-35.58 -2.713,-1.674 -5.382,-3.422 -8.003,-5.233"
       id="path56"
       inkscape:connector-curvature="0"
       style="fill:#a39161" /><path
       d="m 112.486,364.604 c -8.887,6.887 -17.775,13.771 -26.661,20.656 -0.952,0.736 -2.356,0.588 -3.119,-0.348 -1.582,-1.936 -3.121,-3.904 -4.616,-5.91 -0.722,-0.967 -0.521,-2.355 0.431,-3.092 8.886,-6.887 17.775,-13.771 26.662,-20.658 -2.137,-2.939 -4.179,-5.951 -6.13,-9.023 -0.915,1.273 -1.832,2.547 -2.742,3.818 -7.729,5.986 -15.463,11.979 -23.198,17.969 -4.963,3.848 -6.265,11.311 -2.508,16.354 1.626,2.191 3.307,4.34 5.036,6.447 3.985,4.871 11.569,5.443 16.528,1.602 8.89,-6.889 17.776,-13.773 26.666,-20.658 -2.184,-2.329 -4.3,-4.714 -6.349,-7.157"
       id="path58"
       inkscape:connector-curvature="0"
       style="fill:#a39161" /><path
       d="m 364.525,400.152 c 5.057,-3.828 9.93,-7.906 14.584,-12.223 -2.596,-1.77 -5.189,-3.541 -7.791,-5.324 -6.727,6.049 -13.871,11.611 -21.383,16.646 1.275,0.896 2.553,1.793 3.828,2.686 8.26,10.451 16.52,20.902 24.781,31.354 2.635,-1.795 5.225,-3.652 7.768,-5.572 -3.744,-4.742 -7.49,-9.48 -11.238,-14.221 3.979,-3.008 7.84,-6.174 11.574,-9.488 -1.904,-2.41 -3.807,-4.816 -5.711,-7.227 -3.734,3.318 -7.596,6.479 -11.574,9.49 -1.611,-2.041 -3.226,-4.082 -4.838,-6.121"
       id="path60"
       inkscape:connector-curvature="0"
       style="fill:#a39161" /><path
       d="m 410.988,352.014 c -5.01,-3.797 -11.881,-2.598 -15.594,2.471 -1.607,2.199 -3.256,4.373 -4.938,6.518 -3.877,4.951 -3.17,11.887 1.84,15.686 6.139,4.648 12.283,9.301 18.422,13.955 5.004,3.793 12.445,3.021 16.318,-1.926 1.682,-2.145 3.324,-4.318 4.938,-6.516 3.715,-5.072 2.438,-12.441 -2.561,-16.23 -0.959,-0.725 -1.918,-1.451 -2.877,-2.176 -1.758,2.654 -3.572,5.275 -5.434,7.861 0.955,0.725 1.914,1.449 2.875,2.176 0.957,0.727 1.17,2.111 0.449,3.082 -1.475,2.012 -2.984,4.002 -4.523,5.973 -0.744,0.947 -2.129,1.123 -3.088,0.396 -6.141,-4.652 -12.281,-9.307 -18.422,-13.957 -0.961,-0.727 -1.131,-2.084 -0.387,-3.031 1.539,-1.965 3.045,-3.959 4.525,-5.971 0.711,-0.971 2.061,-1.18 3.02,-0.451 0.662,0.5 1.326,1.008 1.99,1.508 1.863,-2.582 3.672,-5.205 5.436,-7.859 -0.661,-0.507 -1.325,-1.005 -1.989,-1.509"
       id="path62"
       inkscape:connector-curvature="0"
       style="fill:#a39161" /><path
       d="m 416.795,141.534 c 21.029,32.293 32.127,69.725 32.127,108.469 0,31.05 -6.955,60.8 -20.672,88.417 l 5.449,2.713 c 14.139,-28.471 21.307,-59.133 21.307,-91.13 0,-41.055 -12.094,-80.684 -34.973,-114.602 z"
       id="path64"
       inkscape:connector-curvature="0"
       style="fill:#a39161" /><path
       d="M 83.088,141.534 C 62.057,173.827 50.96,211.259 50.96,250.003 c 0,31.05 6.955,60.8 20.671,88.417 l -5.448,2.713 C 52.045,312.662 44.877,282 44.877,250.003 c 0,-41.055 12.092,-80.684 34.972,-114.602 z"
       id="path66"
       inkscape:connector-curvature="0"
       style="fill:#a39161" /></g><text
     xml:space="preserve"
     style="font-style:normal;font-variant:normal;font-weight:normal;font-stretch:normal;font-size:192px;line-height:125%;font-family:Ubuntu;-inkscape-font-specification:Ubuntu;letter-spacing:0px;word-spacing:0px;fill:#80000b;fill-opacity:1;stroke:#a29061;stroke-width:5;stroke-linecap:butt;stroke-linejoin:miter;stroke-miterlimit:4;stroke-dasharray:none;stroke-opacity:1"
     x="411.01697"
     y="504.2373"
     id="text4554"><tspan
       sodipodi:role="line"
       id="tspan4552"
       x="411.01697"
       y="504.2373">2</tspan></text>
</svg>