<?xml version="1.0" encoding="UTF-8" standalone="no"?>
<!-- Created with Inkscape (http://www.inkscape.org/) -->

<svg
   xmlns:dc="http://purl.org/dc/elements/1.1/"
   xmlns:cc="http://creativecommons.org/ns#"
   xmlns:rdf="http://www.w3.org/1999/02/22-rdf-syntax-ns#"
   xmlns:svg="http://www.w3.org/2000/svg"
   xmlns="http://www.w3.org/2000/svg"
   xmlns:sodipodi="http://sodipodi.sourceforge.net/DTD/sodipodi-0.dtd"
   xmlns:inkscape="http://www.inkscape.org/namespaces/inkscape"
   width="93.099937mm"
   height="112.88889mm"
   viewBox="0 0 329.88167 399.99999"
   id="svg2"
   version="1.1"
   inkscape:version="0.91 r13725"
   sodipodi:docname="North_American_Soccer_League_(NASL).svg">
  <defs
     id="defs4" />
  <sodipodi:namedview
     id="base"
     pagecolor="#ffffff"
     bordercolor="#666666"
     borderopacity="1.0"
     inkscape:pageopacity="0.0"
     inkscape:pageshadow="2"
     inkscape:zoom="0.35"
     inkscape:cx="250"
     inkscape:cy="303.13899"
     inkscape:document-units="px"
     inkscape:current-layer="layer1"
     showgrid="false"
     fit-margin-top="0"
     fit-margin-left="0"
     fit-margin-right="0"
     fit-margin-bottom="0"
     inkscape:window-width="1366"
     inkscape:window-height="705"
     inkscape:window-x="-8"
     inkscape:window-y="-8"
     inkscape:window-maximized="1" />
  <metadata
     id="metadata7">
    <rdf:RDF>
      <cc:Work
         rdf:about="">
        <dc:format>image/svg+xml</dc:format>
        <dc:type
           rdf:resource="http://purl.org/dc/dcmitype/StillImage" />
        <dc:title></dc:title>
      </cc:Work>
    </rdf:RDF>
  </metadata>
  <g
     inkscape:label="Layer 1"
     inkscape:groupmode="layer"
     id="layer1"
     transform="translate(312.14286,-435.5012)">
    <g
       id="g3397"
       transform="matrix(0.65976334,0,0,0.65976334,-312.14286,435.5012)">
      <path
         id="path3337"
         d="M 0,0 0,356.285 C 0,494.127 112.147,606.278 249.995,606.278 387.849,606.277 500,494.126 500,356.285 L 500,0 0,0 Z"
         inkscape:connector-curvature="0"
         style="fill:#d8d9da" />
      <path
         id="path3339"
         d="M 249.995,596.94 C 117.296,596.94 9.334,488.985 9.334,356.284 l 0,-346.947 481.332,0 0,346.948 c 0,132.7 -107.97,240.655 -240.671,240.655 z"
         inkscape:connector-curvature="0"
         style="fill:#002d62" />
      <path
         id="path3341"
         d="m 475.784,356.285 c 0,124.486 -101.288,225.776 -225.789,225.776 -124.494,0 -225.778,-101.291 -225.778,-225.776 l 0,-332.069 451.567,0 0,332.069 z"
         inkscape:connector-curvature="0"
         style="fill:#005cab" />
      <path
         id="path3343"
         d="m 456.341,43.655 -412.686,0 0,312.629 c 0,113.773 92.563,206.337 206.339,206.337 113.785,0 206.346,-92.564 206.346,-206.337 l 0,-312.629 z"
         inkscape:connector-curvature="0"
         style="fill:#ffffff" />
      <path
         id="path3345"
         d="m 376.409,290.882 c 9.752,-4.586 20.082,-9.054 22.822,-10.234 0.798,-8.53 -0.122,-19.082 -1.316,-27.905 -9.897,-14.075 -21.741,-26.674 -35.157,-37.401 10.551,15.579 16.597,33.549 16.597,52.707 -0.001,7.84 -1.027,15.472 -2.946,22.833 z"
         inkscape:connector-curvature="0"
         style="fill:#d8d9da" />
      <path
         id="path3347"
         d="m 320.393,519.391 c -8.571,-8.075 -16.449,-18.104 -16.525,-18.208 -0.358,-0.459 -0.358,-1.095 -0.016,-1.559 0.349,-0.463 0.982,-0.637 1.501,-0.431 8.799,3.523 17.699,5.874 23.583,7.223 18.24,-7.185 38.167,-16.762 48.759,-21.995 32.413,-32.365 52.565,-76.979 53,-126.298 -4.133,10.628 -9.135,21.712 -11.701,27.287 -4.491,31.166 -18.399,54.11 -18.568,54.378 -0.235,0.395 -0.662,0.615 -1.089,0.615 -0.184,0 -0.349,-0.038 -0.519,-0.111 -0.585,-0.253 -0.889,-0.905 -0.721,-1.519 5.45,-19.652 6.925,-41.886 7.252,-56.39 -12.139,-8.098 -26.003,-15.909 -26.187,-16.012 -0.386,-0.216 -0.633,-0.621 -0.655,-1.069 -0.981,-22.779 -5.292,-48.024 -7.413,-59.388 -14.761,32.607 -47.999,57.695 -89.116,66.4 18.645,11.437 32.979,22.759 40.654,29.221 9.135,-4.038 23.797,-11.647 43.078,-25.364 0.49,-0.35 1.151,-0.309 1.6,0.082 0.441,0.393 0.555,1.044 0.283,1.573 -0.474,0.872 -10.698,19.45 -42.228,43.038 -5.527,17.081 -16.632,48.05 -31.038,71.092 -0.184,0.294 -0.485,0.493 -0.82,0.563 -9.296,1.75 -25.565,2.802 -43.513,2.82 -17.956,-0.019 -34.217,-1.07 -43.514,-2.82 -0.344,-0.07 -0.64,-0.272 -0.822,-0.563 -14.402,-23.042 -25.506,-54.011 -31.035,-71.092 -31.53,-23.587 -41.758,-42.166 -42.223,-43.038 -0.28,-0.529 -0.167,-1.18 0.281,-1.573 0.451,-0.39 1.106,-0.431 1.596,-0.082 19.281,13.717 33.947,21.326 43.078,25.359 7.678,-6.458 22.004,-17.777 40.649,-29.213 -41.107,-8.697 -74.341,-33.751 -89.118,-66.341 -2.134,11.404 -6.428,36.587 -7.402,59.325 -0.021,0.448 -0.267,0.853 -0.659,1.069 -0.176,0.104 -14.051,7.915 -26.183,16.012 0.321,14.5 1.808,36.737 7.255,56.387 0.169,0.617 -0.14,1.269 -0.723,1.522 -0.17,0.073 -0.344,0.111 -0.517,0.111 -0.432,0 -0.854,-0.221 -1.094,-0.615 -0.167,-0.268 -14.071,-23.212 -18.573,-54.378 -2.567,-5.575 -7.559,-16.64 -11.681,-27.205 0.447,49.295 20.598,93.873 52.998,126.22 10.594,5.237 30.518,14.806 48.75,21.995 5.877,-1.353 14.773,-3.703 23.579,-7.227 0.531,-0.221 1.157,-0.036 1.502,0.431 0.352,0.463 0.344,1.1 -0.013,1.559 -0.08,0.104 -7.963,10.132 -16.534,18.211 -0.246,0.927 -0.469,2.118 -0.666,3.339 21.814,9.337 45.834,14.519 71.07,14.519 25.229,0 49.246,-5.182 71.058,-14.519 -0.189,-1.22 -0.41,-2.411 -0.66,-3.341 z"
         inkscape:connector-curvature="0"
         style="fill:#d8d9da" />
      <path
         id="path3349"
         d="m 100.758,280.647 c 2.737,1.181 13.037,5.634 22.771,10.212 -1.91,-7.358 -2.944,-14.981 -2.944,-22.811 0,-19.123 6.03,-37.063 16.544,-52.623 -13.378,10.71 -25.183,23.284 -35.054,37.324 -1.196,8.826 -2.115,19.373 -1.317,27.898 z"
         inkscape:connector-curvature="0"
         style="fill:#d8d9da" />
      <path
         id="path3351"
         d="m 305.353,499.193 c -0.519,-0.206 -1.152,-0.032 -1.501,0.431 -0.342,0.463 -0.342,1.1 0.016,1.559 0.076,0.104 7.954,10.132 16.525,18.208 0.25,0.93 0.471,2.122 0.663,3.342 2.46,-1.051 4.894,-2.14 7.292,-3.295 18.395,-8.867 35.057,-20.755 49.348,-35.017 -10.591,5.233 -30.519,14.81 -48.759,21.995 -5.885,-1.349 -14.785,-3.699 -23.584,-7.223 z"
         inkscape:connector-curvature="0"
         style="fill:#002d62" />
      <path
         id="path3353"
         d="m 305.64,284.902 6.365,2.078 3.38,-0.752 3.63,3.01 0.269,2.368 c 0.037,0.22 0.183,0.406 0.396,0.475 l 0.857,0.266 c 0.048,0.02 0.106,0.028 0.155,0.028 0.085,0 0.158,-0.021 0.235,-0.054 l 4.567,-2.237 3.601,-0.48 c 0.191,-0.024 0.361,-0.145 0.434,-0.32 0.078,-0.178 0.07,-0.38 -0.037,-0.544 l -1.144,-1.874 c -0.066,-0.11 -0.173,-0.189 -0.294,-0.235 l -3.123,-1.066 -8.137,-3.985 -12.79,-0.217 c -0.122,0.027 -0.243,0.042 -0.342,0.118 l -4.767,3.826 c -0.165,0.136 -0.25,0.377 -0.19,0.602 0.062,0.217 0.246,0.381 0.467,0.41 l 2.817,0.281 3.651,-1.698 z"
         inkscape:connector-curvature="0"
         style="fill:#002d62" />
      <path
         id="path3355"
         d="m 330.786,295.431 3.623,0.985 2.347,1.405 c 0.073,0.049 0.158,0.075 0.25,0.075 0.044,0 0.084,-0.007 0.128,-0.022 0.14,-0.039 0.243,-0.129 0.306,-0.252 l 0.776,-1.491 5.115,0.349 1.35,-0.801 c 0.15,-0.092 0.243,-0.259 0.243,-0.443 0,-0.182 -0.085,-0.35 -0.235,-0.441 l -3.428,-2.032 -1.11,-1.758 -2.839,-0.921 -1.023,0.334 -3.082,-0.899 c -0.144,-0.049 -0.305,-0.018 -0.426,0.078 -0.129,0.09 -0.206,0.235 -0.213,0.392 l -0.107,2.477 -1.773,1.013 c -0.154,0.092 -0.25,0.259 -0.257,0.445 l -0.011,1.01 c -0.009,0.234 0.145,0.44 0.366,0.497 z"
         inkscape:connector-curvature="0"
         style="fill:#002d62" />
      <path
         id="path3357"
         d="m 347.577,299.896 2.681,1.121 c 0.063,0.022 0.128,0.037 0.184,0.037 0.022,0 0.022,0 0.029,0 l 3.395,-0.194 c 0.212,-0.015 0.396,-0.159 0.459,-0.364 l 0.434,-1.429 c 0.059,-0.203 -0.019,-0.431 -0.177,-0.559 l -2.49,-1.91 -3.919,-0.59 c -0.137,-0.027 -0.269,0.011 -0.375,0.094 -0.107,0.088 -0.173,0.209 -0.188,0.355 l -0.342,2.899 c -0.026,0.228 0.107,0.455 0.309,0.54 z"
         inkscape:connector-curvature="0"
         style="fill:#002d62" />
      <path
         id="path3359"
         d="m 399.23,280.647 c -2.74,1.181 -13.069,5.648 -22.822,10.234 -0.25,0.117 -0.504,0.237 -0.754,0.351 -8.51,-4.674 -19.208,-9.927 -30.548,-13.936 -0.604,-0.197 -1.251,0.046 -1.563,0.594 -0.295,0.548 -0.159,1.241 0.327,1.629 0.199,0.152 13.82,10.927 26.684,23.556 0.151,0.82 0.335,1.744 0.541,2.839 2.121,11.363 6.432,36.609 7.413,59.388 0.022,0.448 0.269,0.853 0.655,1.069 0.184,0.104 14.048,7.915 26.187,16.012 -0.327,14.503 -1.802,36.737 -7.252,56.39 -0.168,0.614 0.136,1.266 0.721,1.519 0.169,0.073 0.334,0.111 0.519,0.111 0.427,0 0.854,-0.221 1.089,-0.615 0.168,-0.268 14.077,-23.212 18.568,-54.378 2.566,-5.575 7.568,-16.659 11.701,-27.287 0,-0.537 0.037,-1.066 0.037,-1.592 0,-38.639 -12.165,-74.411 -32.817,-103.789 1.193,8.823 2.112,19.376 1.314,27.905 z m 5.921,9.608 3.064,6.616 c 0.195,0.438 4.909,10.765 7.656,26.311 4.851,4.74 7.752,8.02 7.881,8.164 l 0.981,1.118 -0.731,1.294 c -0.092,0.169 -2.229,3.935 -5.535,7.241 0.975,15.03 -0.897,26.254 -0.982,26.739 l -1.378,8.142 -2.669,-7.818 c -2.019,-5.928 -4.34,-11.867 -6.922,-17.689 -6.487,3.751 -12.536,5.925 -12.819,6.032 l -4.803,1.706 2.213,-4.593 c 2.917,-6.052 5.351,-12.684 7.249,-19.708 -9.127,-16.75 -17.273,-26.525 -17.365,-26.625 l -6.12,-7.303 8.624,4.064 c 6.852,3.221 14.298,7.509 18.075,9.737 1.453,-6.913 2.647,-16.096 2.655,-16.203 l 0.926,-7.225 z"
         inkscape:connector-curvature="0"
         style="fill:#002d62" />
      <path
         id="path3361"
         d="m 144.318,214.231 c 10e-4,0.145 0.068,0.274 0.176,0.362 0.109,0.094 0.249,0.128 0.388,0.11 1.111,-0.164 2.193,-0.283 2.681,-0.333 0.553,0.767 0.682,1.568 0.713,1.93 -0.83,0.734 -4.49,4.001 -10.539,7.537 l -1.286,2.527 c -0.087,0.184 -0.059,0.404 0.071,0.557 0.138,0.151 0.355,0.208 0.533,0.14 0.188,-0.061 17.878,-7.357 27.471,-17.319 0.388,-0.019 0.789,-0.026 1.182,-0.026 2.021,-0.003 3.979,0.235 4.333,0.164 1.708,-1.113 4.265,-2.589 6.714,-3.297 0.022,-0.003 1.642,-0.403 3.815,-0.403 4.001,0 9.179,1.306 11.271,7.467 -1.294,1.69 -2.285,3.727 -2.362,4.145 0,0 0.634,2.411 1.638,5.905 -1.026,1.226 -6.439,7.788 -11.45,15.75 -0.068,0.118 -0.093,0.255 -0.059,0.388 0.02,0.088 2.191,8.771 5.062,14.968 0.096,0.199 0.296,0.309 0.522,0.281 0.015,-0.004 0.431,-0.057 1.082,-0.057 2.22,0 6.22,0.629 8.026,4.865 l 5.992,13.04 4.676,4.795 -1.954,1.107 c -0.13,0.073 -0.219,0.198 -0.247,0.344 -0.025,0.149 0.019,0.3 0.109,0.41 l 3.039,3.438 2.659,0.765 2.875,6.668 7.216,4.458 c 0.125,0.079 0.285,0.093 0.419,0.044 l 2.085,-0.708 c 0.136,-0.044 0.243,-0.143 0.299,-0.278 0.056,-0.132 0.052,-0.277 -0.01,-0.406 l -6.044,-12.5 -8.85,-9.354 0.432,-5.027 6.928,1.138 1.504,4.994 23.705,23.341 4.431,11.555 c 0.057,0.143 0.171,0.26 0.314,0.301 l 29.375,8.726 c 0.056,0.016 0.1,0.019 0.144,0.019 0.048,0 0.099,-0.003 0.147,-0.019 l 12.577,-3.747 c 0.15,-0.048 0.265,-0.169 0.32,-0.32 l 1.446,-4.336 5.273,-0.632 5.688,-4.31 c 0.199,-0.155 0.25,-0.42 0.136,-0.641 l -3.158,-5.935 1.949,-3.681 c 0.107,-0.191 0.07,-0.43 -0.092,-0.587 l -1.78,-1.774 c -0.114,-0.11 -0.268,-0.155 -0.433,-0.136 l -6.109,1.032 c -0.173,0.031 -0.309,0.141 -0.372,0.292 l -4.317,10.039 -4.681,1.357 -8.466,-6.014 c -3.302,-2.371 -8.046,-9.587 -4.612,-16.609 l -0.908,-6.787 9.572,-8.92 15.787,1.703 1.623,-0.933 c 0.221,-0.126 0.312,-0.412 0.205,-0.647 l -1.257,-2.563 3.052,-2.127 10.117,1.618 2.979,-0.743 5.725,2.01 0.691,4.474 4.561,6.075 0.845,2.303 c 0.067,0.209 0.287,0.338 0.507,0.327 l 1.487,-0.132 c 0.143,-0.016 0.29,-0.099 0.364,-0.229 l 1.806,-2.96 0.199,-3.799 -6.539,-10.121 c -1.529,-9.958 3.873,-17.699 7.892,-20.483 0.213,-0.14 0.283,-0.424 0.147,-0.65 l -2.063,-3.639 c 0.563,-0.916 2.07,-4.016 0.1,-8.106 0.449,-0.48 1.709,-1.569 3.994,-1.569 0.639,0 1.309,0.092 2.003,0.263 0.221,0.042 0.471,-0.064 0.57,-0.281 l 1.118,-2.569 c 0.078,-0.184 0.048,-0.39 -0.092,-0.537 -0.507,-0.564 -1.794,-2.234 -2.022,-3.639 2.504,-0.715 3.912,-1.124 6.273,-1.81 0.478,2.045 0.769,3.251 1.276,5.566 0.026,0.14 0.114,0.26 0.247,0.328 2.044,1.146 3.074,1.724 5.1,2.896 0.173,0.091 0.379,0.088 0.54,-0.026 1.873,-1.325 3.013,-2.155 4.413,-3.175 l 1.743,-1.263 c 0.114,-0.084 0.184,-0.206 0.206,-0.342 0.015,-0.134 -0.029,-0.274 -0.107,-0.377 l -1.437,-1.735 c -1.773,-2.163 -2.825,-3.442 -5.079,-5.955 -0.121,-0.14 -0.327,-0.2 -0.511,-0.143 -0.007,0.003 -0.784,0.228 -1.886,0.228 -1.972,0 -4.711,-0.693 -6.767,-4.226 -0.07,-0.031 -1.67,-0.722 -4.067,-0.722 -1.695,0 -3.358,0.346 -4.938,1.022 -0.313,-0.277 -0.669,-0.641 -1.03,-1.007 -0.427,-0.423 -0.849,-0.846 -1.209,-1.157 0.176,-0.842 1.11,-3.62 5.703,-4.069 4.626,-0.441 8.517,2.455 8.558,2.48 0.165,0.131 0.408,0.142 0.577,0.024 0.008,-0.015 1.379,-0.993 4.247,-0.64 3.152,0.198 5.947,0.682 6.995,0.883 -11.249,-7.304 -23.341,-13.429 -36.127,-18.106 -2.012,1.519 -6.365,3.992 -13.779,3.992 l -0.456,0 c -0.247,0.073 -0.405,0.123 -0.482,0.32 -1.081,2.884 -3.95,5.017 -3.986,5.04 -0.183,0.134 -0.246,0.373 -0.154,0.586 0.25,0.627 0.29,1.394 0.364,1.455 -0.335,0.35 -2.314,2.188 -6.19,2.227 l -7.17,-3.03 c -0.029,0.011 -8.16,1.814 -15.733,-3.198 l -0.106,-2.629 c 4.887,-3.827 12.787,-3.898 12.872,-3.902 0.136,0 0.26,-0.053 0.35,-0.146 l 1.386,-1.508 c 4.067,-0.79 12.043,-1.678 16.626,-1.678 0.481,0 0.916,0.009 1.684,0.035 0.897,0 1.544,-0.191 2.092,-0.616 l 0.938,-0.739 c -10.286,-2.98 -20.929,-5.116 -31.876,-6.228 -3.009,-0.308 -6.035,-0.536 -9.09,-0.691 l -4.656,5.799 c -1.456,-0.502 -7.342,-2.28 -14.481,-1.522 l -1.212,-4.159 c -2.519,0.152 -5.026,0.319 -7.516,0.574 -32.241,3.274 -61.941,15.059 -86.912,33.016 -0.155,1.36 -0.344,3.33 -0.291,4.479 z"
         inkscape:connector-curvature="0"
         style="fill:#002d62" />
      <path
         id="path3363"
         d="m 404.614,321.037 -3.016,-1.849 c -0.063,-0.044 -4.567,-2.807 -10.293,-5.955 3.215,4.696 7.278,11.11 11.581,19.075 l 0.485,0.9 -0.257,0.994 c -1.395,5.321 -3.093,10.437 -5.079,15.272 2.397,-1.115 5.259,-2.574 8.046,-4.318 l 2.519,-1.585 1.235,2.708 c 1.422,3.147 2.783,6.317 4.064,9.517 0.197,-4.324 0.235,-9.628 -0.199,-15.445 l -0.085,-1.247 0.923,-0.854 c 1.894,-1.757 3.442,-3.835 4.376,-5.229 -1.361,-1.459 -3.714,-3.946 -6.796,-6.958 l -0.611,-0.584 -0.143,-0.839 c -1.122,-6.501 -2.625,-12.138 -3.982,-16.464 -0.548,3.229 -1.203,6.678 -1.894,9.422 l -0.874,3.439 z"
         inkscape:connector-curvature="0"
         style="fill:#e31837" />
      <path
         id="path3365"
         d="m 383.495,303.944 -8.624,-4.064 6.12,7.303 c 0.092,0.1 8.238,9.874 17.365,26.625 -1.898,7.024 -4.332,13.655 -7.249,19.708 l -2.213,4.593 4.803,-1.706 c 0.283,-0.107 6.333,-2.28 12.819,-6.032 2.582,5.822 4.903,11.761 6.922,17.689 l 2.669,7.818 1.378,-8.142 c 0.085,-0.485 1.958,-11.709 0.982,-26.739 3.306,-3.306 5.442,-7.071 5.535,-7.241 l 0.731,-1.294 -0.981,-1.118 c -0.129,-0.144 -3.03,-3.424 -7.881,-8.164 -2.747,-15.545 -7.461,-25.873 -7.656,-26.311 l -3.064,-6.616 -0.927,7.224 c -0.007,0.107 -1.202,9.29 -2.655,16.203 -3.776,-2.226 -11.223,-6.515 -18.074,-9.736 z m 27.871,20.696 0.143,0.839 0.611,0.584 c 3.082,3.012 5.436,5.498 6.796,6.958 -0.934,1.394 -2.482,3.472 -4.376,5.229 l -0.923,0.854 0.085,1.247 c 0.434,5.817 0.396,11.121 0.199,15.445 -1.281,-3.2 -2.642,-6.369 -4.064,-9.517 l -1.235,-2.708 -2.519,1.585 c -2.788,1.744 -5.649,3.203 -8.046,4.318 1.985,-4.836 3.684,-9.951 5.079,-15.272 l 0.257,-0.994 -0.485,-0.9 c -4.303,-7.965 -8.366,-14.379 -11.581,-19.075 5.726,3.148 10.23,5.911 10.293,5.955 l 3.016,1.849 0.875,-3.438 c 0.69,-2.744 1.345,-6.192 1.894,-9.422 1.355,4.325 2.859,9.962 3.981,16.463 z"
         inkscape:connector-curvature="0"
         style="fill:#ffffff" />
      <path
         id="path3367"
         d="m 251.254,320.974 c -0.247,-1.199 -2.273,-1.199 -2.52,0 -0.054,0.269 -4.427,21.789 -8.03,38.658 -8.086,4.082 -15.7,8.387 -22.7,12.687 -18.645,11.437 -32.971,22.756 -40.649,29.213 -9.131,-4.034 -23.796,-11.643 -43.078,-25.359 -0.49,-0.35 -1.145,-0.309 -1.596,0.082 -0.448,0.393 -0.562,1.044 -0.281,1.573 0.465,0.872 10.693,19.45 42.223,43.038 5.529,17.081 16.633,48.05 31.035,71.092 0.182,0.291 0.478,0.493 0.822,0.563 9.296,1.75 25.558,2.802 43.514,2.82 17.947,-0.019 34.217,-1.07 43.513,-2.82 0.335,-0.07 0.636,-0.269 0.82,-0.563 14.405,-23.042 25.51,-54.011 31.038,-71.092 31.53,-23.587 41.754,-42.166 42.228,-43.038 0.272,-0.529 0.158,-1.18 -0.283,-1.573 -0.449,-0.39 -1.11,-0.431 -1.6,-0.082 -19.281,13.717 -33.942,21.326 -43.078,25.364 -7.675,-6.462 -22.009,-17.784 -40.654,-29.221 -7.001,-4.299 -14.607,-8.602 -22.701,-12.68 -3.606,-16.873 -7.967,-38.393 -8.023,-38.662 z m 64.208,90.576 -10.407,9.866 c -0.611,0.585 -14.533,13.728 -30.788,24.382 5.697,15.743 9.988,26.279 10.028,26.389 l 4.147,10.161 -9.896,-4.74 c -9.539,-4.557 -19.358,-10.002 -28.553,-15.824 -9.177,5.81 -19,11.259 -28.55,15.824 l -9.897,4.74 4.144,-10.161 c 0.049,-0.106 4.334,-10.646 10.03,-26.389 -16.26,-10.654 -30.177,-23.794 -30.795,-24.382 l -10.403,-9.866 14.098,2.629 c 0.16,0.029 15.204,2.792 36.483,3.376 4.571,-13.059 10.726,-36.113 10.795,-36.359 l 4.095,-15.364 4.094,15.36 c 0.06,0.25 6.226,23.304 10.793,36.363 21.285,-0.584 36.33,-3.347 36.48,-3.376 l 14.102,-2.629 z"
         inkscape:connector-curvature="0"
         style="fill:#002d62" />
      <path
         id="path3369"
         d="m 99.564,439.788 c 0.24,0.395 0.662,0.615 1.094,0.615 0.173,0 0.347,-0.038 0.517,-0.111 0.583,-0.253 0.892,-0.905 0.723,-1.522 -5.448,-19.649 -6.935,-41.886 -7.255,-56.387 12.132,-8.098 26.007,-15.909 26.183,-16.012 0.392,-0.216 0.638,-0.621 0.659,-1.069 0.974,-22.738 5.268,-47.921 7.402,-59.325 0.208,-1.114 0.388,-2.063 0.552,-2.901 12.868,-12.632 26.481,-23.403 26.672,-23.556 0.495,-0.388 0.631,-1.081 0.329,-1.629 -0.301,-0.548 -0.952,-0.791 -1.551,-0.594 -11.342,4.012 -22.045,9.261 -30.555,13.943 -0.267,-0.128 -0.539,-0.256 -0.805,-0.381 -9.733,-4.578 -20.033,-9.031 -22.771,-10.212 -0.798,-8.526 0.121,-19.073 1.317,-27.897 -20.647,29.377 -32.811,65.146 -32.811,103.781 0,0.559 0.037,1.111 0.046,1.674 4.123,10.565 9.114,21.63 11.681,27.205 4.502,31.166 18.406,54.111 18.573,54.378 z M 84.109,323.181 c 2.752,-15.549 7.466,-25.873 7.67,-26.311 l 3.056,-6.619 0.926,7.228 c 0.015,0.107 1.2,9.297 2.662,16.203 3.774,-2.228 11.218,-6.517 18.076,-9.737 l 8.635,-4.064 -6.134,7.303 c -0.088,0.1 -8.243,9.874 -17.365,26.625 1.897,7.039 4.335,13.663 7.251,19.708 l 2.22,4.593 -4.814,-1.706 c -0.277,-0.107 -6.34,-2.28 -12.819,-6.032 -2.589,5.848 -4.908,11.783 -6.925,17.689 l -2.66,7.826 -1.387,-8.149 c -0.081,-0.485 -1.949,-11.713 -0.974,-26.739 -3.31,-3.306 -5.449,-7.071 -5.544,-7.237 l -0.73,-1.295 0.987,-1.121 c 0.124,-0.145 3.031,-3.425 7.869,-8.165 z"
         inkscape:connector-curvature="0"
         style="fill:#002d62" />
      <path
         id="path3371"
         d="m 196.127,501.183 c 0.357,-0.459 0.364,-1.095 0.013,-1.559 -0.345,-0.467 -0.971,-0.652 -1.502,-0.431 -8.806,3.523 -17.702,5.874 -23.579,7.227 -18.233,-7.188 -38.156,-16.758 -48.75,-21.995 14.289,14.261 30.945,26.146 49.335,35.013 2.394,1.152 4.834,2.244 7.285,3.295 0.197,-1.221 0.419,-2.412 0.666,-3.339 8.569,-8.079 16.452,-18.107 16.532,-18.211 z"
         inkscape:connector-curvature="0"
         style="fill:#002d62" />
      <path
         id="path3373"
         d="m 259.021,426.153 -1.052,-2.788 c -2.463,-6.545 -5.545,-16.777 -7.974,-25.238 -2.429,8.473 -5.507,18.693 -7.985,25.238 l -1.048,2.788 -2.981,-0.051 c -10.576,-0.184 -19.745,-0.895 -26.709,-1.64 5.916,4.897 13.727,10.937 21.829,16.003 l 2.894,1.81 -1.15,3.21 c -2.773,7.755 -5.277,14.442 -7.226,19.516 6.833,-3.64 13.637,-7.641 20.069,-11.805 l 2.308,-1.493 2.3,1.493 c 6.443,4.171 13.257,8.175 20.078,11.805 -1.941,-5.074 -4.446,-11.761 -7.226,-19.519 l -1.148,-3.208 2.901,-1.81 c 8.091,-5.067 15.902,-11.106 21.815,-16.003 -6.966,0.746 -16.13,1.456 -26.71,1.64 l -2.985,0.052 z"
         inkscape:connector-curvature="0"
         style="fill:#e31837" />
      <path
         id="path3375"
         d="m 264.882,417.555 c -4.567,-13.059 -10.734,-36.113 -10.793,-36.363 l -4.094,-15.36 -4.095,15.364 c -0.07,0.246 -6.224,23.3 -10.795,36.359 -21.279,-0.584 -36.323,-3.347 -36.483,-3.376 l -14.098,-2.629 10.403,9.866 c 0.618,0.588 14.535,13.728 30.795,24.382 -5.696,15.743 -9.98,26.282 -10.03,26.389 l -4.144,10.161 9.897,-4.74 c 9.55,-4.564 19.373,-10.014 28.55,-15.824 9.195,5.821 19.014,11.267 28.553,15.824 l 9.896,4.74 -4.147,-10.161 c -0.041,-0.11 -4.332,-10.646 -10.028,-26.389 16.254,-10.654 30.176,-23.797 30.788,-24.382 l 10.407,-9.866 -14.1,2.629 c -0.152,0.029 -15.197,2.792 -36.482,3.376 z m 2.019,22.91 -2.901,1.81 1.146,3.208 c 2.78,7.758 5.285,14.445 7.226,19.519 -6.821,-3.63 -13.635,-7.634 -20.078,-11.805 l -2.3,-1.493 -2.308,1.493 c -6.432,4.164 -13.236,8.165 -20.069,11.805 1.949,-5.074 4.453,-11.761 7.226,-19.516 l 1.15,-3.21 -2.894,-1.81 c -8.102,-5.067 -15.914,-11.106 -21.829,-16.003 6.964,0.746 16.133,1.456 26.709,1.64 l 2.981,0.051 1.048,-2.788 c 2.478,-6.545 5.557,-16.766 7.985,-25.238 2.429,8.461 5.511,18.693 7.974,25.238 l 1.052,2.788 2.986,-0.051 c 10.58,-0.184 19.744,-0.895 26.71,-1.64 -5.912,4.896 -13.723,10.935 -21.814,16.002 z"
         inkscape:connector-curvature="0"
         style="fill:#ffffff" />
      <path
         id="path3377"
         d="m 85.455,338.25 0.914,0.854 -0.092,1.247 c -0.414,5.824 -0.383,11.131 -0.186,15.445 1.278,-3.192 2.637,-6.369 4.068,-9.517 l 1.228,-2.708 2.519,1.585 c 2.791,1.744 5.649,3.203 8.05,4.318 -1.983,-4.836 -3.682,-9.951 -5.077,-15.272 l -0.259,-0.994 0.487,-0.9 c 4.301,-7.965 8.371,-14.382 11.579,-19.075 -5.729,3.148 -10.222,5.911 -10.293,5.955 l -3.023,1.849 -0.861,-3.438 c -0.694,-2.744 -1.347,-6.192 -1.896,-9.422 -1.366,4.326 -2.871,9.963 -3.989,16.464 l -0.142,0.839 -0.607,0.584 c -3.085,3.012 -5.443,5.498 -6.805,6.958 0.941,1.394 2.485,3.471 4.385,5.228 z"
         inkscape:connector-curvature="0"
         style="fill:#e31837" />
      <path
         id="path3379"
         d="m 76.241,331.345 -0.987,1.121 0.73,1.295 c 0.095,0.166 2.234,3.931 5.544,7.237 -0.975,15.026 0.894,26.254 0.974,26.739 l 1.387,8.149 2.66,-7.826 c 2.017,-5.906 4.336,-11.841 6.925,-17.689 6.479,3.751 12.542,5.925 12.819,6.032 l 4.814,1.706 -2.22,-4.593 c -2.917,-6.045 -5.354,-12.669 -7.251,-19.708 9.122,-16.75 17.277,-26.525 17.365,-26.625 l 6.134,-7.303 -8.635,4.064 c -6.858,3.221 -14.301,7.509 -18.076,9.737 -1.462,-6.906 -2.647,-16.096 -2.662,-16.203 l -0.926,-7.228 -3.056,6.619 c -0.204,0.438 -4.918,10.762 -7.67,26.311 -4.839,4.741 -7.746,8.021 -7.869,8.165 z m 11.633,-5.281 0.607,-0.584 0.142,-0.839 c 1.118,-6.501 2.624,-12.138 3.989,-16.464 0.548,3.229 1.201,6.678 1.896,9.422 l 0.861,3.438 3.023,-1.849 c 0.071,-0.044 4.564,-2.807 10.293,-5.955 -3.208,4.693 -7.277,11.11 -11.579,19.075 l -0.487,0.9 0.259,0.994 c 1.395,5.321 3.093,10.437 5.077,15.272 -2.401,-1.115 -5.259,-2.574 -8.05,-4.318 l -2.519,-1.585 -1.228,2.708 c -1.431,3.147 -2.79,6.324 -4.068,9.517 -0.197,-4.314 -0.228,-9.621 0.186,-15.445 l 0.092,-1.247 -0.914,-0.854 c -1.9,-1.757 -3.444,-3.835 -4.385,-5.229 1.362,-1.459 3.72,-3.945 6.805,-6.957 z"
         inkscape:connector-curvature="0"
         style="fill:#ffffff" />
      <path
         id="path3381"
         d="m 81.95,64.385 -17.523,0 0,93.525 26.393,0 0,-49.94 36.731,45.683 c 0.307,0.483 2.833,4.257 8.059,4.257 l 17.529,0 0,-93.525 -26.399,0 0,49.962 -36.729,-45.696 c -0.156,-0.236 -2.71,-4.266 -8.061,-4.266"
         inkscape:connector-curvature="0"
         style="fill:#e31837" />
      <path
         id="path3383"
         d="m 220.731,64.385 -16.796,0 c -0.904,0 -9.079,0.118 -17.406,4.29 -11.967,5.976 -18.547,17.219 -18.547,31.667 l 0,57.567 26.391,0 0,-26.848 35.917,0 0,26.848 26.403,0 0,-57.567 c 0,-0.906 -0.114,-9.074 -4.288,-17.407 -5.978,-11.962 -17.229,-18.55 -31.674,-18.55 m 9.559,45.232 -35.917,0 0,-9.716 c 0,-7.757 6.309,-14.07 14.071,-14.07 l 7.784,0 c 7.758,0 14.062,6.313 14.062,14.066 l 0,9.72 z"
         inkscape:connector-curvature="0"
         style="fill:#e31837" />
      <path
         id="path3385"
         d="m 327.488,101.144 c -0.912,-0.075 -2.284,-0.11 -2.284,-0.11 l -21.047,0 c -4.773,0 -8.663,-3.657 -8.663,-8.145 0,-4.483 3.883,-8.14 8.656,-8.14 l 13.313,0 c 4.263,0 7.818,2.911 8.528,6.737 l 27.647,0 c -0.692,-13.68 -12.044,-25.201 -26.592,-26.823 0,0 -2.343,-0.221 -4.52,-0.221 l -25.198,0 c -2.431,0 -5.42,0.2 -9.22,1.355 -12.555,3.802 -21.027,14.649 -21.027,27.1 0,14.657 11.672,26.831 27.146,28.311 0.916,0.076 2.269,0.107 2.269,0.107 l 21.057,0 c 4.781,0 8.672,3.653 8.672,8.149 0,4.479 -3.883,8.142 -8.657,8.142 l -13.322,0 c -4.255,-0.007 -7.808,-2.913 -8.517,-6.744 l -27.651,0 c 0.703,13.691 12.051,25.202 26.584,26.827 0,0 2.361,0.224 4.538,0.224 l 25.191,0 c 2.435,0 5.428,-0.206 9.219,-1.355 12.551,-3.802 21.042,-14.662 21.042,-27.105 0.001,-14.655 -11.686,-26.83 -27.164,-28.309"
         inkscape:connector-curvature="0"
         style="fill:#e31837" />
      <path
         id="path3387"
         d="m 441.26,136.418 -47.899,0 0,-72.043 -26.4,0 0,85.285 c 0.022,4.529 3.664,8.195 8.189,8.252 l 66.11,0 0,-21.494 z"
         inkscape:connector-curvature="0"
         style="fill:#e31837" />
      <path
         id="path3389"
         d="m 440.216,547.644 0,13.891 -2.064,0 0,-13.891 -5.222,0 0,-1.864 12.485,0 0,1.864 -5.199,0 z m 24.385,-1.864 0,15.754 -2.056,0 0,-12.508 0,-0.305 0,-0.629 0,-0.29 c -0.048,0.129 -0.077,0.209 -0.106,0.246 l -0.122,0.313 -0.122,0.276 -5.505,12.896 -1.993,0 -5.52,-12.739 -0.121,-0.24 -0.114,-0.282 c -0.026,-0.06 -0.063,-0.155 -0.114,-0.302 l 0,0.364 0,0.339 0,0.353 0,12.508 -2.07,0 0,-15.754 3.354,0 4.31,10.102 0.684,1.623 0.327,0.804 0.231,0.531 c 0.114,-0.254 0.203,-0.435 0.235,-0.531 l 0.32,-0.804 0.692,-1.623 4.295,-10.102 3.395,0 z"
         inkscape:connector-curvature="0"
         style="fill:#002d62" />
    </g>
  </g>
</svg>
